SplineFontDB: 3.0
FontName: AdorshoLipi
FullName: AdorshoLipi
FamilyName: AdorshoLipi
Weight: Book
Version: 1.0
ItalicAngle: 0
UnderlinePosition: -297
UnderlineWidth: 20
Ascent: 614
Descent: 154
sfntRevision: 0x00010000
LayerCount: 2
Layer: 0 1 "Back"  1
Layer: 1 1 "Fore"  0
XUID: [1021 775 1749502340 4200860]
FSType: 0
OS2Version: 3
OS2_WeightWidthSlopeOnly: 0
OS2_UseTypoMetrics: 1
CreationTime: 1313703321
ModificationTime: 1313704798
PfmFamily: 17
TTFWeight: 400
TTFWidth: 5
LineGap: 259
VLineGap: 0
Panose: 2 0 6 0 0 0 0 0 0 0
OS2TypoAscent: 386
OS2TypoAOffset: 1
OS2TypoDescent: -246
OS2TypoDOffset: 1
OS2TypoLinegap: 259
OS2WinAscent: -33
OS2WinAOffset: 1
OS2WinDescent: -2
OS2WinDOffset: 1
HheadAscent: -33
HheadAOffset: 1
HheadDescent: 2
HheadDOffset: 1
OS2SubXSize: 700
OS2SubYSize: 650
OS2SubXOff: 0
OS2SubYOff: 200
OS2SupXSize: 700
OS2SupYSize: 650
OS2SupXOff: 0
OS2SupYOff: 500
OS2StrikeYSize: 50
OS2StrikeYPos: 250
OS2Vendor: 'AVRO'
OS2CodePages: 00000001.00000000
OS2UnicodeRanges: 00010000.00000000.00000000.00000000
Lookup: 1 0 0 "'init' Initial Forms lookup 0"  {"'init' Initial Forms lookup 0 subtable"  } ['init' ('beng' <'dflt' > 'bng2' <'dflt' > ) ]
Lookup: 4 0 0 "'nukt' Nukta Forms lookup 1"  {"'nukt' Nukta Forms lookup 1 subtable"  } ['nukt' ('beng' <'dflt' > 'bng2' <'dflt' > ) ]
Lookup: 4 0 0 "'akhn' Akhand lookup 2"  {"'akhn' Akhand lookup 2 subtable"  } ['akhn' ('beng' <'dflt' > 'bng2' <'dflt' > ) ]
Lookup: 4 0 0 "'rphf' Reph Form lookup 3"  {"'rphf' Reph Form lookup 3 subtable"  } ['rphf' ('beng' <'dflt' > 'bng2' <'dflt' > ) ]
Lookup: 4 0 0 "'blwf' Below Base Forms in Bengali lookup 4"  {"'blwf' Below Base Forms in Bengali lookup 4 subtable"  } ['blwf' ('beng' <'dflt' > ) ]
Lookup: 4 0 0 "'blwf' Below Base Forms in Bengali2 lookup 5"  {"'blwf' Below Base Forms in Bengali2 lookup 5 subtable"  } ['blwf' ('bng2' <'dflt' > ) ]
Lookup: 4 0 0 "'half' Half Forms lookup 6"  {"'half' Half Forms lookup 6 subtable"  } ['half' ('beng' <'dflt' > 'bng2' <'dflt' > ) ]

StartChar: .notdef
Encoding: 65536 -1 0
Width: 672
GlyphClass: 2
Flags: W
LayerCount: 2
Fore
SplineSet
102 678 m 1,0,-1
 567 678 l 1,1,-1
 567 0 l 1,2,-1
 102 0 l 1,3,-1
 102 678 l 1,0,-1
507 60 m 1,4,-1
 507 618 l 1,5,-1
 163 618 l 1,6,-1
 163 60 l 1,7,-1
 507 60 l 1,4,-1
EndSplineSet
EndChar

StartChar: exclam
Encoding: 33 33 4
Width: 272
GlyphClass: 2
Flags: W
LayerCount: 2
Fore
SplineSet
154 190 m 1,0,1
 145 183 145 183 142.5 179 c 128,-1,2
 140 175 140 175 128 171 c 1,3,-1
 114 181 l 1,4,-1
 86 617 l 1,5,6
 105 629 105 629 125 639 c 128,-1,7
 145 649 145 649 162 657 c 1,8,-1
 183 644 l 1,9,-1
 154 190 l 1,0,1
191 60 m 0,10,11
 191 26 191 26 172 3 c 128,-1,12
 153 -20 153 -20 124 -20 c 0,13,14
 75 -20 75 -20 75 35 c 0,15,16
 75 68 75 68 95 91.5 c 128,-1,17
 115 115 115 115 143 115 c 0,18,19
 191 115 191 115 191 60 c 0,10,11
EndSplineSet
EndChar

StartChar: quotedbl
Encoding: 34 34 5
Width: 425
GlyphClass: 2
Flags: W
LayerCount: 2
Fore
SplineSet
326 407 m 1,0,1
 318 403 318 403 304 400 c 128,-1,2
 290 397 290 397 279 397 c 1,3,-1
 253 696 l 1,4,5
 258 699 258 699 268 703.5 c 128,-1,6
 278 708 278 708 289.5 712 c 128,-1,7
 301 716 301 716 311 719 c 128,-1,8
 321 722 321 722 326 723 c 1,9,-1
 347 712 l 1,10,-1
 326 407 l 1,0,1
151 407 m 1,11,12
 143 403 143 403 129 400 c 128,-1,13
 115 397 115 397 104 397 c 1,14,-1
 78 696 l 1,15,16
 84 699 84 699 94 703.5 c 128,-1,17
 104 708 104 708 115 712 c 128,-1,18
 126 716 126 716 136 719 c 128,-1,19
 146 722 146 722 151 723 c 1,20,-1
 172 712 l 1,21,-1
 151 407 l 1,11,12
EndSplineSet
EndChar

StartChar: numbersign
Encoding: 35 35 6
Width: 469
GlyphClass: 2
Flags: W
LayerCount: 2
Fore
SplineSet
479 457 m 1,0,1
 477 446 477 446 472.5 433.5 c 128,-1,2
 468 421 468 421 464 413 c 1,3,-1
 106 413 l 1,4,-1
 94 425 l 1,5,6
 96 436 96 436 100.5 447.5 c 128,-1,7
 105 459 105 459 109 469 c 1,8,-1
 467 469 l 1,9,-1
 479 457 l 1,0,1
283 83 m 1,10,11
 274 76 274 76 262.5 71.5 c 128,-1,12
 251 67 251 67 238 62 c 1,13,-1
 226 72 l 1,14,-1
 379 611 l 1,15,16
 390 619 390 619 401 622.5 c 128,-1,17
 412 626 412 626 423 631 c 1,18,-1
 437 620 l 1,19,-1
 283 83 l 1,10,11
136 83 m 1,20,21
 128 76 128 76 116.5 71.5 c 128,-1,22
 105 67 105 67 92 62 c 1,23,-1
 80 72 l 1,24,-1
 233 611 l 1,25,26
 244 619 244 619 254.5 622.5 c 128,-1,27
 265 626 265 626 276 631 c 1,28,-1
 291 620 l 1,29,-1
 136 83 l 1,20,21
426 275 m 1,30,31
 424 265 424 265 420 252.5 c 128,-1,32
 416 240 416 240 413 232 c 1,33,-1
 53 232 l 1,34,-1
 42 244 l 1,35,36
 44 254 44 254 48 266 c 128,-1,37
 52 278 52 278 57 288 c 1,38,-1
 416 288 l 1,39,-1
 426 275 l 1,30,31
EndSplineSet
EndChar

StartChar: dollar
Encoding: 36 36 7
Width: 469
GlyphClass: 2
Flags: W
LayerCount: 2
Fore
SplineSet
255 -70 m 1,0,1
 246 -78 246 -78 241 -80 c 128,-1,2
 236 -82 236 -82 224 -85 c 1,3,-1
 211 -74 l 1,4,-1
 211 662 l 1,5,6
 218 666 218 666 221 668 c 128,-1,7
 224 670 224 670 226 671 c 128,-1,8
 228 672 228 672 231.5 673 c 128,-1,9
 235 674 235 674 242 676 c 1,10,-1
 255 665 l 1,11,-1
 255 -70 l 1,0,1
421 184 m 0,12,13
 421 151 421 151 408.5 117.5 c 128,-1,14
 396 84 396 84 369 57 c 128,-1,15
 342 30 342 30 300.5 12.5 c 128,-1,16
 259 -5 259 -5 201 -5 c 0,17,18
 167 -5 167 -5 131 7 c 128,-1,19
 95 19 95 19 50 47 c 0,20,21
 47 49 47 49 45 63 c 128,-1,22
 43 77 43 77 43 95.5 c 128,-1,23
 43 114 43 114 44.5 133 c 128,-1,24
 46 152 46 152 50 166 c 1,25,-1
 71 164 l 1,26,27
 98 106 98 106 142 80 c 128,-1,28
 186 54 186 54 239 54 c 0,29,30
 261 54 261 54 281.5 61.5 c 128,-1,31
 302 69 302 69 318.5 82.5 c 128,-1,32
 335 96 335 96 345 115.5 c 128,-1,33
 355 135 355 135 355 158 c 0,34,35
 355 198 355 198 332.5 222.5 c 128,-1,36
 310 247 310 247 275.5 263.5 c 128,-1,37
 241 280 241 280 201.5 293 c 128,-1,38
 162 306 162 306 127.5 324.5 c 128,-1,39
 93 343 93 343 70.5 371 c 128,-1,40
 48 399 48 399 48 445 c 0,41,42
 48 468 48 468 58 494 c 128,-1,43
 68 520 68 520 91.5 542 c 128,-1,44
 115 564 115 564 153.5 578.5 c 128,-1,45
 192 593 192 593 250 593 c 0,46,47
 297 593 297 593 336.5 581 c 128,-1,48
 376 569 376 569 396 549 c 0,49,50
 399 546 399 546 395.5 536.5 c 128,-1,51
 392 527 392 527 385 516.5 c 128,-1,52
 378 506 378 506 369.5 496 c 128,-1,53
 361 486 361 486 355 480 c 1,54,-1
 336 484 l 1,55,56
 308 516 308 516 278.5 530.5 c 128,-1,57
 249 545 249 545 220 545 c 0,58,59
 189 545 189 545 168 538 c 128,-1,60
 147 531 147 531 134 520 c 128,-1,61
 121 509 121 509 115.5 495.5 c 128,-1,62
 110 482 110 482 110 468 c 0,63,64
 110 436 110 436 133 416 c 128,-1,65
 156 396 156 396 190.5 381 c 128,-1,66
 225 366 225 366 265.5 352 c 128,-1,67
 306 338 306 338 340.5 317 c 128,-1,68
 375 296 375 296 398 264.5 c 128,-1,69
 421 233 421 233 421 184 c 0,12,13
EndSplineSet
EndChar

StartChar: percent
Encoding: 37 37 8
Width: 690
GlyphClass: 2
Flags: W
LayerCount: 2
Fore
SplineSet
653 151 m 256,0,1
 653 117 653 117 641.5 87 c 128,-1,2
 630 57 630 57 610 34.5 c 128,-1,3
 590 12 590 12 564 -1.5 c 128,-1,4
 538 -15 538 -15 510 -15 c 0,5,6
 481 -15 481 -15 457.5 -1.5 c 128,-1,7
 434 12 434 12 416.5 34.5 c 128,-1,8
 399 57 399 57 389.5 87 c 128,-1,9
 380 117 380 117 380 151 c 256,10,11
 380 185 380 185 392 214.5 c 128,-1,12
 404 244 404 244 423.5 266.5 c 128,-1,13
 443 289 443 289 469 302 c 128,-1,14
 495 315 495 315 523 315 c 0,15,16
 552 315 552 315 576 302 c 128,-1,17
 600 289 600 289 617 267 c 128,-1,18
 634 245 634 245 643.5 215 c 128,-1,19
 653 185 653 185 653 151 c 256,0,1
175 8 m 1,20,21
 170 5 170 5 161.5 1.5 c 128,-1,22
 153 -2 153 -2 143.5 -5.5 c 128,-1,23
 134 -9 134 -9 124.5 -12 c 128,-1,24
 115 -15 115 -15 109 -17 c 1,25,-1
 97 0 l 1,26,-1
 515 580 l 1,27,28
 529 588 529 588 547 594 c 128,-1,29
 565 600 565 600 580 604 c 1,30,-1
 594 588 l 1,31,-1
 175 8 l 1,20,21
311 438 m 256,32,33
 311 404 311 404 299.5 374 c 128,-1,34
 288 344 288 344 268 321.5 c 128,-1,35
 248 299 248 299 222 285.5 c 128,-1,36
 196 272 196 272 167 272 c 256,37,38
 138 272 138 272 114.5 285.5 c 128,-1,39
 91 299 91 299 73.5 321.5 c 128,-1,40
 56 344 56 344 46.5 374 c 128,-1,41
 37 404 37 404 37 438 c 256,42,43
 37 472 37 472 49 502 c 128,-1,44
 61 532 61 532 80.5 554.5 c 128,-1,45
 100 577 100 577 126 590 c 128,-1,46
 152 603 152 603 180 603 c 0,47,48
 209 603 209 603 233 590 c 128,-1,49
 257 577 257 577 274.5 554.5 c 128,-1,50
 292 532 292 532 301.5 502 c 128,-1,51
 311 472 311 472 311 438 c 256,32,33
583 141 m 0,52,53
 583 210 583 210 561 243 c 128,-1,54
 539 276 539 276 510 276 c 0,55,56
 488 276 488 276 469.5 248 c 128,-1,57
 451 220 451 220 451 162 c 0,58,59
 451 91 451 91 471 58 c 128,-1,60
 491 25 491 25 523 25 c 0,61,62
 547 25 547 25 565 54.5 c 128,-1,63
 583 84 583 84 583 141 c 0,52,53
240 428 m 0,64,65
 240 498 240 498 218 530.5 c 128,-1,66
 196 563 196 563 167 563 c 0,67,68
 145 563 145 563 126.5 535 c 128,-1,69
 108 507 108 507 108 449 c 0,70,71
 108 378 108 378 128 345 c 128,-1,72
 148 312 148 312 180 312 c 0,73,74
 204 312 204 312 222 341.5 c 128,-1,75
 240 371 240 371 240 428 c 0,64,65
EndSplineSet
EndChar

StartChar: ampersand
Encoding: 38 38 9
Width: 667
GlyphClass: 2
Flags: W
LayerCount: 2
Fore
SplineSet
657 365 m 1,0,1
 645 350 645 350 633 340 c 128,-1,2
 621 330 621 330 609 322 c 1,3,4
 591 330 591 330 566.5 335.5 c 128,-1,5
 542 341 542 341 525 342 c 1,6,7
 536 325 536 325 538.5 309.5 c 128,-1,8
 541 294 541 294 541 265 c 0,9,10
 541 223 541 223 518 174 c 128,-1,11
 495 125 495 125 454.5 83 c 128,-1,12
 414 41 414 41 359.5 13 c 128,-1,13
 305 -15 305 -15 243 -15 c 0,14,15
 198 -15 198 -15 160.5 -3 c 128,-1,16
 123 9 123 9 96 32.5 c 128,-1,17
 69 56 69 56 54 91 c 128,-1,18
 39 126 39 126 39 172 c 0,19,20
 39 238 39 238 94 306 c 128,-1,21
 149 374 149 374 252 432 c 0,22,23
 283 449 283 449 303.5 467 c 128,-1,24
 324 485 324 485 335.5 503 c 128,-1,25
 347 521 347 521 351.5 538.5 c 128,-1,26
 356 556 356 556 356 572 c 0,27,28
 356 606 356 606 339 631 c 128,-1,29
 322 656 322 656 287 656 c 0,30,31
 269 656 269 656 256 647 c 128,-1,32
 243 638 243 638 234.5 623 c 128,-1,33
 226 608 226 608 221.5 589.5 c 128,-1,34
 217 571 217 571 217 552 c 0,35,36
 217 513 217 513 233 468 c 128,-1,37
 249 423 249 423 275.5 376.5 c 128,-1,38
 302 330 302 330 336 284 c 128,-1,39
 370 238 370 238 406.5 197 c 128,-1,40
 443 156 443 156 479 121 c 128,-1,41
 515 86 515 86 545 62 c 0,42,43
 564 46 564 46 585 41 c 128,-1,44
 606 36 606 36 635 43 c 1,45,-1
 639 22 l 1,46,47
 597 3 597 3 568 -6 c 128,-1,48
 539 -15 539 -15 528 -15 c 0,49,50
 516 -15 516 -15 484 9.5 c 128,-1,51
 452 34 452 34 410.5 75.5 c 128,-1,52
 369 117 369 117 324 171.5 c 128,-1,53
 279 226 279 226 241.5 285.5 c 128,-1,54
 204 345 204 345 179.5 406.5 c 128,-1,55
 155 468 155 468 155 524 c 0,56,57
 155 563 155 563 168 597 c 128,-1,58
 181 631 181 631 203 655.5 c 128,-1,59
 225 680 225 680 253.5 694 c 128,-1,60
 282 708 282 708 313 708 c 256,61,62
 344 708 344 708 365.5 698 c 128,-1,63
 387 688 387 688 400 671.5 c 128,-1,64
 413 655 413 655 418.5 633.5 c 128,-1,65
 424 612 424 612 424 588 c 0,66,67
 424 537 424 537 392 492 c 128,-1,68
 360 447 360 447 302 411 c 0,69,70
 249 378 249 378 213.5 348.5 c 128,-1,71
 178 319 178 319 157 291.5 c 128,-1,72
 136 264 136 264 127 237 c 128,-1,73
 118 210 118 210 118 182 c 0,74,75
 118 148 118 148 129.5 121.5 c 128,-1,76
 141 95 141 95 160.5 77 c 128,-1,77
 180 59 180 59 205.5 50 c 128,-1,78
 231 41 231 41 258 41 c 0,79,80
 310 41 310 41 351.5 61.5 c 128,-1,81
 393 82 393 82 422 112.5 c 128,-1,82
 451 143 451 143 466.5 178.5 c 128,-1,83
 482 214 482 214 482 245 c 0,84,85
 482 266 482 266 475 284 c 128,-1,86
 468 302 468 302 457 315.5 c 128,-1,87
 446 329 446 329 432 336.5 c 128,-1,88
 418 344 418 344 404 344 c 1,89,-1
 393 358 l 1,90,91
 398 364 398 364 408.5 371.5 c 128,-1,92
 419 379 419 379 429 383 c 1,93,-1
 646 383 l 1,94,-1
 657 365 l 1,95,-1
 657 365 l 1,0,1
EndSplineSet
EndChar

StartChar: quotesingle
Encoding: 39 39 10
Width: 250
GlyphClass: 2
Flags: W
LayerCount: 2
Fore
SplineSet
151 407 m 1,0,1
 143 403 143 403 129 400 c 128,-1,2
 115 397 115 397 104 397 c 1,3,-1
 78 696 l 1,4,5
 84 699 84 699 94 703.5 c 128,-1,6
 104 708 104 708 115 712 c 128,-1,7
 126 716 126 716 136 719 c 128,-1,8
 146 722 146 722 151 723 c 1,9,-1
 172 712 l 1,10,-1
 151 407 l 1,0,1
EndSplineSet
EndChar

StartChar: parenleft
Encoding: 40 40 11
Width: 317
GlyphClass: 2
Flags: W
LayerCount: 2
Fore
SplineSet
282 -154 m 1,0,1
 227 -129 227 -129 185 -83 c 128,-1,2
 143 -37 143 -37 115 23 c 128,-1,3
 87 83 87 83 73 154.5 c 128,-1,4
 59 226 59 226 59 304 c 0,5,6
 59 384 59 384 75 459 c 128,-1,7
 91 534 91 534 120 596.5 c 128,-1,8
 149 659 149 659 190.5 707 c 128,-1,9
 232 755 232 755 282 781 c 1,10,-1
 298 759 l 1,11,12
 266 732 266 732 237.5 689.5 c 128,-1,13
 209 647 209 647 188 590.5 c 128,-1,14
 167 534 167 534 154.5 465 c 128,-1,15
 142 396 142 396 142 318 c 0,16,17
 142 247 142 247 152.5 179 c 128,-1,18
 163 111 163 111 182.5 52.5 c 128,-1,19
 202 -6 202 -6 231 -53.5 c 128,-1,20
 260 -101 260 -101 298 -132 c 1,21,-1
 282 -154 l 1,0,1
EndSplineSet
EndChar

StartChar: parenright
Encoding: 41 41 12
Width: 317
GlyphClass: 2
Flags: W
LayerCount: 2
Fore
SplineSet
259 324 m 0,0,1
 259 244 259 244 243 169 c 128,-1,2
 227 94 227 94 197.5 31 c 128,-1,3
 168 -32 168 -32 126.5 -80 c 128,-1,4
 85 -128 85 -128 35 -154 c 1,5,-1
 20 -132 l 1,6,7
 51 -105 51 -105 79.5 -62 c 128,-1,8
 108 -19 108 -19 129.5 37.5 c 128,-1,9
 151 94 151 94 163.5 163 c 128,-1,10
 176 232 176 232 176 310 c 0,11,12
 176 381 176 381 165.5 448.5 c 128,-1,13
 155 516 155 516 135.5 575 c 128,-1,14
 116 634 116 634 86.5 681.5 c 128,-1,15
 57 729 57 729 20 759 c 1,16,-1
 35 781 l 1,17,18
 90 756 90 756 132 710.5 c 128,-1,19
 174 665 174 665 202 605 c 128,-1,20
 230 545 230 545 244.5 473.5 c 128,-1,21
 259 402 259 402 259 324 c 0,0,1
EndSplineSet
EndChar

StartChar: asterisk
Encoding: 42 42 13
Width: 447
GlyphClass: 2
Flags: W
LayerCount: 2
Fore
SplineSet
171 518 m 1,0,1
 167 520 167 520 166 519 c 128,-1,2
 165 518 165 518 164.5 517 c 128,-1,3
 164 516 164 516 163.5 516 c 128,-1,4
 163 516 163 516 160 521 c 1,5,-1
 366 676 l 1,6,7
 377 669 377 669 390.5 660 c 128,-1,8
 404 651 404 651 412 643 c 1,9,-1
 413 623 l 1,10,-1
 171 518 l 1,0,1
228 490 m 1,11,12
 224 488 224 488 224.5 486.5 c 128,-1,13
 225 485 225 485 226 484 c 128,-1,14
 227 483 227 483 226.5 482.5 c 128,-1,15
 226 482 226 482 220 482 c 1,16,-1
 189 739 l 1,17,18
 200 744 200 744 215 752 c 128,-1,19
 230 760 230 760 241 762 c 1,20,-1
 259 752 l 1,21,-1
 228 490 l 1,11,12
401 491 m 1,22,23
 400 479 400 479 399.5 462.5 c 128,-1,24
 399 446 399 446 395 435 c 1,25,-1
 377 424 l 1,26,-1
 167 582 l 1,27,28
 167 586 167 586 165.5 586.5 c 128,-1,29
 164 587 164 587 162.5 587 c 128,-1,30
 161 587 161 587 161 587.5 c 128,-1,31
 161 588 161 588 164 593 c 1,32,-1
 401 491 l 1,22,23
46 616 m 1,33,34
 47 628 47 628 47.5 645 c 128,-1,35
 48 662 48 662 52 672 c 1,36,-1
 69 683 l 1,37,-1
 281 526 l 1,38,39
 281 521 281 521 282 521 c 128,-1,40
 283 521 283 521 284.5 521 c 128,-1,41
 286 521 286 521 286 520.5 c 128,-1,42
 286 520 286 520 283 515 c 1,43,-1
 46 616 l 1,33,34
258 369 m 1,44,45
 247 363 247 363 232.5 355.5 c 128,-1,46
 218 348 218 348 207 346 c 1,47,-1
 188 355 l 1,48,-1
 219 617 l 1,49,50
 223 619 223 619 222.5 620.5 c 128,-1,51
 222 622 222 622 221.5 623 c 128,-1,52
 221 624 221 624 221.5 624.5 c 128,-1,53
 222 625 222 625 228 625 c 1,54,-1
 258 369 l 1,44,45
81 431 m 1,55,56
 70 438 70 438 56 447 c 128,-1,57
 42 456 42 456 35 464 c 1,58,-1
 34 485 l 1,59,-1
 276 589 l 1,60,61
 280 587 280 587 281 588 c 128,-1,62
 282 589 282 589 282.5 590 c 128,-1,63
 283 591 283 591 283.5 591 c 128,-1,64
 284 591 284 591 287 586 c 1,65,-1
 81 431 l 1,55,56
EndSplineSet
EndChar

StartChar: plus
Encoding: 43 43 14
Width: 410
GlyphClass: 2
Flags: W
LayerCount: 2
Fore
SplineSet
380 290 m 1,0,1
 378 280 378 280 373.5 267.5 c 128,-1,2
 369 255 369 255 365 247 c 1,3,-1
 42 247 l 1,4,-1
 30 259 l 1,5,6
 35 280 35 280 45 302 c 1,7,-1
 368 302 l 1,8,-1
 380 290 l 1,0,1
233 115 m 1,9,10
 223 110 223 110 211.5 106 c 128,-1,11
 200 102 200 102 189 100 c 1,12,-1
 177 111 l 1,13,-1
 177 435 l 1,14,15
 186 438 186 438 198 442.5 c 128,-1,16
 210 447 210 447 221 449 c 1,17,-1
 233 438 l 1,18,-1
 233 115 l 1,9,10
EndSplineSet
EndChar

StartChar: comma
Encoding: 44 44 15
Width: 229
GlyphClass: 2
Flags: W
LayerCount: 2
Fore
SplineSet
191 34 m 0,0,1
 191 15 191 15 183.5 -9 c 128,-1,2
 176 -33 176 -33 161.5 -57.5 c 128,-1,3
 147 -82 147 -82 126.5 -106 c 128,-1,4
 106 -130 106 -130 81 -149 c 1,5,-1
 59 -132 l 1,6,7
 86 -100 86 -100 97.5 -71 c 128,-1,8
 109 -42 109 -42 109 0 c 0,9,10
 109 22 109 22 96 34.5 c 128,-1,11
 83 47 83 47 51 45 c 1,12,-1
 43 68 l 1,13,14
 47 74 47 74 61 81.5 c 128,-1,15
 75 89 75 89 92.5 96 c 128,-1,16
 110 103 110 103 126 107.5 c 128,-1,17
 142 112 142 112 151 112 c 1,18,19
 174 101 174 101 182.5 81.5 c 128,-1,20
 191 62 191 62 191 34 c 0,0,1
EndSplineSet
EndChar

StartChar: hyphen
Encoding: 45 45 16
Width: 337
GlyphClass: 2
Flags: W
LayerCount: 2
Fore
SplineSet
307 266 m 1,0,1
 304 255 304 255 300 242.5 c 128,-1,2
 296 230 296 230 292 222 c 1,3,-1
 42 222 l 1,4,-1
 30 234 l 1,5,6
 32 245 32 245 36 256.5 c 128,-1,7
 40 268 40 268 45 278 c 1,8,-1
 295 278 l 1,9,-1
 307 266 l 1,10,-1
 307 266 l 1,0,1
EndSplineSet
EndChar

StartChar: period
Encoding: 46 46 17
Width: 229
GlyphClass: 2
Flags: W
LayerCount: 2
Fore
SplineSet
180 60 m 0,0,1
 180 26 180 26 161 3 c 128,-1,2
 142 -20 142 -20 113 -20 c 0,3,4
 87 -20 87 -20 75.5 -5.5 c 128,-1,5
 64 9 64 9 64 35 c 0,6,7
 64 68 64 68 84 91.5 c 128,-1,8
 104 115 104 115 132 115 c 0,9,10
 180 115 180 115 180 60 c 0,0,1
EndSplineSet
EndChar

StartChar: slash
Encoding: 47 47 18
Width: 469
GlyphClass: 2
Flags: W
LayerCount: 2
Fore
SplineSet
103 -139 m 1,0,1
 93 -145 93 -145 73.5 -152.5 c 128,-1,2
 54 -160 54 -160 42 -164 c 1,3,-1
 24 -151 l 1,4,-1
 366 757 l 1,5,6
 380 766 380 766 396 771.5 c 128,-1,7
 412 777 412 777 426 781 c 1,8,-1
 444 771 l 1,9,-1
 103 -139 l 1,0,1
EndSplineSet
EndChar

StartChar: zero
Encoding: 48 48 19
Width: 469
GlyphClass: 2
Flags: W
LayerCount: 2
Fore
SplineSet
432 294 m 0,0,1
 432 231 432 231 417 175 c 128,-1,2
 402 119 402 119 375 76.5 c 128,-1,3
 348 34 348 34 309.5 9.5 c 128,-1,4
 271 -15 271 -15 225 -15 c 0,5,6
 178 -15 178 -15 143 9.5 c 128,-1,7
 108 34 108 34 84.5 76.5 c 128,-1,8
 61 119 61 119 49 175 c 128,-1,9
 37 231 37 231 37 294 c 256,10,11
 37 357 37 357 52 413 c 128,-1,12
 67 469 67 469 94.5 511.5 c 128,-1,13
 122 554 122 554 160 578.5 c 128,-1,14
 198 603 198 603 244 603 c 256,15,16
 290 603 290 603 325.5 578.5 c 128,-1,17
 361 554 361 554 384.5 512 c 128,-1,18
 408 470 408 470 420 414 c 128,-1,19
 432 358 432 358 432 294 c 0,0,1
352 276 m 0,20,21
 352 343 352 343 341.5 393.5 c 128,-1,22
 331 444 331 444 313.5 478 c 128,-1,23
 296 512 296 512 273 529.5 c 128,-1,24
 250 547 250 547 225 547 c 0,25,26
 175 547 175 547 146 492 c 128,-1,27
 117 437 117 437 117 315 c 0,28,29
 117 180 117 180 153.5 111 c 128,-1,30
 190 42 190 42 244 42 c 0,31,32
 295 42 295 42 323.5 97 c 128,-1,33
 352 152 352 152 352 276 c 0,20,21
EndSplineSet
EndChar

StartChar: one
Encoding: 49 49 20
Width: 469
GlyphClass: 2
Flags: W
LayerCount: 2
Fore
SplineSet
83 0 m 1,0,-1
 83 26 l 1,1,2
 121 30 121 30 146.5 35.5 c 128,-1,3
 172 41 172 41 187 47 c 128,-1,4
 202 53 202 53 208.5 59 c 128,-1,5
 215 65 215 65 215 70 c 2,6,-1
 215 459 l 2,7,8
 215 479 215 479 213.5 489.5 c 128,-1,9
 212 500 212 500 206 507 c 0,10,11
 200 513 200 513 171 513 c 128,-1,12
 142 513 142 513 78 500 c 1,13,-1
 68 525 l 1,14,15
 88 531 88 531 116 541 c 128,-1,16
 144 551 144 551 173 563 c 128,-1,17
 202 575 202 575 228 587 c 128,-1,18
 254 599 254 599 270 608 c 1,19,-1
 288 591 l 1,20,-1
 288 70 l 2,21,22
 288 65 288 65 293.5 59.5 c 128,-1,23
 299 54 299 54 312.5 48 c 128,-1,24
 326 42 326 42 349.5 36 c 128,-1,25
 373 30 373 30 410 26 c 1,26,-1
 410 0 l 1,27,-1
 83 0 l 1,0,-1
EndSplineSet
EndChar

StartChar: two
Encoding: 50 50 21
Width: 469
GlyphClass: 2
Flags: W
LayerCount: 2
Fore
SplineSet
401 0 m 1,0,-1
 62 0 l 1,1,-1
 48 36 l 1,2,3
 135 137 135 137 189.5 204 c 128,-1,4
 244 271 244 271 274 316.5 c 128,-1,5
 304 362 304 362 315 392.5 c 128,-1,6
 326 423 326 423 326 451 c 0,7,8
 326 496 326 496 303.5 526.5 c 128,-1,9
 281 557 281 557 228 557 c 0,10,11
 208 557 208 557 191.5 547.5 c 128,-1,12
 175 538 175 538 163 523.5 c 128,-1,13
 151 509 151 509 144 491 c 128,-1,14
 137 473 137 473 137 456 c 1,15,16
 120 447 120 447 108.5 440.5 c 128,-1,17
 97 434 97 434 74 432 c 1,18,-1
 61 447 l 1,19,20
 61 472 61 472 78 499.5 c 128,-1,21
 95 527 95 527 123.5 550 c 128,-1,22
 152 573 152 573 187.5 588 c 128,-1,23
 223 603 223 603 261 603 c 0,24,25
 291 603 291 603 316.5 595 c 128,-1,26
 342 587 342 587 360.5 570 c 128,-1,27
 379 553 379 553 390 527 c 128,-1,28
 401 501 401 501 401 465 c 0,29,30
 401 432 401 432 387 397.5 c 128,-1,31
 373 363 373 363 340.5 317.5 c 128,-1,32
 308 272 308 272 256.5 209.5 c 128,-1,33
 205 147 205 147 130 59 c 1,34,-1
 334 59 l 2,35,36
 351 59 351 59 360.5 72 c 128,-1,37
 370 85 370 85 375 102 c 0,38,39
 381 121 381 121 384 146 c 1,40,-1
 408 140 l 1,41,-1
 401 0 l 1,0,-1
EndSplineSet
EndChar

StartChar: three
Encoding: 51 51 22
Width: 469
GlyphClass: 2
Flags: W
LayerCount: 2
Fore
SplineSet
403 186 m 0,0,1
 403 145 403 145 390 108.5 c 128,-1,2
 377 72 377 72 351 44.5 c 128,-1,3
 325 17 325 17 286.5 1 c 128,-1,4
 248 -15 248 -15 198 -15 c 0,5,6
 160 -15 160 -15 119 0.5 c 128,-1,7
 78 16 78 16 33 58 c 1,8,-1
 50 91 l 1,9,10
 72 74 72 74 90 63.5 c 128,-1,11
 108 53 108 53 124.5 46.5 c 128,-1,12
 141 40 141 40 157.5 37.5 c 128,-1,13
 174 35 174 35 192 35 c 0,14,15
 252 35 252 35 288.5 71 c 128,-1,16
 325 107 325 107 325 170 c 0,17,18
 325 207 325 207 313.5 232.5 c 128,-1,19
 302 258 302 258 284 274 c 128,-1,20
 266 290 266 290 244 297 c 128,-1,21
 222 304 222 304 200 304 c 0,22,23
 193 304 193 304 190 304 c 128,-1,24
 187 304 187 304 184.5 303.5 c 128,-1,25
 182 303 182 303 178 302.5 c 128,-1,26
 174 302 174 302 167 301 c 1,27,-1
 160 330 l 1,28,29
 205 342 205 342 232 358.5 c 128,-1,30
 259 375 259 375 273.5 392 c 128,-1,31
 288 409 288 409 292.5 426.5 c 128,-1,32
 297 444 297 444 297 459 c 0,33,34
 297 476 297 476 292 493.5 c 128,-1,35
 287 511 287 511 276 525 c 128,-1,36
 265 539 265 539 248 548 c 128,-1,37
 231 557 231 557 208 557 c 0,38,39
 169 557 169 557 147.5 532.5 c 128,-1,40
 126 508 126 508 132 475 c 1,41,42
 115 467 115 467 100 462.5 c 128,-1,43
 85 458 85 458 64 456 c 1,44,-1
 51 471 l 1,45,46
 51 492 51 492 66 515 c 128,-1,47
 81 538 81 538 106.5 557.5 c 128,-1,48
 132 577 132 577 165.5 590 c 128,-1,49
 199 603 199 603 236 603 c 0,50,51
 272 603 272 603 298.5 591 c 128,-1,52
 325 579 325 579 341.5 560 c 128,-1,53
 358 541 358 541 366 517 c 128,-1,54
 374 493 374 493 374 468 c 0,55,56
 374 431 374 431 346.5 396.5 c 128,-1,57
 319 362 319 362 271 341 c 1,58,59
 299 338 299 338 323 324.5 c 128,-1,60
 347 311 347 311 365 290 c 128,-1,61
 383 269 383 269 393 242.5 c 128,-1,62
 403 216 403 216 403 186 c 0,0,1
EndSplineSet
EndChar

StartChar: four
Encoding: 52 52 23
Width: 469
GlyphClass: 2
Flags: W
LayerCount: 2
Fore
SplineSet
427 210 m 1,0,1
 416 194 416 194 407.5 186.5 c 128,-1,2
 399 179 399 179 388 171 c 1,3,-1
 354 171 l 1,4,-1
 354 51 l 2,5,6
 354 43 354 43 367.5 36.5 c 128,-1,7
 381 30 381 30 422 21 c 1,8,-1
 422 0 l 1,9,-1
 183 0 l 1,10,-1
 183 21 l 1,11,12
 215 26 215 26 235 30.5 c 128,-1,13
 255 35 255 35 266.5 39.5 c 128,-1,14
 278 44 278 44 282 48 c 128,-1,15
 286 52 286 52 286 56 c 2,16,-1
 286 171 l 1,17,-1
 43 171 l 1,18,-1
 27 187 l 1,19,-1
 269 573 l 1,20,21
 289 582 289 582 305.5 591 c 128,-1,22
 322 600 322 600 336 608 c 1,23,-1
 354 591 l 1,24,-1
 354 225 l 1,25,-1
 414 225 l 1,26,-1
 427 210 l 1,0,1
286 508 m 1,27,-1
 104 225 l 1,28,-1
 286 225 l 1,29,-1
 286 508 l 1,27,-1
EndSplineSet
EndChar

StartChar: five
Encoding: 53 53 24
Width: 469
GlyphClass: 2
Flags: W
LayerCount: 2
Fore
SplineSet
408 200 m 0,0,1
 408 158 408 158 395 119 c 128,-1,2
 382 80 382 80 357.5 50 c 128,-1,3
 333 20 333 20 297 2.5 c 128,-1,4
 261 -15 261 -15 215 -15 c 0,5,6
 170 -15 170 -15 125 2 c 128,-1,7
 80 19 80 19 38 58 c 1,8,-1
 55 91 l 1,9,10
 107 55 107 55 141.5 45 c 128,-1,11
 176 35 176 35 204 35 c 0,12,13
 236 35 236 35 259.5 47 c 128,-1,14
 283 59 283 59 299 79 c 128,-1,15
 315 99 315 99 322.5 125 c 128,-1,16
 330 151 330 151 330 179 c 0,17,18
 330 246 330 246 298 286.5 c 128,-1,19
 266 327 266 327 197 327 c 0,20,21
 176 327 176 327 146 317.5 c 128,-1,22
 116 308 116 308 90 288 c 1,23,-1
 67 304 l 1,24,25
 71 331 71 331 77.5 369 c 128,-1,26
 84 407 84 407 90 447 c 128,-1,27
 96 487 96 487 100.5 524.5 c 128,-1,28
 105 562 105 562 107 588 c 1,29,-1
 320 588 l 2,30,31
 334 588 334 588 344.5 589 c 128,-1,32
 355 590 355 590 363 592 c 0,33,34
 372 594 372 594 379 597 c 1,35,-1
 393 583 l 1,36,37
 382 567 382 567 366 550 c 128,-1,38
 350 533 350 533 339 525 c 1,39,-1
 150 525 l 1,40,41
 149 511 149 511 146.5 488.5 c 128,-1,42
 144 466 144 466 141 443 c 128,-1,43
 138 420 138 420 134.5 399.5 c 128,-1,44
 131 379 131 379 129 368 c 1,45,46
 149 374 149 374 175 377.5 c 128,-1,47
 201 381 201 381 226 381 c 0,48,49
 270 381 270 381 304 366 c 128,-1,50
 338 351 338 351 361 326.5 c 128,-1,51
 384 302 384 302 396 269 c 128,-1,52
 408 236 408 236 408 200 c 0,0,1
EndSplineSet
EndChar

StartChar: six
Encoding: 54 54 25
Width: 469
GlyphClass: 2
Flags: W
LayerCount: 2
Fore
SplineSet
430 201 m 0,0,1
 430 167 430 167 418.5 129 c 128,-1,2
 407 91 407 91 383.5 59 c 128,-1,3
 360 27 360 27 326 6 c 128,-1,4
 292 -15 292 -15 247 -15 c 0,5,6
 207 -15 207 -15 172 3 c 128,-1,7
 137 21 137 21 110.5 53 c 128,-1,8
 84 85 84 85 69 130.5 c 128,-1,9
 54 176 54 176 54 231 c 0,10,11
 54 300 54 300 74 363 c 128,-1,12
 94 426 94 426 134.5 477 c 128,-1,13
 175 528 175 528 237.5 563 c 128,-1,14
 300 598 300 598 385 610 c 1,15,-1
 394 581 l 1,16,17
 327 566 327 566 278 533 c 128,-1,18
 229 500 229 500 196.5 456.5 c 128,-1,19
 164 413 164 413 148 362.5 c 128,-1,20
 132 312 132 312 132 262 c 0,21,22
 132 146 132 146 168.5 91.5 c 128,-1,23
 205 37 205 37 266 37 c 0,24,25
 292 37 292 37 309.5 49.5 c 128,-1,26
 327 62 327 62 337.5 81 c 128,-1,27
 348 100 348 100 352.5 123.5 c 128,-1,28
 357 147 357 147 357 170 c 0,29,30
 357 216 357 216 346 245.5 c 128,-1,31
 335 275 335 275 318.5 292 c 128,-1,32
 302 309 302 309 282 315.5 c 128,-1,33
 262 322 262 322 244 322 c 0,34,35
 215 322 215 322 180 303.5 c 128,-1,36
 145 285 145 285 116 240 c 1,37,-1
 110 287 l 1,38,39
 129 313 129 313 150.5 330 c 128,-1,40
 172 347 172 347 192.5 357.5 c 128,-1,41
 213 368 213 368 231.5 372 c 128,-1,42
 250 376 250 376 264 376 c 0,43,44
 343 376 343 376 386.5 329 c 128,-1,45
 430 282 430 282 430 201 c 0,0,1
EndSplineSet
EndChar

StartChar: seven
Encoding: 55 55 26
Width: 469
GlyphClass: 2
Flags: W
LayerCount: 2
Fore
SplineSet
432 570 m 1,0,1
 398 491 398 491 364 410 c 128,-1,2
 330 329 330 329 300.5 255.5 c 128,-1,3
 271 182 271 182 247.5 121 c 128,-1,4
 224 60 224 60 211 21 c 1,5,6
 178 -2 178 -2 132 -15 c 1,7,-1
 112 1 l 1,8,9
 154 76 154 76 188 144 c 128,-1,10
 222 212 222 212 250.5 276 c 128,-1,11
 279 340 279 340 305 401.5 c 128,-1,12
 331 463 331 463 358 525 c 1,13,-1
 136 525 l 2,14,15
 129 525 129 525 122 524.5 c 128,-1,16
 115 524 115 524 107.5 518 c 128,-1,17
 100 512 100 512 91.5 497 c 128,-1,18
 83 482 83 482 73 454 c 1,19,-1
 51 463 l 1,20,21
 52 474 52 474 54.5 491 c 128,-1,22
 57 508 57 508 60 526 c 128,-1,23
 63 544 63 544 66 560.5 c 128,-1,24
 69 577 69 577 72 588 c 1,25,-1
 416 588 l 1,26,-1
 432 570 l 1,27,-1
 432 570 l 1,0,1
EndSplineSet
EndChar

StartChar: eight
Encoding: 56 56 27
Width: 469
GlyphClass: 2
Flags: W
LayerCount: 2
Fore
SplineSet
422 172 m 0,0,1
 422 134 422 134 406 100 c 128,-1,2
 390 66 390 66 362.5 40.5 c 128,-1,3
 335 15 335 15 298.5 0 c 128,-1,4
 262 -15 262 -15 220 -15 c 256,5,6
 178 -15 178 -15 146 -2 c 128,-1,7
 114 11 114 11 91.5 32 c 128,-1,8
 69 53 69 53 57.5 81 c 128,-1,9
 46 109 46 109 46 139 c 0,10,11
 46 194 46 194 82.5 239.5 c 128,-1,12
 119 285 119 285 180 318 c 1,13,-1
 215 300 l 1,14,15
 167 265 167 265 145.5 232 c 128,-1,16
 124 199 124 199 124 154 c 0,17,18
 124 103 124 103 156 68.5 c 128,-1,19
 188 34 188 34 244 34 c 0,20,21
 271 34 271 34 290 44.5 c 128,-1,22
 309 55 309 55 321.5 71.5 c 128,-1,23
 334 88 334 88 339.5 109 c 128,-1,24
 345 130 345 130 345 151 c 0,25,26
 345 195 345 195 324.5 222 c 128,-1,27
 304 249 304 249 274 267.5 c 128,-1,28
 244 286 244 286 208 300 c 128,-1,29
 172 314 172 314 142 332 c 128,-1,30
 112 350 112 350 91.5 376.5 c 128,-1,31
 71 403 71 403 71 447 c 0,32,33
 71 481 71 481 84.5 509.5 c 128,-1,34
 98 538 98 538 121.5 559 c 128,-1,35
 145 580 145 580 176.5 591.5 c 128,-1,36
 208 603 208 603 245 603 c 0,37,38
 319 603 319 603 358.5 566.5 c 128,-1,39
 398 530 398 530 398 473 c 0,40,41
 398 451 398 451 389.5 431 c 128,-1,42
 381 411 381 411 365.5 393 c 128,-1,43
 350 375 350 375 329 358 c 128,-1,44
 308 341 308 341 283 325 c 1,45,-1
 249 346 l 1,46,47
 291 374 291 374 308.5 402 c 128,-1,48
 326 430 326 430 326 458 c 0,49,50
 326 509 326 509 297 533 c 128,-1,51
 268 557 268 557 220 557 c 0,52,53
 198 557 198 557 182 548.5 c 128,-1,54
 166 540 166 540 155.5 527 c 128,-1,55
 145 514 145 514 139.5 497 c 128,-1,56
 134 480 134 480 134 464 c 0,57,58
 134 433 134 433 155.5 413 c 128,-1,59
 177 393 177 393 209 377 c 128,-1,60
 241 361 241 361 278 345.5 c 128,-1,61
 315 330 315 330 347 308 c 128,-1,62
 379 286 379 286 400.5 254 c 128,-1,63
 422 222 422 222 422 172 c 0,0,1
EndSplineSet
EndChar

StartChar: nine
Encoding: 57 57 28
Width: 469
GlyphClass: 2
Flags: W
LayerCount: 2
Fore
SplineSet
425 357 m 0,0,1
 425 283 425 283 405 219 c 128,-1,2
 385 155 385 155 344 106 c 128,-1,3
 303 57 303 57 240.5 24 c 128,-1,4
 178 -9 178 -9 93 -21 c 1,5,-1
 84 8 l 1,6,7
 156 26 156 26 206 56.5 c 128,-1,8
 256 87 256 87 287 128 c 128,-1,9
 318 169 318 169 332 219 c 128,-1,10
 346 269 346 269 346 327 c 0,11,12
 346 392 346 392 335 435 c 128,-1,13
 324 478 324 478 306.5 504 c 128,-1,14
 289 530 289 530 268 541 c 128,-1,15
 247 552 247 552 227 552 c 0,16,17
 176 552 176 552 148.5 514 c 128,-1,18
 121 476 121 476 121 418 c 0,19,20
 121 373 121 373 132 344.5 c 128,-1,21
 143 316 143 316 160 299.5 c 128,-1,22
 177 283 177 283 197 277 c 128,-1,23
 217 271 217 271 235 271 c 0,24,25
 277 271 277 271 310.5 298.5 c 128,-1,26
 344 326 344 326 363 368 c 1,27,-1
 369 317 l 1,28,29
 357 295 357 295 339.5 277 c 128,-1,30
 322 259 322 259 301 245.5 c 128,-1,31
 280 232 280 232 257.5 224.5 c 128,-1,32
 235 217 235 217 214 217 c 0,33,34
 175 217 175 217 144.5 230 c 128,-1,35
 114 243 114 243 92.5 266 c 128,-1,36
 71 289 71 289 60 320.5 c 128,-1,37
 49 352 49 352 49 388 c 0,38,39
 49 425 49 425 64 463.5 c 128,-1,40
 79 502 79 502 105 533 c 128,-1,41
 131 564 131 564 167.5 583.5 c 128,-1,42
 204 603 204 603 247 603 c 0,43,44
 281 603 281 603 313 589 c 128,-1,45
 345 575 345 575 370 545 c 128,-1,46
 395 515 395 515 410 468.5 c 128,-1,47
 425 422 425 422 425 357 c 0,0,1
EndSplineSet
EndChar

StartChar: colon
Encoding: 58 58 29
Width: 229
GlyphClass: 2
Flags: W
LayerCount: 2
Fore
SplineSet
180 60 m 0,0,1
 180 26 180 26 161 3 c 128,-1,2
 142 -20 142 -20 113 -20 c 0,3,4
 87 -20 87 -20 75.5 -5.5 c 128,-1,5
 64 9 64 9 64 35 c 0,6,7
 64 68 64 68 84 91.5 c 128,-1,8
 104 115 104 115 132 115 c 0,9,10
 180 115 180 115 180 60 c 0,0,1
180 414 m 0,11,12
 180 380 180 380 161 357 c 128,-1,13
 142 334 142 334 113 334 c 0,14,15
 87 334 87 334 75.5 348.5 c 128,-1,16
 64 363 64 363 64 389 c 0,17,18
 64 422 64 422 84 445.5 c 128,-1,19
 104 469 104 469 132 469 c 0,20,21
 180 469 180 469 180 414 c 0,11,12
EndSplineSet
EndChar

StartChar: semicolon
Encoding: 59 59 30
Width: 229
GlyphClass: 2
Flags: W
LayerCount: 2
Fore
SplineSet
191 34 m 0,0,1
 191 15 191 15 183.5 -9 c 128,-1,2
 176 -33 176 -33 161.5 -57.5 c 128,-1,3
 147 -82 147 -82 126.5 -106 c 128,-1,4
 106 -130 106 -130 81 -149 c 1,5,-1
 59 -132 l 1,6,7
 86 -100 86 -100 97.5 -71 c 128,-1,8
 109 -42 109 -42 109 0 c 0,9,10
 109 22 109 22 96 34.5 c 128,-1,11
 83 47 83 47 51 45 c 1,12,-1
 43 68 l 1,13,14
 47 74 47 74 61 81.5 c 128,-1,15
 75 89 75 89 92.5 96 c 128,-1,16
 110 103 110 103 126 107.5 c 128,-1,17
 142 112 142 112 151 112 c 1,18,19
 174 101 174 101 182.5 81.5 c 128,-1,20
 191 62 191 62 191 34 c 0,0,1
180 414 m 0,21,22
 180 380 180 380 161 357 c 128,-1,23
 142 334 142 334 113 334 c 0,24,25
 87 334 87 334 75.5 348.5 c 128,-1,26
 64 363 64 363 64 389 c 0,27,28
 64 422 64 422 84 445.5 c 128,-1,29
 104 469 104 469 132 469 c 0,30,31
 180 469 180 469 180 414 c 0,21,22
EndSplineSet
EndChar

StartChar: less
Encoding: 60 60 31
Width: 439
GlyphClass: 2
Flags: W
LayerCount: 2
Fore
SplineSet
409 427 m 1,0,1
 407 416 407 416 402.5 401.5 c 128,-1,2
 398 387 398 387 395 378 c 1,3,-1
 42 247 l 1,4,-1
 30 259 l 1,5,6
 32 269 32 269 36 283 c 128,-1,7
 40 297 40 297 45 307 c 1,8,-1
 397 439 l 1,9,-1
 409 427 l 1,0,1
409 157 m 1,10,11
 398 147 398 147 390.5 140.5 c 128,-1,12
 383 134 383 134 368 125 c 1,13,-1
 42 247 l 1,14,-1
 30 259 l 1,15,16
 32 269 32 269 36 283 c 128,-1,17
 40 297 40 297 45 307 c 1,18,-1
 401 175 l 1,19,-1
 409 157 l 1,10,11
EndSplineSet
EndChar

StartChar: equal
Encoding: 61 61 32
Width: 439
GlyphClass: 2
Flags: W
LayerCount: 2
Fore
SplineSet
409 363 m 1,0,1
 407 353 407 353 402.5 340.5 c 128,-1,2
 398 328 398 328 395 320 c 1,3,-1
 42 320 l 1,4,-1
 30 332 l 1,5,6
 32 342 32 342 36 354 c 128,-1,7
 40 366 40 366 45 375 c 1,8,-1
 397 375 l 1,9,-1
 409 363 l 1,0,1
409 217 m 1,10,11
 407 206 407 206 402.5 194 c 128,-1,12
 398 182 398 182 395 173 c 1,13,-1
 42 173 l 1,14,-1
 30 186 l 1,15,16
 35 207 35 207 45 229 c 1,17,-1
 397 229 l 1,18,-1
 409 217 l 1,10,11
EndSplineSet
EndChar

StartChar: greater
Encoding: 62 62 33
Width: 439
GlyphClass: 2
Flags: W
LayerCount: 2
Fore
SplineSet
409 305 m 1,0,1
 407 294 407 294 403 280 c 128,-1,2
 399 266 399 266 394 256 c 1,3,-1
 38 388 l 1,4,-1
 30 407 l 1,5,6
 41 416 41 416 51.5 423.5 c 128,-1,7
 62 431 62 431 71 439 c 1,8,-1
 398 317 l 1,9,-1
 409 305 l 1,0,1
409 305 m 1,10,11
 407 294 407 294 403 280 c 128,-1,12
 399 266 399 266 394 256 c 1,13,-1
 42 125 l 1,14,-1
 30 137 l 1,15,16
 33 147 33 147 37 162 c 128,-1,17
 41 177 41 177 45 185 c 1,18,-1
 398 317 l 1,19,-1
 409 305 l 1,10,11
EndSplineSet
EndChar

StartChar: question
Encoding: 63 63 34
Width: 433
GlyphClass: 2
Flags: W
LayerCount: 2
Fore
SplineSet
394 499 m 0,0,1
 394 462 394 462 382.5 438 c 128,-1,2
 371 414 371 414 353.5 396.5 c 128,-1,3
 336 379 336 379 315.5 364.5 c 128,-1,4
 295 350 295 350 276.5 333.5 c 128,-1,5
 258 317 258 317 244.5 294 c 128,-1,6
 231 271 231 271 229 237 c 2,7,-1
 226 190 l 1,8,9
 217 183 217 183 214.5 178.5 c 128,-1,10
 212 174 212 174 199 170 c 1,11,-1
 187 180 l 1,12,-1
 183 237 l 2,13,14
 182 265 182 265 191 287 c 128,-1,15
 200 309 200 309 214 328 c 128,-1,16
 228 347 228 347 245.5 364 c 128,-1,17
 263 381 263 381 278 398.5 c 128,-1,18
 293 416 293 416 303 435 c 128,-1,19
 313 454 313 454 313 477 c 0,20,21
 313 537 313 537 285.5 571.5 c 128,-1,22
 258 606 258 606 207 606 c 0,23,24
 189 606 189 606 173 598 c 128,-1,25
 157 590 157 590 145 576.5 c 128,-1,26
 133 563 133 563 126 545.5 c 128,-1,27
 119 528 119 528 119 509 c 0,28,29
 119 502 119 502 121 495 c 128,-1,30
 123 488 123 488 125 481 c 1,31,32
 109 473 109 473 92 468.5 c 128,-1,33
 75 464 75 464 53 462 c 1,34,-1
 40 477 l 1,35,36
 39 481 39 481 39 485 c 128,-1,37
 39 489 39 489 39 493 c 0,38,39
 39 527 39 527 56 556.5 c 128,-1,40
 73 586 73 586 101.5 607.5 c 128,-1,41
 130 629 130 629 167 641 c 128,-1,42
 204 653 204 653 245 653 c 0,43,44
 317 653 317 653 355.5 610.5 c 128,-1,45
 394 568 394 568 394 499 c 0,0,1
263 60 m 0,46,47
 263 26 263 26 244 3 c 128,-1,48
 225 -20 225 -20 196 -20 c 0,49,50
 170 -20 170 -20 158.5 -5.5 c 128,-1,51
 147 9 147 9 147 35 c 0,52,53
 147 68 147 68 167 91.5 c 128,-1,54
 187 115 187 115 215 115 c 0,55,56
 263 115 263 115 263 60 c 0,46,47
EndSplineSet
EndChar

StartChar: at
Encoding: 64 64 35
Width: 807
GlyphClass: 2
Flags: W
LayerCount: 2
Fore
SplineSet
773 268 m 0,0,1
 773 205 773 205 752 152.5 c 128,-1,2
 731 100 731 100 700 63 c 128,-1,3
 669 26 669 26 632.5 5.5 c 128,-1,4
 596 -15 596 -15 565 -15 c 0,5,6
 541 -15 541 -15 523 6.5 c 128,-1,7
 505 28 505 28 498 79 c 1,8,9
 478 51 478 51 462.5 33 c 128,-1,10
 447 15 447 15 432.5 4.5 c 128,-1,11
 418 -6 418 -6 402.5 -10.5 c 128,-1,12
 387 -15 387 -15 368 -15 c 0,13,14
 343 -15 343 -15 317.5 1 c 128,-1,15
 292 17 292 17 271 47 c 128,-1,16
 250 77 250 77 237 120 c 128,-1,17
 224 163 224 163 224 217 c 0,18,19
 224 259 224 259 239 303.5 c 128,-1,20
 254 348 254 348 281.5 385 c 128,-1,21
 309 422 309 422 347.5 445.5 c 128,-1,22
 386 469 386 469 434 469 c 0,23,24
 445 469 445 469 454.5 467.5 c 128,-1,25
 464 466 464 466 473 461 c 128,-1,26
 482 456 482 456 492 447 c 128,-1,27
 502 438 502 438 515 424 c 1,28,29
 542 440 542 440 568 469 c 1,30,-1
 583 454 l 1,31,32
 579 440 579 440 575 424 c 0,33,34
 572 410 572 410 570 391.5 c 128,-1,35
 568 373 568 373 568 353 c 2,36,-1
 568 139 l 2,37,38
 568 95 568 95 583 74 c 128,-1,39
 598 53 598 53 621 53 c 0,40,41
 633 53 633 53 649.5 68.5 c 128,-1,42
 666 84 666 84 680.5 110.5 c 128,-1,43
 695 137 695 137 705 173 c 128,-1,44
 715 209 715 209 715 250 c 0,45,46
 715 332 715 332 694 396 c 128,-1,47
 673 460 673 460 635.5 503.5 c 128,-1,48
 598 547 598 547 546 570 c 128,-1,49
 494 593 494 593 432 593 c 0,50,51
 357 593 357 593 297 565 c 128,-1,52
 237 537 237 537 195 490.5 c 128,-1,53
 153 444 153 444 130 383 c 128,-1,54
 107 322 107 322 107 256 c 0,55,56
 107 167 107 167 134.5 96.5 c 128,-1,57
 162 26 162 26 208 -23 c 128,-1,58
 254 -72 254 -72 314.5 -98.5 c 128,-1,59
 375 -125 375 -125 441 -125 c 0,60,61
 482 -125 482 -125 521.5 -116.5 c 128,-1,62
 561 -108 561 -108 594.5 -95 c 128,-1,63
 628 -82 628 -82 654 -67 c 128,-1,64
 680 -52 680 -52 695 -40 c 1,65,-1
 708 -67 l 1,66,67
 690 -85 690 -85 662 -105.5 c 128,-1,68
 634 -126 634 -126 597 -143.5 c 128,-1,69
 560 -161 560 -161 514.5 -172 c 128,-1,70
 469 -183 469 -183 417 -183 c 0,71,72
 333 -183 333 -183 262.5 -154 c 128,-1,73
 192 -125 192 -125 141.5 -71.5 c 128,-1,74
 91 -18 91 -18 62.5 57.5 c 128,-1,75
 34 133 34 133 34 227 c 0,76,77
 34 310 34 310 67 386.5 c 128,-1,78
 100 463 100 463 156.5 522 c 128,-1,79
 213 581 213 581 289 616 c 128,-1,80
 365 651 365 651 451 651 c 0,81,82
 524 651 524 651 583.5 626.5 c 128,-1,83
 643 602 643 602 685 553.5 c 128,-1,84
 727 505 727 505 750 433.5 c 128,-1,85
 773 362 773 362 773 268 c 0,0,1
495 357 m 1,86,87
 481 384 481 384 464.5 400 c 128,-1,88
 448 416 448 416 419 416 c 0,89,90
 365 416 365 416 331.5 370 c 128,-1,91
 298 324 298 324 298 232 c 0,92,93
 298 190 298 190 308 156.5 c 128,-1,94
 318 123 318 123 333.5 99.5 c 128,-1,95
 349 76 349 76 367.5 63 c 128,-1,96
 386 50 386 50 403 50 c 0,97,98
 412 50 412 50 421 53 c 128,-1,99
 430 56 430 56 440 64 c 128,-1,100
 450 72 450 72 463.5 86 c 128,-1,101
 477 100 477 100 495 122 c 1,102,-1
 495 357 l 1,86,87
EndSplineSet
EndChar

StartChar: bracketleft
Encoding: 91 91 36
Width: 308
GlyphClass: 2
Flags: W
LayerCount: 2
Fore
SplineSet
288 -122 m 1,0,1
 286 -131 286 -131 282 -143 c 128,-1,2
 278 -155 278 -155 274 -164 c 1,3,-1
 68 -164 l 1,4,-1
 68 781 l 1,5,-1
 271 781 l 1,6,-1
 287 769 l 1,7,8
 285 756 285 756 281 744 c 128,-1,9
 277 732 277 732 274 727 c 1,10,-1
 137 727 l 1,11,-1
 137 -107 l 1,12,-1
 271 -107 l 1,13,-1
 288 -122 l 1,14,-1
 288 -122 l 1,0,1
EndSplineSet
EndChar

StartChar: backslash
Encoding: 92 92 37
Width: 469
GlyphClass: 2
Flags: W
LayerCount: 2
Fore
SplineSet
425 -164 m 1,0,1
 413 -160 413 -160 395.5 -152.5 c 128,-1,2
 378 -145 378 -145 369 -139 c 1,3,-1
 27 771 l 1,4,-1
 45 781 l 1,5,6
 59 777 59 777 72.5 771.5 c 128,-1,7
 86 766 86 766 100 757 c 1,8,-1
 442 -151 l 1,9,-1
 425 -164 l 1,0,1
EndSplineSet
EndChar

StartChar: bracketright
Encoding: 93 93 38
Width: 308
GlyphClass: 2
Flags: W
LayerCount: 2
Fore
SplineSet
37 -164 m 1,0,-1
 21 -149 l 1,1,2
 23 -138 23 -138 26.5 -126 c 128,-1,3
 30 -114 30 -114 33 -107 c 1,4,-1
 171 -107 l 1,5,-1
 171 727 l 1,6,-1
 37 727 l 1,7,-1
 20 739 l 1,8,9
 22 750 22 750 26 761.5 c 128,-1,10
 30 773 30 773 33 781 c 1,11,-1
 239 781 l 1,12,-1
 239 -164 l 1,13,-1
 37 -164 l 1,0,-1
EndSplineSet
EndChar

StartChar: asciicircum
Encoding: 94 94 39
Width: 492
GlyphClass: 2
Flags: W
LayerCount: 2
Fore
SplineSet
443 310 m 1,0,1
 431 299 431 299 419.5 291.5 c 128,-1,2
 408 284 408 284 391 276 c 1,3,-1
 373 289 l 1,4,-1
 235 642 l 1,5,-1
 113 310 l 1,6,7
 102 300 102 300 86 290.5 c 128,-1,8
 70 281 70 281 60 276 c 1,9,-1
 49 289 l 1,10,-1
 206 714 l 1,11,12
 218 725 218 725 237.5 737.5 c 128,-1,13
 257 750 257 750 271 757 c 1,14,-1
 443 310 l 1,15,-1
 443 310 l 1,0,1
EndSplineSet
EndChar

StartChar: underscore
Encoding: 95 95 40
Width: 469
GlyphClass: 2
Flags: W
LayerCount: 2
Fore
SplineSet
438 -76 m 1,0,1
 436 -87 436 -87 432 -99 c 128,-1,2
 428 -111 428 -111 424 -120 c 1,3,-1
 42 -120 l 1,4,-1
 30 -107 l 1,5,6
 35 -86 35 -86 45 -64 c 1,7,-1
 427 -64 l 1,8,-1
 438 -76 l 1,9,-1
 438 -76 l 1,0,1
EndSplineSet
EndChar

StartChar: grave
Encoding: 96 96 41
Width: 319
GlyphClass: 2
Flags: W
LayerCount: 2
Fore
SplineSet
214 526 m 1,0,1
 203 517 203 517 187 511 c 1,2,-1
 15 695 l 1,3,-1
 25 715 l 1,4,5
 30 716 30 716 39.5 718 c 128,-1,6
 49 720 49 720 60 722 c 128,-1,7
 71 724 71 724 81 725.5 c 128,-1,8
 91 727 91 727 97 727 c 1,9,-1
 214 526 l 1,10,-1
 214 526 l 1,0,1
EndSplineSet
EndChar

StartChar: braceleft
Encoding: 123 123 42
Width: 336
GlyphClass: 2
Flags: W
LayerCount: 2
Fore
SplineSet
317 758 m 1,0,1
 279 735 279 735 253 698.5 c 128,-1,2
 227 662 227 662 227 611 c 0,3,4
 227 583 227 583 230 565 c 128,-1,5
 233 547 233 547 237 531 c 128,-1,6
 241 515 241 515 244 497 c 128,-1,7
 247 479 247 479 247 451 c 0,8,9
 247 409 247 409 224 373 c 128,-1,10
 201 337 201 337 159 319 c 1,11,12
 208 310 208 310 227.5 276 c 128,-1,13
 247 242 247 242 247 188 c 0,14,15
 247 159 247 159 244 138.5 c 128,-1,16
 241 118 241 118 237 100 c 128,-1,17
 233 82 233 82 230 63.5 c 128,-1,18
 227 45 227 45 227 21 c 0,19,20
 227 -6 227 -6 230.5 -26.5 c 128,-1,21
 234 -47 234 -47 243.5 -64 c 128,-1,22
 253 -81 253 -81 269.5 -95.5 c 128,-1,23
 286 -110 286 -110 312 -124 c 1,24,-1
 301 -154 l 1,25,26
 260 -138 260 -138 230.5 -119.5 c 128,-1,27
 201 -101 201 -101 182.5 -78.5 c 128,-1,28
 164 -56 164 -56 155 -28 c 128,-1,29
 146 0 146 0 146 35 c 0,30,31
 146 64 146 64 149 83 c 128,-1,32
 152 102 152 102 156 119 c 128,-1,33
 160 136 160 136 163 156 c 128,-1,34
 166 176 166 176 166 206 c 0,35,36
 166 246 166 246 146 266 c 128,-1,37
 126 286 126 286 90 286 c 0,38,39
 83 286 83 286 80 286 c 128,-1,40
 77 286 77 286 74.5 285.5 c 128,-1,41
 72 285 72 285 68.5 284.5 c 128,-1,42
 65 284 65 284 58 283 c 1,43,-1
 50 309 l 1,44,45
 107 324 107 324 136.5 354.5 c 128,-1,46
 166 385 166 385 166 421 c 0,47,48
 166 451 166 451 163 468.5 c 128,-1,49
 160 486 160 486 156 501.5 c 128,-1,50
 152 517 152 517 149 535 c 128,-1,51
 146 553 146 553 146 583 c 0,52,53
 146 649 146 649 188.5 698.5 c 128,-1,54
 231 748 231 748 304 781 c 1,55,-1
 317 758 l 1,56,-1
 317 758 l 1,0,1
EndSplineSet
EndChar

StartChar: bar
Encoding: 124 124 43
Width: 229
GlyphClass: 2
Flags: W
LayerCount: 2
Fore
SplineSet
156 -172 m 1,0,1
 148 -180 148 -180 132.5 -186.5 c 128,-1,2
 117 -193 117 -193 105 -198 c 1,3,-1
 88 -187 l 1,4,-1
 88 792 l 1,5,6
 102 800 102 800 113.5 806 c 128,-1,7
 125 812 125 812 139 815 c 1,8,-1
 156 805 l 1,9,-1
 156 -172 l 1,10,-1
 156 -172 l 1,0,1
EndSplineSet
EndChar

StartChar: braceright
Encoding: 125 125 44
Width: 336
GlyphClass: 2
Flags: W
LayerCount: 2
Fore
SplineSet
287 318 m 1,0,1
 229 303 229 303 200 273.5 c 128,-1,2
 171 244 171 244 171 206 c 0,3,4
 171 176 171 176 174 158.5 c 128,-1,5
 177 141 177 141 180.5 126 c 128,-1,6
 184 111 184 111 187 93 c 128,-1,7
 190 75 190 75 190 45 c 0,8,9
 190 -21 190 -21 147.5 -71 c 128,-1,10
 105 -121 105 -121 32 -154 c 1,11,-1
 19 -130 l 1,12,13
 57 -106 57 -106 83 -70 c 128,-1,14
 109 -34 109 -34 109 17 c 0,15,16
 109 45 109 45 106 63 c 128,-1,17
 103 81 103 81 99.5 97 c 128,-1,18
 96 113 96 113 93 131 c 128,-1,19
 90 149 90 149 90 178 c 0,20,21
 90 219 90 219 113 254.5 c 128,-1,22
 136 290 136 290 178 308 c 1,23,24
 128 318 128 318 109 352 c 128,-1,25
 90 386 90 386 90 440 c 0,26,27
 90 469 90 469 93 489.5 c 128,-1,28
 96 510 96 510 99.5 528 c 128,-1,29
 103 546 103 546 106 564 c 128,-1,30
 109 582 109 582 109 606 c 0,31,32
 109 634 109 634 105.5 655 c 128,-1,33
 102 676 102 676 92 692.5 c 128,-1,34
 82 709 82 709 65.5 723 c 128,-1,35
 49 737 49 737 24 751 c 1,36,-1
 35 781 l 1,37,38
 117 749 117 749 153.5 706 c 128,-1,39
 190 663 190 663 190 593 c 0,40,41
 190 564 190 564 187 545 c 128,-1,42
 184 526 184 526 180.5 509 c 128,-1,43
 177 492 177 492 174 472 c 128,-1,44
 171 452 171 452 171 422 c 0,45,46
 171 342 171 342 247 342 c 0,47,48
 253 342 253 342 256 342 c 128,-1,49
 259 342 259 342 261.5 342 c 128,-1,50
 264 342 264 342 267.5 342.5 c 128,-1,51
 271 343 271 343 279 345 c 1,52,-1
 287 318 l 1,53,-1
 287 318 l 1,0,1
EndSplineSet
EndChar

StartChar: asciitilde
Encoding: 126 126 45
Width: 488
GlyphClass: 2
Flags: W
LayerCount: 2
Fore
SplineSet
464 378 m 1,0,1
 454 354 454 354 438.5 328.5 c 128,-1,2
 423 303 423 303 403.5 281.5 c 128,-1,3
 384 260 384 260 361.5 246.5 c 128,-1,4
 339 233 339 233 316 233 c 0,5,6
 295 233 295 233 272 245 c 128,-1,7
 249 257 249 257 225.5 272 c 128,-1,8
 202 287 202 287 179 299 c 128,-1,9
 156 311 156 311 135 311 c 0,10,11
 89 311 89 311 50 232 c 1,12,-1
 24 245 l 1,13,14
 34 269 34 269 50 294.5 c 128,-1,15
 66 320 66 320 85.5 341.5 c 128,-1,16
 105 363 105 363 127 376.5 c 128,-1,17
 149 390 149 390 172 390 c 0,18,19
 194 390 194 390 218 378 c 128,-1,20
 242 366 242 366 265 351 c 128,-1,21
 288 336 288 336 310 324 c 128,-1,22
 332 312 332 312 352 312 c 0,23,24
 398 312 398 312 438 390 c 1,25,-1
 464 378 l 1,26,-1
 464 378 l 1,0,1
EndSplineSet
EndChar

StartChar: cent
Encoding: 162 162 46
Width: 469
GlyphClass: 2
Flags: W
LayerCount: 2
Fore
SplineSet
276 -4 m 1,0,1
 267 -12 267 -12 261.5 -14 c 128,-1,2
 256 -16 256 -16 244 -20 c 1,3,-1
 232 -8 l 1,4,-1
 232 593 l 1,5,6
 239 597 239 597 241.5 599 c 128,-1,7
 244 601 244 601 246.5 602.5 c 128,-1,8
 249 604 249 604 252 605 c 128,-1,9
 255 606 255 606 263 608 c 1,10,-1
 276 597 l 1,11,-1
 276 -4 l 1,0,1
422 171 m 1,12,13
 390 133 390 133 366 111.5 c 128,-1,14
 342 90 342 90 321.5 79.5 c 128,-1,15
 301 69 301 69 281.5 66 c 128,-1,16
 262 63 262 63 239 63 c 0,17,18
 204 63 204 63 170 77.5 c 128,-1,19
 136 92 136 92 109.5 120 c 128,-1,20
 83 148 83 148 67 190 c 128,-1,21
 51 232 51 232 51 286 c 0,22,23
 51 338 51 338 70 382 c 128,-1,24
 89 426 89 426 123 458.5 c 128,-1,25
 157 491 157 491 202 509 c 128,-1,26
 247 527 247 527 300 527 c 0,27,28
 316 527 316 527 333 524.5 c 128,-1,29
 350 522 350 522 365.5 516.5 c 128,-1,30
 381 511 381 511 394 504 c 128,-1,31
 407 497 407 497 415 488 c 1,32,33
 416 482 416 482 413.5 471.5 c 128,-1,34
 411 461 411 461 406.5 449 c 128,-1,35
 402 437 402 437 396.5 426 c 128,-1,36
 391 415 391 415 387 409 c 1,37,-1
 370 414 l 1,38,39
 365 423 365 423 356.5 433.5 c 128,-1,40
 348 444 348 444 334 453 c 128,-1,41
 320 462 320 462 300.5 468 c 128,-1,42
 281 474 281 474 256 474 c 0,43,44
 230 474 230 474 206.5 464 c 128,-1,45
 183 454 183 454 165 433 c 128,-1,46
 147 412 147 412 136 379 c 128,-1,47
 125 346 125 346 125 301 c 0,48,49
 125 259 125 259 137.5 226.5 c 128,-1,50
 150 194 150 194 170.5 172.5 c 128,-1,51
 191 151 191 151 218 139.5 c 128,-1,52
 245 128 245 128 274 128 c 0,53,54
 288 128 288 128 300 129 c 128,-1,55
 312 130 312 130 326 136 c 128,-1,56
 340 142 340 142 358 155 c 128,-1,57
 376 168 376 168 403 191 c 1,58,-1
 422 171 l 1,12,13
EndSplineSet
EndChar

StartChar: multiply
Encoding: 215 215 47
Width: 410
GlyphClass: 2
Flags: W
LayerCount: 2
Fore
SplineSet
364 137 m 1,0,1
 354 132 354 132 341 128 c 128,-1,2
 328 124 328 124 319 122 c 1,3,-1
 46 395 l 1,4,-1
 46 411 l 1,5,6
 68 421 68 421 91 426 c 1,7,-1
 364 153 l 1,8,-1
 364 137 l 1,0,1
45 153 m 1,9,-1
 318 426 l 1,10,11
 342 421 342 421 364 411 c 1,12,-1
 364 395 l 1,13,-1
 91 122 l 1,14,15
 82 124 82 124 69 128 c 128,-1,16
 56 132 56 132 45 137 c 1,17,-1
 45 153 l 1,9,-1
EndSplineSet
EndChar

StartChar: divide
Encoding: 247 247 48
Width: 410
GlyphClass: 2
Flags: W
LayerCount: 2
Fore
SplineSet
380 290 m 1,0,1
 378 280 378 280 373.5 267.5 c 128,-1,2
 369 255 369 255 365 247 c 1,3,-1
 42 247 l 1,4,-1
 30 259 l 1,5,6
 35 280 35 280 45 302 c 1,7,-1
 368 302 l 1,8,-1
 380 290 l 1,0,1
244 400 m 0,9,10
 244 379 244 379 231 363 c 128,-1,11
 218 347 218 347 199 347 c 0,12,13
 166 347 166 347 166 385 c 0,14,15
 166 407 166 407 179 422 c 128,-1,16
 192 437 192 437 211 437 c 0,17,18
 244 437 244 437 244 400 c 0,9,10
244 166 m 0,19,20
 244 144 244 144 231 128.5 c 128,-1,21
 218 113 218 113 199 113 c 0,22,23
 166 113 166 113 166 150 c 0,24,25
 166 173 166 173 179 188 c 128,-1,26
 192 203 192 203 211 203 c 0,27,28
 244 203 244 203 244 166 c 0,19,20
EndSplineSet
EndChar

StartChar: u0981
Encoding: 2433 2433 49
Width: 0
GlyphClass: 2
Flags: W
LayerCount: 2
Fore
SplineSet
-28 866 m 0,0,1
 -28 817 -28 817 -62 777 c 0,2,3
 -95 738 -95 738 -145 738 c 0,4,5
 -193 738 -193 738 -232 782.5 c 128,-1,6
 -271 827 -271 827 -302 908 c 1,7,-1
 -272 906 l 1,8,9
 -220 799 -220 799 -145 799 c 0,10,11
 -115 799 -115 799 -90.5 824.5 c 128,-1,12
 -66 850 -66 850 -49 898 c 1,13,14
 -28 896 -28 896 -28 866 c 0,0,1
-187 884 m 0,15,16
 -187 899 -187 899 -175 911 c 128,-1,17
 -163 923 -163 923 -147 923 c 256,18,19
 -131 923 -131 923 -119.5 911 c 128,-1,20
 -108 899 -108 899 -108 884 c 0,21,22
 -108 868 -108 868 -119.5 856 c 128,-1,23
 -131 844 -131 844 -147 844 c 256,24,25
 -163 844 -163 844 -175 856 c 128,-1,26
 -187 868 -187 868 -187 884 c 0,15,16
EndSplineSet
EndChar

StartChar: u0982
Encoding: 2434 2434 50
Width: 348
GlyphClass: 2
Flags: W
LayerCount: 2
Fore
SplineSet
292 498 m 0,0,1
 292 447 292 447 257 406 c 1,2,3
 223 368 223 368 172 368 c 0,4,5
 118 368 118 368 79 407 c 256,6,7
 40 446 40 446 40 501 c 0,8,9
 40 525 40 525 49 548 c 128,-1,10
 58 571 58 571 78 591 c 0,11,12
 117 632 117 632 166 632 c 0,13,14
 219 632 219 632 255 591 c 1,15,16
 292 551 292 551 292 498 c 0,0,1
238 527 m 0,17,18
 238 575 238 575 198 575 c 0,19,20
 159 575 159 575 128 541 c 0,21,22
 114 525 114 525 106.5 505.5 c 128,-1,23
 99 486 99 486 99 466 c 0,24,25
 99 422 99 422 133 422 c 0,26,27
 174 422 174 422 206 454 c 0,28,29
 238 485 238 485 238 527 c 0,17,18
334 -2 m 1,30,31
 303 29 303 29 267 60 c 128,-1,32
 231 91 231 91 194 118.5 c 128,-1,33
 157 146 157 146 121 170.5 c 128,-1,34
 85 195 85 195 54 213 c 1,35,-1
 54 339 l 1,36,37
 120 288 120 288 202 200.5 c 128,-1,38
 284 113 284 113 334 43 c 1,39,-1
 334 -2 l 1,30,31
EndSplineSet
EndChar

StartChar: u0983
Encoding: 2435 2435 51
Width: 378
GlyphClass: 2
Flags: W
LayerCount: 2
Fore
SplineSet
330 154 m 256,0,1
 330 102 330 102 293 59 c 0,2,3
 275 37 275 37 252.5 27 c 128,-1,4
 230 17 230 17 205 17 c 0,5,6
 150 17 150 17 111 55 c 0,7,8
 72 94 72 94 72 147 c 0,9,10
 72 199 72 199 113 243 c 1,11,12
 135 264 135 264 158.5 275 c 128,-1,13
 182 286 182 286 209 286 c 0,14,15
 260 286 260 286 295 246 c 256,16,17
 330 206 330 206 330 154 c 256,0,1
271 160 m 0,18,19
 271 186 271 186 257 207 c 128,-1,20
 243 228 243 228 217 228 c 0,21,22
 180 228 180 228 159 196 c 1,23,24
 138 166 138 166 138 128 c 0,25,26
 138 64 138 64 181 64 c 0,27,28
 200 64 200 64 216.5 72 c 128,-1,29
 233 80 233 80 245 93 c 128,-1,30
 257 106 257 106 264 123.5 c 128,-1,31
 271 141 271 141 271 160 c 0,18,19
330 489 m 256,32,33
 330 437 330 437 293 394 c 0,34,35
 275 372 275 372 252.5 362 c 128,-1,36
 230 352 230 352 205 352 c 0,37,38
 150 352 150 352 111 390 c 0,39,40
 72 429 72 429 72 482 c 0,41,42
 72 534 72 534 113 577 c 1,43,44
 157 621 157 621 209 621 c 0,45,46
 260 621 260 621 295 581 c 256,47,48
 330 541 330 541 330 489 c 256,32,33
271 495 m 0,49,50
 271 521 271 521 257 542 c 128,-1,51
 243 563 243 563 217 563 c 0,52,53
 180 563 180 563 159 531 c 1,54,55
 138 501 138 501 138 463 c 0,56,57
 138 399 138 399 181 399 c 0,58,59
 200 399 200 399 216.5 407 c 128,-1,60
 233 415 233 415 245 428 c 128,-1,61
 257 441 257 441 264 458.5 c 128,-1,62
 271 476 271 476 271 495 c 0,49,50
EndSplineSet
EndChar

StartChar: u0985
Encoding: 2437 2437 52
Width: 684
GlyphClass: 2
Flags: W
LayerCount: 2
Fore
SplineSet
697 588 m 1,0,-1
 593 588 l 1,1,-1
 593 -2 l 1,2,-1
 574 10 l 1,3,-1
 574 9 l 1,4,5
 536 155 536 155 437 220 c 1,6,7
 415 184 415 184 376.5 164 c 128,-1,8
 338 144 338 144 287 144 c 0,9,10
 259 144 259 144 230 156 c 128,-1,11
 201 168 201 168 172.5 190 c 128,-1,12
 144 212 144 212 118 243 c 128,-1,13
 92 274 92 274 69 311 c 1,14,15
 42 357 42 357 25 420 c 128,-1,16
 8 483 8 483 0 555 c 1,17,-1
 34 541 l 1,18,19
 48 472 48 472 72 416 c 128,-1,20
 96 360 96 360 128 319.5 c 128,-1,21
 160 279 160 279 198 256.5 c 128,-1,22
 236 234 236 234 276 234 c 0,23,24
 374 234 374 234 407 292 c 1,25,26
 429 333 429 333 429 373 c 0,27,28
 429 387 429 387 426 403 c 1,29,30
 419 428 419 428 405.5 448 c 128,-1,31
 392 468 392 468 381 478 c 1,32,33
 362 493 362 493 346 496 c 128,-1,34
 330 499 330 499 313 492 c 1,35,36
 331 468 331 468 331 447 c 0,37,38
 331 429 331 429 320.5 412 c 128,-1,39
 310 395 310 395 292 383 c 1,40,41
 264 361 264 361 225 367 c 1,42,43
 188 374 188 374 167 404 c 1,44,45
 157 423 157 423 157 445 c 0,46,47
 157 469 157 469 169 490.5 c 128,-1,48
 181 512 181 512 199 526 c 1,49,50
 247 559 247 559 293 559 c 0,51,52
 315 559 315 559 338 552 c 0,53,54
 370 541 370 541 399.5 519 c 128,-1,55
 429 497 429 497 450 463 c 1,56,57
 476 416 476 416 476 357 c 0,58,59
 476 315 476 315 464 270 c 1,60,-1
 537 204 l 1,61,-1
 537 588 l 1,62,-1
 -15 588 l 1,63,-1
 -71 644 l 1,64,-1
 641 644 l 1,65,-1
 697 588 l 1,0,-1
EndSplineSet
EndChar

StartChar: u0987
Encoding: 2439 2439 54
Width: 538
GlyphClass: 2
Flags: W
LayerCount: 2
Fore
SplineSet
544 588 m 1,0,-1
 248 588 l 1,1,2
 255 577 255 577 263 566.5 c 128,-1,3
 271 556 271 556 279 547 c 1,4,5
 364 517 364 517 393 483 c 1,6,7
 438 439 438 439 438 370 c 128,-1,8
 438 301 438 301 383 256 c 1,9,10
 342 221 342 221 258 199 c 1,11,12
 315 165 315 165 379.5 110 c 128,-1,13
 444 55 444 55 519 -21 c 1,14,-1
 532 -79 l 1,15,16
 492 -34 492 -34 444 5.5 c 128,-1,17
 396 45 396 45 336 80 c 1,18,19
 279 112 279 112 218 136 c 128,-1,20
 157 160 157 160 96 175 c 1,21,-1
 29 315 l 1,22,23
 100 276 100 276 186 269 c 0,24,25
 251 264 251 264 301 290 c 1,26,27
 370 324 370 324 367 381 c 0,28,29
 367 399 367 399 361.5 416 c 128,-1,30
 356 433 356 433 345.5 446 c 128,-1,31
 335 459 335 459 321 467 c 128,-1,32
 307 475 307 475 289 475 c 0,33,34
 281 475 281 475 274.5 473 c 128,-1,35
 268 471 268 471 260 469 c 1,36,37
 260 429 260 429 226 396 c 0,38,39
 191 363 191 363 152 363 c 0,40,41
 127 363 127 363 106 378.5 c 128,-1,42
 85 394 85 394 85 419 c 0,43,44
 85 466 85 466 125 503 c 0,45,46
 163 538 163 538 216 543 c 1,47,48
 216 559 216 559 178 588 c 1,49,-1
 -2 588 l 1,50,-1
 -58 644 l 1,51,-1
 322 644 l 2,52,53
 333 644 333 644 346 646.5 c 128,-1,54
 359 649 359 649 370 653 c 0,55,56
 401 664 401 664 401 686 c 0,57,58
 401 707 401 707 366 717 c 0,59,60
 355 721 355 721 342 722.5 c 128,-1,61
 329 724 329 724 315 724 c 256,62,63
 301 724 301 724 280.5 723 c 128,-1,64
 260 722 260 722 232 720 c 256,65,66
 204 718 204 718 183.5 717 c 128,-1,67
 163 716 163 716 149 716 c 0,68,69
 86 716 86 716 33 747 c 0,70,71
 -28 783 -28 783 -28 841 c 0,72,73
 -28 853 -28 853 -14 879 c 0,74,75
 0 904 0 904 12 902 c 0,76,77
 15 902 15 902 19 901.5 c 128,-1,78
 23 901 23 901 27 901 c 1,79,80
 3 884 3 884 3 854 c 0,81,82
 3 826 3 826 33 808 c 0,83,84
 57 793 57 793 88 793 c 0,85,86
 100 793 100 793 136.5 795.5 c 128,-1,87
 173 798 173 798 233 803 c 1,88,89
 338 801 338 801 392 761.5 c 128,-1,90
 446 722 446 722 441 644 c 1,91,-1
 488 644 l 1,92,-1
 544 588 l 1,0,-1
EndSplineSet
EndChar

StartChar: u0988
Encoding: 2440 2440 55
Width: 585
GlyphClass: 2
Flags: W
LayerCount: 2
Fore
SplineSet
598 588 m 1,0,-1
 168 588 l 1,1,2
 172 578 172 578 178 568 c 128,-1,3
 184 558 184 558 192 545 c 1,4,5
 258 540 258 540 286.5 497 c 128,-1,6
 315 454 315 454 315 392 c 1,7,8
 361 440 361 440 401 473 c 128,-1,9
 441 506 441 506 474 523 c 1,10,-1
 567 462 l 1,11,12
 507 402 507 402 472.5 326 c 128,-1,13
 438 250 438 250 438 162 c 0,14,15
 438 87 438 87 482 -7 c 1,16,17
 471 -2 471 -2 459 4.5 c 128,-1,18
 447 11 447 11 437 16 c 1,19,20
 391 116 391 116 391 224 c 0,21,22
 391 317 391 317 438 415 c 1,23,24
 418 397 418 397 386.5 361.5 c 128,-1,25
 355 326 355 326 317 279 c 0,26,27
 273 224 273 224 243.5 195 c 128,-1,28
 214 166 214 166 187 166 c 0,29,30
 162 166 162 166 142.5 177 c 128,-1,31
 123 188 123 188 109 205.5 c 128,-1,32
 95 223 95 223 86 245 c 128,-1,33
 77 267 77 267 73 288 c 1,34,-1
 100 312 l 1,35,36
 107 286 107 286 122 263 c 128,-1,37
 137 240 137 240 163 240 c 0,38,39
 196 240 196 240 232 287 c 0,40,41
 255 318 255 318 265.5 342.5 c 128,-1,42
 276 367 276 367 276 399 c 0,43,44
 276 428 276 428 257 450.5 c 128,-1,45
 238 473 238 473 211 473 c 0,46,47
 196 473 196 473 180 464 c 1,48,49
 193 445 193 445 193 426 c 0,50,51
 193 404 193 404 176.5 389.5 c 128,-1,52
 160 375 160 375 133 375 c 0,53,54
 99 375 99 375 77.5 396 c 128,-1,55
 56 417 56 417 56 450 c 0,56,57
 56 469 56 469 64 484 c 128,-1,58
 72 499 72 499 84.5 510 c 128,-1,59
 97 521 97 521 113 528.5 c 128,-1,60
 129 536 129 536 144 541 c 1,61,-1
 117 588 l 1,62,-1
 -6 588 l 1,63,-1
 -62 644 l 1,64,-1
 422 644 l 2,65,66
 436 644 436 644 444.5 657 c 128,-1,67
 453 670 453 670 453 682 c 0,68,69
 453 716 453 716 406 716 c 0,70,71
 344 716 344 716 287 710.5 c 128,-1,72
 230 705 230 705 173 705 c 256,73,74
 116 705 116 705 70 736 c 0,75,76
 18 771 18 771 18 824 c 0,77,78
 18 831 18 831 20.5 840.5 c 128,-1,79
 23 850 23 850 28 859.5 c 128,-1,80
 33 869 33 869 39.5 877.5 c 128,-1,81
 46 886 46 886 54 891 c 1,82,-1
 70 870 l 1,83,84
 56 851 56 851 56 833 c 0,85,86
 56 782 56 782 129 782 c 0,87,88
 143 782 143 782 168 784 c 128,-1,89
 193 786 193 786 220.5 788 c 128,-1,90
 248 790 248 790 274 792 c 128,-1,91
 300 794 300 794 315 794 c 0,92,93
 359 794 359 794 389 784.5 c 128,-1,94
 419 775 419 775 442 759 c 0,95,96
 467 742 467 742 480.5 716 c 128,-1,97
 494 690 494 690 494 657 c 0,98,99
 494 654 494 654 493.5 650.5 c 128,-1,100
 493 647 493 647 493 644 c 1,101,-1
 543 644 l 1,102,-1
 598 588 l 1,0,-1
EndSplineSet
EndChar

StartChar: u0989
Encoding: 2441 2441 56
Width: 597
GlyphClass: 2
Flags: W
LayerCount: 2
Fore
SplineSet
606 588 m 1,0,-1
 285 588 l 1,1,-1
 285 416 l 2,2,3
 285 399 285 399 294.5 384 c 128,-1,4
 304 369 304 369 321 369 c 1,5,6
 360 382 360 382 393 426 c 1,7,8
 426 474 426 474 437 474 c 0,9,10
 477 474 477 474 510 411 c 0,11,12
 540 355 540 355 540 309 c 1,13,14
 544 210 544 210 490 142 c 1,15,16
 425 76 425 76 336 73 c 1,17,18
 90 73 90 73 39 550 c 1,19,-1
 78 528 l 1,20,21
 82 468 82 468 97 411 c 128,-1,22
 112 354 112 354 140 301 c 1,23,24
 214 170 214 170 325 170 c 0,25,26
 359 170 359 170 388 181 c 128,-1,27
 417 192 417 192 443 213 c 0,28,29
 496 255 496 255 496 321 c 0,30,31
 496 359 496 359 465 393 c 1,32,33
 453 373 453 373 436 353 c 128,-1,34
 419 333 419 333 397 316 c 1,35,36
 377 299 377 299 357 290 c 128,-1,37
 337 281 337 281 322 281 c 0,38,39
 304 281 304 281 287.5 288 c 128,-1,40
 271 295 271 295 258.5 308 c 128,-1,41
 246 321 246 321 238 339 c 128,-1,42
 230 357 230 357 230 379 c 2,43,-1
 230 588 l 1,44,-1
 -8 588 l 1,45,-1
 -63 644 l 1,46,-1
 411 644 l 1,47,48
 447 643 447 643 447 674 c 0,49,50
 447 700 447 700 415 714 c 0,51,52
 390 724 390 724 362 724 c 0,53,54
 348 724 348 724 328.5 723 c 128,-1,55
 309 722 309 722 281 720 c 0,56,57
 255 718 255 718 234.5 717 c 128,-1,58
 214 716 214 716 201 716 c 0,59,60
 138 716 138 716 85 748 c 0,61,62
 25 784 25 784 25 843 c 0,63,64
 25 891 25 891 55 908 c 1,65,66
 59 906 59 906 65.5 903 c 128,-1,67
 72 900 72 900 77 898 c 1,68,69
 56 881 56 881 56 858 c 0,70,71
 56 827 56 827 96 808 c 0,72,73
 110 802 110 802 127.5 798 c 128,-1,74
 145 794 145 794 162 794 c 0,75,76
 176 794 176 794 196.5 795 c 128,-1,77
 217 796 217 796 246 798 c 0,78,79
 274 800 274 800 295.5 801.5 c 128,-1,80
 317 803 317 803 331 803 c 0,81,82
 409 803 409 803 454 761.5 c 128,-1,83
 499 720 499 720 496 644 c 1,84,-1
 551 644 l 1,85,-1
 606 588 l 1,0,-1
EndSplineSet
EndChar

StartChar: u098A
Encoding: 2442 2442 57
Width: 666
GlyphClass: 2
Flags: W
LayerCount: 2
Fore
SplineSet
586 411 m 0,0,1
 601 382 601 382 606.5 357 c 128,-1,2
 612 332 612 332 612 309 c 0,3,4
 612 252 612 252 601 212 c 128,-1,5
 590 172 590 172 562 143 c 1,6,7
 498 73 498 73 408 73 c 0,8,9
 325 73 325 73 263 113 c 128,-1,10
 201 153 201 153 157 216.5 c 128,-1,11
 113 280 113 280 85 358.5 c 128,-1,12
 57 437 57 437 44 514 c 1,13,-1
 84 497 l 1,14,15
 91 460 91 460 103.5 421.5 c 128,-1,16
 116 383 116 383 133.5 346.5 c 128,-1,17
 151 310 151 310 174 276.5 c 128,-1,18
 197 243 197 243 225 216 c 1,19,20
 197 276 197 276 182 361.5 c 128,-1,21
 167 447 167 447 162 549 c 1,22,-1
 199 526 l 1,23,24
 205 474 205 474 214.5 412 c 128,-1,25
 224 350 224 350 245 296 c 128,-1,26
 266 242 266 242 302.5 206 c 128,-1,27
 339 170 339 170 399 170 c 0,28,29
 462 170 462 170 517 213 c 1,30,31
 568 255 568 255 568 321 c 0,32,33
 568 358 568 358 539 393 c 1,34,35
 528 373 528 373 510 353.5 c 128,-1,36
 492 334 492 334 470 317 c 0,37,38
 425 281 425 281 395 281 c 0,39,40
 358 281 358 281 330 308 c 128,-1,41
 302 335 302 335 302 379 c 2,42,-1
 302 588 l 1,43,-1
 -3 588 l 1,44,-1
 -58 644 l 1,45,-1
 484 644 l 2,46,47
 520 644 520 644 520 674 c 0,48,49
 520 700 520 700 487 714 c 0,50,51
 462 724 462 724 436 724 c 0,52,53
 423 724 423 724 401.5 722.5 c 128,-1,54
 380 721 380 721 355 719 c 0,55,56
 341 718 341 718 324 717.5 c 128,-1,57
 307 717 307 717 290.5 716.5 c 128,-1,58
 274 716 274 716 261 716 c 128,-1,59
 248 716 248 716 241 716 c 0,60,61
 176 716 176 716 126 748 c 1,62,63
 66 784 66 784 66 843 c 0,64,65
 66 894 66 894 93 908 c 1,66,67
 98 906 98 906 105 903 c 128,-1,68
 112 900 112 900 117 898 c 1,69,70
 96 881 96 881 96 858 c 0,71,72
 96 826 96 826 136 808 c 0,73,74
 150 802 150 802 167 798 c 128,-1,75
 184 794 184 794 203 794 c 0,76,77
 216 794 216 794 237 795 c 128,-1,78
 258 796 258 796 287 798 c 0,79,80
 301 799 301 799 318.5 800 c 128,-1,81
 336 801 336 801 352.5 801.5 c 128,-1,82
 369 802 369 802 382.5 802.5 c 128,-1,83
 396 803 396 803 403 803 c 0,84,85
 479 803 479 803 523.5 764 c 128,-1,86
 568 725 568 725 568 644 c 1,87,-1
 624 644 l 1,88,-1
 678 588 l 1,89,-1
 357 588 l 1,90,-1
 357 416 l 2,91,92
 357 399 357 399 367 384 c 128,-1,93
 377 369 377 369 394 369 c 1,94,95
 414 371 414 371 431 387 c 128,-1,96
 448 403 448 403 465 426 c 0,97,98
 498 474 498 474 509 474 c 0,99,100
 553 474 553 474 586 411 c 0,0,1
EndSplineSet
EndChar

StartChar: u098B
Encoding: 2443 2443 58
Width: 690
GlyphClass: 2
Flags: W
LayerCount: 2
Fore
SplineSet
586 588 m 1,0,-1
 586 79 l 1,1,2
 582 84 582 84 577.5 88.5 c 128,-1,3
 573 93 573 93 570 98 c 1,4,5
 566 131 566 131 555.5 164 c 128,-1,6
 545 197 545 197 528.5 227 c 128,-1,7
 512 257 512 257 489 282 c 128,-1,8
 466 307 466 307 437 323 c 1,9,-1
 437 -1 l 1,10,11
 426 3 426 3 416 20 c 1,12,13
 393 84 393 84 370 132 c 128,-1,14
 347 180 347 180 324 208 c 0,15,16
 260 286 260 286 142 307 c 1,17,18
 128 327 128 327 113 349.5 c 128,-1,19
 98 372 98 372 83 393 c 1,20,21
 126 425 126 425 192 464 c 128,-1,22
 258 503 258 503 346 548 c 1,23,24
 313 594 313 594 269 597 c 1,25,26
 258 578 258 578 239.5 564 c 128,-1,27
 221 550 221 550 200 540.5 c 128,-1,28
 179 531 179 531 156 526 c 128,-1,29
 133 521 133 521 113 521 c 0,30,31
 95 521 95 521 78 527 c 128,-1,32
 61 533 61 533 47.5 543.5 c 128,-1,33
 34 554 34 554 26 569 c 128,-1,34
 18 584 18 584 18 602 c 0,35,36
 18 665 18 665 80 665 c 0,37,38
 127 665 127 665 127 608 c 1,39,40
 165 612 165 612 197 634 c 128,-1,41
 229 656 229 656 250 688 c 1,42,43
 288 666 288 666 322.5 634 c 128,-1,44
 357 602 357 602 381 562 c 1,45,-1
 381 757 l 1,46,-1
 437 702 l 1,47,-1
 437 392 l 1,48,49
 469 372 469 372 492 350 c 128,-1,50
 515 328 515 328 531 302 c 1,51,-1
 531 752 l 1,52,-1
 569 714 l 1,53,54
 570 696 570 696 574 678.5 c 128,-1,55
 578 661 578 661 585 644 c 1,56,-1
 644 644 l 1,57,-1
 700 588 l 1,58,-1
 586 588 l 1,0,-1
382 475 m 1,59,60
 333 450 333 450 290 423.5 c 128,-1,61
 247 397 247 397 209 369 c 1,62,63
 307 316 307 316 382 213 c 1,64,-1
 382 475 l 1,59,60
EndSplineSet
EndChar

StartChar: u098C
Encoding: 2444 2444 59
Width: 606
GlyphClass: 2
Flags: W
LayerCount: 2
Fore
SplineSet
434 431 m 2,0,1
 452 416 452 416 472.5 397.5 c 128,-1,2
 493 379 493 379 511 356 c 128,-1,3
 529 333 529 333 542 305 c 128,-1,4
 555 277 555 277 558 243 c 0,5,6
 562 204 562 204 549 172.5 c 128,-1,7
 536 141 536 141 511 116.5 c 128,-1,8
 486 92 486 92 452.5 73.5 c 128,-1,9
 419 55 419 55 383 42.5 c 128,-1,10
 347 30 347 30 310.5 24 c 128,-1,11
 274 18 274 18 244 18 c 1,12,13
 252 33 252 33 266 53 c 1,14,15
 277 71 277 71 288.5 90.5 c 128,-1,16
 300 110 300 110 310 130.5 c 128,-1,17
 320 151 320 151 326 171 c 128,-1,18
 332 191 332 191 332 211 c 0,19,20
 332 245 332 245 305 272 c 0,21,22
 294 282 294 282 274.5 290 c 128,-1,23
 255 298 255 298 232 298 c 256,24,25
 209 298 209 298 186.5 287.5 c 128,-1,26
 164 277 164 277 150 251 c 0,27,28
 138 230 138 230 149.5 222 c 128,-1,29
 161 214 161 214 181 209 c 0,30,31
 190 207 190 207 199 204 c 128,-1,32
 208 201 208 201 215.5 196.5 c 128,-1,33
 223 192 223 192 228 185 c 128,-1,34
 233 178 233 178 233 166 c 0,35,36
 233 150 233 150 220 121 c 1,37,38
 208 105 208 105 192.5 97 c 128,-1,39
 177 89 177 89 161 89 c 0,40,41
 128 89 128 89 107 113 c 1,42,43
 96 123 96 123 89.5 137.5 c 128,-1,44
 83 152 83 152 79.5 167 c 128,-1,45
 76 182 76 182 75.5 195 c 128,-1,46
 75 208 75 208 76 216 c 1,47,48
 76 234 76 234 85.5 257 c 128,-1,49
 95 280 95 280 112.5 301 c 128,-1,50
 130 322 130 322 153.5 337.5 c 128,-1,51
 177 353 177 353 205 357 c 1,52,53
 241 358 241 358 273 349 c 128,-1,54
 305 340 305 340 329.5 321 c 128,-1,55
 354 302 354 302 368 274.5 c 128,-1,56
 382 247 382 247 382 213 c 0,57,58
 382 188 382 188 375 160.5 c 128,-1,59
 368 133 368 133 352 102 c 1,60,61
 364 106 364 106 379 115 c 128,-1,62
 394 124 394 124 409.5 135.5 c 128,-1,63
 425 147 425 147 439.5 159.5 c 128,-1,64
 454 172 454 172 465 183 c 0,65,66
 481 199 481 199 490 216 c 128,-1,67
 499 233 499 233 499 252 c 0,68,69
 499 280 499 280 474.5 313.5 c 128,-1,70
 450 347 450 347 408 375 c 1,71,-1
 319 440 l 2,72,73
 290 460 290 460 261.5 480.5 c 128,-1,74
 233 501 233 501 210.5 523.5 c 128,-1,75
 188 546 188 546 174 569.5 c 128,-1,76
 160 593 160 593 160 619 c 0,77,78
 160 657 160 657 213 683 c 0,79,80
 220 686 220 686 227 687 c 128,-1,81
 234 688 234 688 242 688 c 0,82,83
 260 688 260 688 276.5 681.5 c 128,-1,84
 293 675 293 675 293 659 c 0,85,86
 293 641 293 641 269 617 c 0,87,88
 257 606 257 606 261.5 592.5 c 128,-1,89
 266 579 266 579 281 562 c 128,-1,90
 296 545 296 545 319 525.5 c 128,-1,91
 342 506 342 506 369 484 c 2,92,-1
 416 446 l 1,93,-1
 434 431 l 2,0,1
EndSplineSet
EndChar

StartChar: u098F
Encoding: 2447 2447 60
Width: 670
GlyphClass: 2
Flags: W
LayerCount: 2
Fore
SplineSet
566 -1 m 1,0,1
 553 6 553 6 545 35 c 1,2,3
 536 60 536 60 528 77.5 c 128,-1,4
 520 95 520 95 512 106 c 0,5,6
 482 144 482 144 429 144 c 0,7,8
 401 144 401 144 343 135 c 0,9,10
 314 131 314 131 292.5 129.5 c 128,-1,11
 271 128 271 128 256 128 c 0,12,13
 51 128 51 128 51 339 c 0,14,15
 51 385 51 385 64 421.5 c 128,-1,16
 77 458 77 458 100 486 c 1,17,-1
 121 464 l 1,18,19
 107 441 107 441 98.5 410 c 128,-1,20
 90 379 90 379 90 342 c 256,21,22
 90 305 90 305 102 278.5 c 128,-1,23
 114 252 114 252 136 238 c 0,24,25
 153 228 153 228 180 222 c 128,-1,26
 207 216 207 216 243 216 c 0,27,28
 251 216 251 216 266.5 216 c 128,-1,29
 282 216 282 216 297 217 c 2,30,-1
 350 219 l 1,31,32
 438 219 438 219 517 152 c 1,33,-1
 517 576 l 2,34,35
 517 593 517 593 477 593 c 0,36,37
 451 593 451 593 427.5 578 c 128,-1,38
 404 563 404 563 379 534 c 1,39,40
 358 508 358 508 344 482 c 128,-1,41
 330 456 330 456 324 427 c 1,42,43
 346 430 346 430 363 430 c 0,44,45
 404 430 404 430 404 366 c 0,46,47
 404 335 404 335 382 317.5 c 128,-1,48
 360 300 360 300 328 300 c 0,49,50
 286 300 286 300 258.5 326 c 128,-1,51
 231 352 231 352 231 395 c 0,52,53
 231 485 231 485 307 567 c 1,54,55
 345 605 345 605 387 627 c 128,-1,56
 429 649 429 649 472 649 c 0,57,58
 499 649 499 649 537 617 c 0,59,60
 573 587 573 587 573 560 c 2,61,-1
 573 -3 l 1,62,-1
 566 -1 l 1,0,1
EndSplineSet
EndChar

StartChar: u0990
Encoding: 2448 2448 61
Width: 675
GlyphClass: 2
Flags: W
LayerCount: 2
Fore
SplineSet
663 581 m 0,0,1
 663 494 663 494 561 439 c 1,2,-1
 561 -2 l 1,3,4
 538 20 538 20 527 60 c 0,5,6
 522 80 522 80 516 95 c 128,-1,7
 510 110 510 110 505 115 c 0,8,9
 482 139 482 139 422 139 c 0,10,11
 408 139 408 139 388 137 c 128,-1,12
 368 135 368 135 341 132 c 0,13,14
 288 126 288 126 261 126 c 0,15,16
 51 126 51 126 51 328 c 0,17,18
 51 409 51 409 99 480 c 1,19,20
 104 474 104 474 108 467 c 128,-1,21
 112 460 112 460 117 455 c 1,22,23
 103 433 103 433 96 406.5 c 128,-1,24
 89 380 89 380 89 345 c 0,25,26
 89 266 89 266 140 236 c 0,27,28
 158 226 158 226 186.5 220.5 c 128,-1,29
 215 215 215 215 254 215 c 2,30,-1
 298 215 l 1,31,32
 312 216 312 216 322 216 c 128,-1,33
 332 216 332 216 339 216 c 0,34,35
 464 216 464 216 506 148 c 1,36,-1
 506 569 l 2,37,38
 506 583 506 583 475 583 c 0,39,40
 426 583 426 583 377 525 c 0,41,42
 357 502 357 502 342 476 c 128,-1,43
 327 450 327 450 316 421 c 1,44,45
 324 422 324 422 329 422.5 c 128,-1,46
 334 423 334 423 339 424 c 0,47,48
 343 425 343 425 348 425 c 0,49,50
 370 425 370 425 384.5 406.5 c 128,-1,51
 399 388 399 388 399 363 c 0,52,53
 399 294 399 294 319 294 c 0,54,55
 276 294 276 294 248 330 c 1,56,57
 237 346 237 346 230.5 366 c 128,-1,58
 224 386 224 386 224 407 c 0,59,60
 224 487 224 487 303 565 c 1,61,62
 386 643 386 643 466 643 c 0,63,64
 551 643 551 643 556 523 c 1,65,66
 623 530 623 530 623 580 c 0,67,68
 623 649 623 649 524 681 c 1,69,70
 479 694 479 694 433.5 706.5 c 128,-1,71
 388 719 388 719 343 731 c 1,72,73
 296 749 296 749 271.5 779 c 128,-1,74
 247 809 247 809 247 847 c 0,75,76
 247 890 247 890 313 943 c 1,77,78
 316 939 316 939 326.5 929 c 128,-1,79
 337 919 337 919 341 915 c 1,80,81
 312 897 312 897 296 881.5 c 128,-1,82
 280 866 280 866 280 852 c 0,83,84
 280 831 280 831 306 815 c 128,-1,85
 332 799 332 799 381 787 c 0,86,87
 451 770 451 770 498.5 756 c 128,-1,88
 546 742 546 742 565 732 c 0,89,90
 663 682 663 682 663 581 c 0,0,1
EndSplineSet
EndChar

StartChar: u0993
Encoding: 2451 2451 62
Width: 623
GlyphClass: 2
Flags: W
LayerCount: 2
Fore
SplineSet
572 232 m 0,0,1
 572 154 572 154 526 111 c 128,-1,2
 480 68 480 68 402 68 c 0,3,4
 168 68 168 68 32 566 c 1,5,-1
 76 550 l 1,6,7
 100 462 100 462 131 398 c 128,-1,8
 162 334 162 334 185 299 c 0,9,10
 231 229 231 229 285 192.5 c 128,-1,11
 339 156 339 156 400 156 c 0,12,13
 425 156 425 156 448.5 163.5 c 128,-1,14
 472 171 472 171 490 184.5 c 128,-1,15
 508 198 508 198 518.5 218 c 128,-1,16
 529 238 529 238 529 262 c 0,17,18
 529 293 529 293 493 319 c 1,19,20
 470 295 470 295 440 295 c 0,21,22
 411 295 411 295 390.5 314.5 c 128,-1,23
 370 334 370 334 370 363 c 256,24,25
 370 392 370 392 389 414.5 c 128,-1,26
 408 437 408 437 437 437 c 0,27,28
 461 437 461 437 484 424 c 1,29,30
 527 443 527 443 527 495 c 0,31,32
 527 563 527 563 455 563 c 0,33,34
 430 563 430 563 406.5 557.5 c 128,-1,35
 383 552 383 552 360 541 c 0,36,37
 311 516 311 516 287 475 c 1,38,39
 323 451 323 451 323 422 c 0,40,41
 323 357 323 357 265 357 c 0,42,43
 186 357 186 357 186 441 c 0,44,45
 186 479 186 479 207.5 512.5 c 128,-1,46
 229 546 229 546 269 572 c 0,47,48
 342 619 342 619 425 619 c 0,49,50
 453 619 453 619 478.5 610.5 c 128,-1,51
 504 602 504 602 523.5 586 c 128,-1,52
 543 570 543 570 554 547.5 c 128,-1,53
 565 525 565 525 565 497 c 0,54,55
 565 401 565 401 520 350 c 1,56,57
 572 285 572 285 572 232 c 0,0,1
EndSplineSet
EndChar

StartChar: u0994
Encoding: 2452 2452 63
Width: 696
GlyphClass: 2
Flags: W
LayerCount: 2
Fore
SplineSet
423 68 m 0,0,1
 188 68 188 68 50 566 c 1,2,-1
 88 547 l 1,3,4
 121 462 121 462 152 398 c 128,-1,5
 183 334 183 334 206 299 c 0,6,7
 252 229 252 229 306 192.5 c 128,-1,8
 360 156 360 156 420 156 c 1,9,10
 552 163 552 163 553 260 c 0,11,12
 553 291 553 291 519 322 c 1,13,14
 494 294 494 294 463 294 c 0,15,16
 394 294 394 294 394 361 c 0,17,18
 394 433 394 433 465 433 c 0,19,20
 484 433 484 433 509 422 c 1,21,22
 554 445 554 445 554 497 c 0,23,24
 554 558 554 558 485 558 c 0,25,26
 360 558 360 558 310 470 c 1,27,28
 346 447 346 447 346 406 c 0,29,30
 346 353 346 353 287 353 c 0,31,32
 207 353 207 353 207 441 c 0,33,34
 207 480 207 480 227.5 513.5 c 128,-1,35
 248 547 248 547 288 572 c 0,36,37
 357 614 357 614 443 614 c 0,38,39
 499 614 499 614 541 579 c 1,40,41
 584 541 584 541 584 488 c 0,42,43
 584 466 584 466 572 436 c 0,44,45
 567 422 567 422 561 412.5 c 128,-1,46
 555 403 555 403 546 398 c 1,47,-1
 546 396 l 1,48,49
 584 402 584 402 612 459 c 0,50,51
 623 482 623 482 629 505.5 c 128,-1,52
 635 529 635 529 635 550 c 0,53,54
 635 615 635 615 533 646 c 1,55,-1
 346 696 l 1,56,57
 298 715 298 715 272.5 744.5 c 128,-1,58
 247 774 247 774 247 813 c 0,59,60
 247 881 247 881 321 920 c 1,61,-1
 352 885 l 1,62,63
 304 869 304 869 304 836 c 0,64,65
 304 811 304 811 329 791.5 c 128,-1,66
 354 772 354 772 402 757 c 1,67,68
 477 731 477 731 522.5 714.5 c 128,-1,69
 568 698 568 698 582 691 c 1,70,71
 627 664 627 664 652 624.5 c 128,-1,72
 677 585 677 585 677 534 c 0,73,74
 677 455 677 455 560 340 c 1,75,76
 600 278 600 278 600 219 c 0,77,78
 600 148 600 148 545 106 c 0,79,80
 495 68 495 68 423 68 c 0,0,1
EndSplineSet
EndChar

StartChar: u0995
Encoding: 2453 2453 64
Width: 682
GlyphClass: 2
Flags: W
AnchorPoint: "Anchor-1" 0 0 basechar 0
AnchorPoint: "Anchor-0" 400 60 basechar 0 {11-17 1,0,0,0,0,1,-1} {11-11 -1}
LayerCount: 2
Fore
SplineSet
401 588 m 1,0,-1
 401 547 l 1,1,2
 499 547 499 547 559 467 c 1,3,4
 616 395 616 395 616 309 c 0,5,6
 616 288 616 288 609 269 c 128,-1,7
 602 250 602 250 590 235.5 c 128,-1,8
 578 221 578 221 561 212.5 c 128,-1,9
 544 204 544 204 524 204 c 0,10,11
 510 204 510 204 497 209.5 c 128,-1,12
 484 215 484 215 473.5 224 c 128,-1,13
 463 233 463 233 456.5 245.5 c 128,-1,14
 450 258 450 258 450 273 c 0,15,16
 450 300 450 300 469 318 c 128,-1,17
 488 336 488 336 516 336 c 0,18,19
 533 336 533 336 546.5 328 c 128,-1,20
 560 320 560 320 571 306 c 1,21,-1
 576 319 l 1,22,23
 576 377 576 377 530 423 c 1,24,25
 485 472 485 472 400 471 c 1,26,-1
 400 4 l 1,27,28
 394 5 394 5 388 8.5 c 128,-1,29
 382 12 382 12 380 17 c 0,30,31
 360 66 360 66 332.5 108.5 c 128,-1,32
 305 151 305 151 272 184 c 0,33,34
 196 260 196 260 102 271 c 1,35,-1
 23 369 l 1,36,37
 166 482 166 482 348 541 c 1,38,-1
 348 588 l 1,39,-1
 -16 588 l 1,40,-1
 -73 644 l 1,41,-1
 635 644 l 1,42,-1
 693 588 l 1,43,-1
 401 588 l 1,0,-1
345 464 m 1,44,45
 294 445 294 445 243 416.5 c 128,-1,46
 192 388 192 388 135 348 c 1,47,48
 275 289 275 289 343 161 c 1,49,-1
 345 161 l 1,50,-1
 345 464 l 1,44,45
EndSplineSet
EndChar

StartChar: u0996
Encoding: 2454 2454 65
Width: 551
GlyphClass: 2
Flags: W
AnchorPoint: "Anchor-1" 10 0 basechar 0
AnchorPoint: "Anchor-0" 475 90 basechar 0 {17-17 -1} {}
LayerCount: 2
Fore
SplineSet
564 588 m 1,0,-1
 477 588 l 1,1,-1
 477 6 l 1,2,3
 466 16 466 16 457 29.5 c 128,-1,4
 448 43 448 43 443 56 c 0,5,6
 435 76 435 76 428.5 92 c 128,-1,7
 422 108 422 108 419 113 c 0,8,9
 399 148 399 148 371 175 c 128,-1,10
 343 202 343 202 306 224 c 1,11,-1
 307 224 l 1,12,13
 240 264 240 264 159 272 c 1,14,-1
 64 388 l 1,15,16
 75 386 75 386 86.5 384.5 c 128,-1,17
 98 383 98 383 110 383 c 0,18,19
 138 383 138 383 169.5 390.5 c 128,-1,20
 201 398 201 398 233 412 c 0,21,22
 272 429 272 429 293.5 449.5 c 128,-1,23
 315 470 315 470 315 493 c 0,24,25
 315 529 315 529 286 554 c 1,26,27
 194 462 194 462 102 462 c 0,28,29
 68 462 68 462 43 484 c 128,-1,30
 18 506 18 506 18 539 c 0,31,32
 18 563 18 563 35.5 582 c 128,-1,33
 53 601 53 601 78 601 c 0,34,35
 129 601 129 601 132 549 c 1,36,37
 149 552 149 552 166.5 561.5 c 128,-1,38
 184 571 184 571 202 585 c 0,39,40
 204 586 204 586 220.5 602.5 c 128,-1,41
 237 619 237 619 256 637 c 1,42,43
 288 610 288 610 308 592 c 128,-1,44
 328 574 328 574 333 569 c 0,45,46
 373 526 373 526 373 480 c 0,47,48
 373 431 373 431 334 386 c 1,49,50
 295 343 295 343 244 329 c 1,51,52
 366 268 366 268 421 171 c 1,53,-1
 423 171 l 1,54,-1
 423 748 l 1,55,-1
 454 728 l 1,56,57
 454 711 454 711 456 694 c 128,-1,58
 458 677 458 677 460 671 c 0,59,60
 471 647 471 647 507 644 c 1,61,-1
 564 588 l 1,0,-1
EndSplineSet
EndChar

StartChar: u0997
Encoding: 2455 2455 66
Width: 553
GlyphClass: 2
Flags: W
AnchorPoint: "Anchor-1" 5 5 basechar 0
AnchorPoint: "Anchor-0" 465 65 basechar 0 {16-17 1,-1} {17-17 -1}
LayerCount: 2
Fore
SplineSet
572 588 m 1,0,-1
 470 588 l 1,1,-1
 470 -12 l 1,2,-1
 407 65 l 1,3,4
 408 215 408 215 410 290 c 0,5,6
 411 334 411 334 411 365 c 0,7,8
 411 398 411 398 398 432.5 c 128,-1,9
 385 467 385 467 362 499 c 1,10,11
 308 570 308 570 244 570 c 0,12,13
 147 570 147 570 110 481 c 1,14,15
 152 499 152 499 183 499 c 0,16,17
 207 499 207 499 227.5 492.5 c 128,-1,18
 248 486 248 486 263 475 c 1,19,20
 279 461 279 461 288 442.5 c 128,-1,21
 297 424 297 424 297 400 c 0,22,23
 297 368 297 368 266.5 319.5 c 128,-1,24
 236 271 236 271 182 212 c 1,25,-1
 117 286 l 1,26,27
 130 295 130 295 148 312.5 c 128,-1,28
 166 330 166 330 186 353 c 0,29,30
 210 379 210 379 223.5 398 c 128,-1,31
 237 417 237 417 237 426 c 0,32,33
 237 453 237 453 204 453 c 0,34,35
 192 453 192 453 150 428 c 0,36,37
 130 417 130 417 115 410.5 c 128,-1,38
 100 404 100 404 91 404 c 0,39,40
 69 404 69 404 47 432 c 0,41,42
 28 457 28 457 28 484 c 0,43,44
 28 553 28 553 92 598 c 0,45,46
 121 618 121 618 153.5 627.5 c 128,-1,47
 186 637 186 637 222 637 c 0,48,49
 311 637 311 637 361 579 c 0,50,51
 395 539 395 539 434 430 c 1,52,-1
 425 592 l 2,53,54
 423 641 423 641 421.5 680 c 128,-1,55
 420 719 420 719 420 751 c 1,56,-1
 452 719 l 1,57,58
 450 711 450 711 450 703 c 0,59,60
 448 642 448 642 500 643 c 0,61,62
 506 643 506 643 516 644 c 1,63,-1
 572 588 l 1,0,-1
EndSplineSet
EndChar

StartChar: u0998
Encoding: 2456 2456 67
Width: 538
GlyphClass: 2
Flags: W
AnchorPoint: "Anchor-1" 5 -5 basechar 0
AnchorPoint: "Anchor-0" 455 60 basechar 0 {12-23 1,0,1,0,0,-1,0,0,0,0,0,1} {}
LayerCount: 2
Fore
SplineSet
548 588 m 1,0,-1
 457 588 l 1,1,-1
 457 1 l 1,2,-1
 430 26 l 1,3,-1
 430 25 l 1,4,5
 386 135 386 135 317 186.5 c 128,-1,6
 248 238 248 238 156 233 c 1,7,-1
 82 311 l 1,8,9
 119 351 119 351 199 425 c 1,10,11
 179 417 179 417 155 417 c 0,12,13
 111 417 111 417 75 447 c 0,14,15
 57 463 57 463 48 482.5 c 128,-1,16
 39 502 39 502 39 523 c 0,17,18
 39 554 39 554 58 588 c 1,19,-1
 -3 588 l 1,20,-1
 -58 644 l 1,21,-1
 493 644 l 1,22,-1
 548 588 l 1,0,-1
400 152 m 1,23,-1
 400 588 l 1,24,-1
 195 588 l 2,25,26
 183 588 183 588 171.5 581 c 128,-1,27
 160 574 160 574 151 563.5 c 128,-1,28
 142 553 142 553 137 540 c 128,-1,29
 132 527 132 527 132 514 c 0,30,31
 132 488 132 488 151 471 c 128,-1,32
 170 454 170 454 196 454 c 0,33,34
 253 454 253 454 286 499 c 1,35,-1
 345 440 l 1,36,37
 312 420 312 420 275.5 386 c 128,-1,38
 239 352 239 352 204 308 c 1,39,40
 336 256 336 256 400 152 c 1,41,-1
 400 152 l 1,23,-1
EndSplineSet
EndChar

StartChar: u0999
Encoding: 2457 2457 68
Width: 538
GlyphClass: 2
Flags: W
AnchorPoint: "Anchor-1" 0 0 basechar 0
AnchorPoint: "Anchor-0" 360 30 basechar 0
LayerCount: 2
Fore
SplineSet
333 20 m 0,0,1
 255 20 255 20 195 64 c 128,-1,2
 135 108 135 108 93 189 c 1,3,4
 69 243 69 243 48 322.5 c 128,-1,5
 27 402 27 402 14 499 c 1,6,-1
 42 477 l 1,7,8
 84 293 84 293 154 202 c 128,-1,9
 224 111 224 111 321 111 c 0,10,11
 377 111 377 111 420 140 c 1,12,13
 465 173 465 173 465 229 c 0,14,15
 465 262 465 262 430 300 c 1,16,17
 412 273 412 273 364 239 c 0,18,19
 340 221 340 221 321 212.5 c 128,-1,20
 302 204 302 204 290 204 c 0,21,22
 268 204 268 204 240 224 c 1,23,24
 184 269 184 269 184 345 c 1,25,-1
 188 441 l 1,26,27
 76 526 76 526 30 593 c 1,28,-1
 114 616 l 1,29,-1
 146 554 l 1,30,31
 165 520 165 520 190 497 c 1,32,33
 235 612 235 612 333 612 c 0,34,35
 438 612 438 612 438 516 c 0,36,37
 438 465 438 465 396 438 c 0,38,39
 360 415 360 415 306 415 c 0,40,41
 260 415 260 415 238 430 c 1,42,-1
 238 324 l 2,43,44
 238 283 238 283 275 283 c 0,45,46
 303 283 303 283 343 323 c 0,47,48
 358 339 358 339 370.5 356.5 c 128,-1,49
 383 374 383 374 391 391 c 1,50,51
 445 370 445 370 478 316 c 256,52,53
 511 262 511 262 511 203 c 0,54,55
 511 162 511 162 498.5 128 c 128,-1,56
 486 94 486 94 463 70 c 128,-1,57
 440 46 440 46 407 33 c 128,-1,58
 374 20 374 20 333 20 c 0,0,1
367 556 m 0,59,60
 348 556 348 556 329 549.5 c 128,-1,61
 310 543 310 543 294 531.5 c 128,-1,62
 278 520 278 520 266 504 c 128,-1,63
 254 488 254 488 248 470 c 1,64,65
 255 461 255 461 275 461 c 0,66,67
 292 461 292 461 311.5 466 c 128,-1,68
 331 471 331 471 348 479 c 0,69,70
 395 500 395 500 395 532 c 0,71,72
 395 556 395 556 367 556 c 0,59,60
EndSplineSet
EndChar

StartChar: u099A
Encoding: 2458 2458 69
Width: 468
GlyphClass: 2
Flags: W
AnchorPoint: "Anchor-1" 0 0 basechar 0
AnchorPoint: "Anchor-0" 290 60 basechar 0
LayerCount: 2
Fore
SplineSet
481 588 m 1,0,-1
 136 588 l 1,1,2
 130 505 130 505 278 460 c 1,3,4
 423 414 423 414 419 346 c 1,5,6
 419 263 419 263 341 163 c 1,7,8
 260 57 260 57 177 57 c 0,9,10
 147 57 147 57 114 93 c 1,11,12
 83 131 83 131 83 164 c 2,13,-1
 83 588 l 1,14,-1
 -3 588 l 1,15,-1
 -58 644 l 1,16,-1
 424 644 l 1,17,-1
 481 588 l 1,0,-1
329 350 m 0,18,19
 196 392 196 392 138 492 c 1,20,-1
 138 165 l 2,21,22
 138 132 138 132 163 132 c 0,23,24
 210 132 210 132 271 205 c 0,25,26
 333 278 333 278 333 325 c 0,27,28
 333 348 333 348 329 350 c 0,18,19
EndSplineSet
EndChar

StartChar: u099B
Encoding: 2459 2459 70
Width: 526
GlyphClass: 2
Flags: W
AnchorPoint: "Anchor-1" 0 5 basechar 0
AnchorPoint: "Anchor-0" 440 15 basechar 0 {14-14 1} {12-17 -1,-1,-1,-1,-1,-1}
LayerCount: 2
Fore
SplineSet
561 -84 m 1,0,1
 473 7 473 7 366 57.5 c 128,-1,2
 259 108 259 108 134 121 c 1,3,-1
 79 225 l 1,4,5
 102 217 102 217 122 213.5 c 128,-1,6
 142 210 142 210 161 210 c 0,7,8
 209 210 209 210 250.5 220 c 128,-1,9
 292 230 292 230 329 248 c 0,10,11
 424 295 424 295 424 383 c 1,12,13
 419 449 419 449 330 440 c 1,14,15
 339 374 339 374 268 317 c 1,16,17
 239 296 239 296 209.5 283 c 128,-1,18
 180 270 180 270 155 270 c 0,19,20
 139 270 139 270 123.5 275.5 c 128,-1,21
 108 281 108 281 96 291 c 128,-1,22
 84 301 84 301 76.5 314.5 c 128,-1,23
 69 328 69 328 69 343 c 2,24,-1
 69 588 l 1,25,-1
 -6 588 l 1,26,-1
 -61 644 l 1,27,-1
 475 644 l 1,28,-1
 529 588 l 1,29,-1
 121 588 l 1,30,31
 161 500 161 500 256 500 c 0,32,33
 275 500 275 500 293.5 504 c 128,-1,34
 312 508 312 508 331 508 c 0,35,36
 406 505 406 505 445 455 c 1,37,38
 480 407 480 407 480 344 c 0,39,40
 480 278 480 278 419 227 c 0,41,42
 400 210 400 210 371 191.5 c 128,-1,43
 342 173 342 173 300 152 c 1,44,45
 349 126 349 126 384 105.5 c 128,-1,46
 419 85 419 85 439 69 c 0,47,48
 462 51 462 51 491.5 22.5 c 128,-1,49
 521 -6 521 -6 554 -44 c 1,50,-1
 561 -84 l 1,0,1
254 439 m 1,51,52
 173 457 173 457 124 524 c 1,53,-1
 124 354 l 2,54,55
 124 321 124 321 144 321 c 0,56,57
 162 321 162 321 181.5 332.5 c 128,-1,58
 201 344 201 344 218 361 c 1,59,60
 235 380 235 380 245.5 400 c 128,-1,61
 256 420 256 420 254 439 c 1,51,52
EndSplineSet
EndChar

StartChar: u099C
Encoding: 2460 2460 71
Width: 686
GlyphClass: 2
Flags: W
AnchorPoint: "Anchor-1" 0 0 basechar 0
AnchorPoint: "Anchor-0" 580 60 basechar 0 {11-17 1,1,0,1,0,1,-1} {16-16 -1}
LayerCount: 2
Fore
SplineSet
700 588 m 1,0,-1
 380 588 l 1,1,2
 366 587 366 587 351.5 575.5 c 128,-1,3
 337 564 337 564 335 552 c 1,4,5
 335 538 335 538 346.5 528 c 128,-1,6
 358 518 358 518 374 510.5 c 128,-1,7
 390 503 390 503 406.5 499 c 128,-1,8
 423 495 423 495 432 495 c 0,9,10
 478 491 478 491 514 498.5 c 128,-1,11
 550 506 550 506 574 519 c 1,12,-1
 659 430 l 1,13,14
 613 385 613 385 589 319 c 128,-1,15
 565 253 565 253 565 167 c 0,16,17
 565 102 565 102 608 7 c 1,18,-1
 553 22 l 1,19,20
 533 79 533 79 521 135 c 128,-1,21
 509 191 509 191 508 254 c 1,22,23
 508 336 508 336 544 425 c 1,24,25
 455 425 455 425 400 447 c 0,26,27
 342 470 342 470 290 537 c 1,28,-1
 285 539 l 1,29,30
 271 539 271 539 256 525 c 128,-1,31
 241 511 241 511 225 485 c 0,32,33
 192 432 192 432 192 403 c 0,34,35
 192 362 192 362 236 362 c 0,36,37
 246 362 246 362 262 367 c 128,-1,38
 278 372 278 372 298 382 c 2,39,-1
 360 414 l 1,40,41
 396 398 396 398 424 349 c 0,42,43
 438 323 438 323 446 299 c 128,-1,44
 454 275 454 275 454 255 c 0,45,46
 454 193 454 193 407 144 c 1,47,48
 361 98 361 98 297 98 c 0,49,50
 152 98 152 98 88 255 c 0,51,52
 65 312 65 312 53.5 381.5 c 128,-1,53
 42 451 42 451 42 538 c 1,54,-1
 71 520 l 1,55,56
 68 496 68 496 71 461 c 0,57,58
 81 362 81 362 123 296 c 1,59,60
 153 246 153 246 191.5 219 c 128,-1,61
 230 192 230 192 277 192 c 0,62,63
 320 192 320 192 361 211 c 0,64,65
 415 235 415 235 415 273 c 0,66,67
 415 288 415 288 406.5 304.5 c 128,-1,68
 398 321 398 321 382 321 c 0,69,70
 376 321 376 321 337 307 c 1,71,72
 302 293 302 293 277 293 c 0,73,74
 221 293 221 293 184 338 c 1,75,76
 146 382 146 382 146 440 c 0,77,78
 146 474 146 474 172 519 c 1,79,80
 200 565 200 565 231 588 c 1,81,-1
 -15 588 l 1,82,-1
 -71 644 l 1,83,-1
 645 644 l 1,84,-1
 700 588 l 1,0,-1
EndSplineSet
EndChar

StartChar: u099D
Encoding: 2461 2461 72
Width: 649
GlyphClass: 2
Flags: W
AnchorPoint: "Anchor-1" 5 5 basechar 0
AnchorPoint: "Anchor-0" 405 80 basechar 0 {11-17 1,0,0,0,0,1,-1} {11-17 -1,0,0,0,0,0,-1}
LayerCount: 2
Fore
SplineSet
663 588 m 1,0,-1
 565 588 l 1,1,-1
 565 83 l 1,2,-1
 540 108 l 1,3,-1
 540 107 l 1,4,5
 529 138 529 138 517.5 164.5 c 128,-1,6
 506 191 506 191 491 213 c 128,-1,7
 476 235 476 235 456 252.5 c 128,-1,8
 436 270 436 270 409 283 c 1,9,-1
 409 15 l 1,10,-1
 385 39 l 1,11,12
 290 267 290 267 106 282 c 1,13,-1
 31 379 l 1,14,15
 103 431 103 431 185.5 477.5 c 128,-1,16
 268 524 268 524 356 556 c 1,17,-1
 356 588 l 1,18,-1
 -5 588 l 1,19,-1
 -59 644 l 1,20,-1
 409 644 l 1,21,-1
 409 348 l 1,22,23
 459 316 459 316 507 246 c 1,24,-1
 507 749 l 1,25,-1
 532 728 l 1,26,27
 530 708 530 708 534 690 c 128,-1,28
 538 672 538 672 551 656 c 1,29,30
 577 638 577 638 607 644 c 1,31,-1
 663 588 l 1,0,-1
356 164 m 1,32,-1
 356 469 l 1,33,34
 305 452 305 452 254 423.5 c 128,-1,35
 203 395 203 395 150 357 c 1,36,37
 286 294 286 294 356 164 c 1,32,-1
EndSplineSet
EndChar

StartChar: u099E
Encoding: 2462 2462 73
Width: 930
GlyphClass: 2
Flags: W
AnchorPoint: "Anchor-1" 0 -10 basechar 0
AnchorPoint: "Anchor-0" 580 55 basechar 0
LayerCount: 2
Fore
SplineSet
572 -2 m 1,0,1
 558 -2 558 -2 545 35 c 0,2,3
 529 84 529 84 513 106 c 1,4,5
 483 144 483 144 430 144 c 0,6,7
 402 144 402 144 344 135 c 0,8,9
 315 131 315 131 293.5 129.5 c 128,-1,10
 272 128 272 128 257 128 c 0,11,12
 52 128 52 128 52 339 c 1,13,14
 57 433 57 433 99 486 c 1,15,-1
 121 464 l 1,16,17
 107 441 107 441 99 410 c 128,-1,18
 91 379 91 379 91 342 c 0,19,20
 91 267 91 267 137 238 c 0,21,22
 154 228 154 228 181 222 c 128,-1,23
 208 216 208 216 243 216 c 0,24,25
 251 216 251 216 267 216 c 128,-1,26
 283 216 283 216 298 217 c 2,27,-1
 350 219 l 1,28,29
 439 219 439 219 517 152 c 1,30,-1
 517 576 l 2,31,32
 517 593 517 593 477 593 c 0,33,34
 451 593 451 593 427.5 578 c 128,-1,35
 404 563 404 563 379 534 c 1,36,37
 358 508 358 508 344 482 c 128,-1,38
 330 456 330 456 325 427 c 1,39,40
 347 430 347 430 364 430 c 0,41,42
 405 430 405 430 405 366 c 0,43,44
 405 335 405 335 382.5 317.5 c 128,-1,45
 360 300 360 300 328 300 c 0,46,47
 286 300 286 300 258.5 326 c 128,-1,48
 231 352 231 352 231 395 c 0,49,50
 231 440 231 440 250.5 483 c 128,-1,51
 270 526 270 526 307 567 c 1,52,53
 345 605 345 605 387 627 c 128,-1,54
 429 649 429 649 473 649 c 0,55,56
 500 649 500 649 537 617 c 0,57,58
 574 586 574 586 574 560 c 2,59,-1
 574 423 l 1,60,-1
 576 423 l 1,61,62
 590 474 590 474 640 526 c 1,63,64
 695 581 695 581 744 581 c 256,65,66
 793 581 793 581 829 542 c 0,67,68
 866 503 866 503 866 455 c 0,69,70
 866 397 866 397 817 345 c 1,71,72
 873 302 873 302 873 226 c 0,73,74
 873 206 873 206 869 185 c 128,-1,75
 865 164 865 164 855 146 c 128,-1,76
 845 128 845 128 827.5 116 c 128,-1,77
 810 104 810 104 782 101 c 1,78,79
 756 101 756 101 726.5 113.5 c 128,-1,80
 697 126 697 126 668 149 c 0,81,82
 613 195 613 195 574 243 c 1,83,-1
 574 -3 l 1,84,-1
 572 -2 l 1,0,1
830 244 m 0,85,86
 830 262 830 262 795 297 c 1,87,88
 752 272 752 272 734 272 c 0,89,90
 706 272 706 272 684.5 290 c 128,-1,91
 663 308 663 308 663 336 c 0,92,93
 663 361 663 361 684 378 c 128,-1,94
 705 395 705 395 731 395 c 1,95,-1
 792 380 l 1,96,97
 819 423 819 423 819 443 c 0,98,99
 819 469 819 469 798.5 485.5 c 128,-1,100
 778 502 778 502 752 502 c 0,101,102
 693 502 693 502 636 445 c 1,103,104
 577 388 577 388 577 331 c 0,105,106
 577 271 577 271 628 226 c 256,107,108
 679 181 679 181 740 181 c 0,109,110
 775 181 775 181 799 194 c 1,111,112
 813 203 813 203 821.5 215 c 128,-1,113
 830 227 830 227 830 244 c 0,85,86
EndSplineSet
EndChar

StartChar: u099F
Encoding: 2463 2463 74
Width: 493
GlyphClass: 2
Flags: W
AnchorPoint: "Anchor-1" -75 -10 basechar 0
AnchorPoint: "Anchor-0" 265 85 basechar 0 {11-17 1,1,2,1,1,1,-1} {16-17 -1,-1}
LayerCount: 2
Fore
SplineSet
132 588 m 1,0,-1
 132 197 l 1,1,2
 151 159 151 159 186 159 c 0,3,4
 236 159 236 159 289 220 c 1,5,6
 337 277 337 277 343 335 c 1,7,-1
 324 333 l 1,8,9
 297 333 297 333 274.5 352 c 128,-1,10
 252 371 252 371 252 400 c 0,11,12
 252 431 252 431 271.5 453 c 128,-1,13
 291 475 291 475 323 475 c 0,14,15
 371 475 371 475 402 428 c 0,16,17
 413 410 413 410 419.5 385.5 c 128,-1,18
 426 361 426 361 426 336 c 0,19,20
 426 253 426 253 357 172 c 1,21,22
 287 86 287 86 205 86 c 0,23,24
 152 86 152 86 120 119 c 128,-1,25
 88 152 88 152 78 212 c 1,26,-1
 78 588 l 1,27,-1
 -12 588 l 1,28,-1
 -63 644 l 1,29,-1
 362 644 l 1,30,31
 362 652 362 652 362.5 661.5 c 128,-1,32
 363 671 363 671 363 679 c 0,33,34
 364 729 364 729 293 729 c 0,35,36
 277 729 277 729 241 723 c 0,37,38
 224 721 224 721 212 720 c 128,-1,39
 200 719 200 719 191 719 c 0,40,41
 127 719 127 719 73 750 c 0,42,43
 14 783 14 783 14 844 c 0,44,45
 14 908 14 908 55 911 c 1,46,47
 55 907 55 907 56 902 c 128,-1,48
 57 897 57 897 57 892 c 1,49,50
 43 880 43 880 43 862 c 0,51,52
 43 827 43 827 72 811 c 0,53,54
 99 796 99 796 134 796 c 0,55,56
 146 796 146 796 163.5 797.5 c 128,-1,57
 181 799 181 799 204 801 c 1,58,59
 249 807 249 807 273 807 c 0,60,61
 348 807 348 807 386 763 c 1,62,63
 416 724 416 724 416 644 c 1,64,-1
 447 644 l 1,65,-1
 503 588 l 1,66,-1
 132 588 l 1,0,-1
EndSplineSet
EndChar

StartChar: u09A0
Encoding: 2464 2464 75
Width: 459
GlyphClass: 2
Flags: W
AnchorPoint: "Anchor-1" -115 5 basechar 0
AnchorPoint: "Anchor-0" 280 45 basechar 0 {12-17 1,0,0,0,0,-1} {12-17 -1,-1,-1,-1,-1,-1}
LayerCount: 2
Fore
SplineSet
468 588 m 1,0,-1
 281 588 l 1,1,2
 332 534 332 534 367 448 c 1,3,4
 386 405 386 405 394.5 366.5 c 128,-1,5
 403 328 403 328 403 293 c 0,6,7
 403 201 403 201 353 130 c 0,8,9
 295 49 295 49 209 49 c 0,10,11
 128 49 128 49 80 101 c 1,12,13
 30 153 30 153 30 233 c 0,14,15
 30 261 30 261 38 288 c 1,16,17
 72 298 72 298 104.5 319.5 c 128,-1,18
 137 341 137 341 163 370 c 0,19,20
 192 402 192 402 207.5 436 c 128,-1,21
 223 470 223 470 223 504 c 0,22,23
 223 521 223 521 219.5 541.5 c 128,-1,24
 216 562 216 562 210 588 c 1,25,-1
 -7 588 l 1,26,-1
 -65 644 l 1,27,-1
 183 644 l 1,28,-1
 118 758 l 1,29,30
 101 793 101 793 92 822 c 128,-1,31
 83 851 83 851 83 874 c 0,32,33
 83 943 83 943 143 994 c 1,34,-1
 208 938 l 1,35,36
 167 921 167 921 148.5 899.5 c 128,-1,37
 130 878 130 878 130 852 c 0,38,39
 130 806 130 806 172 739 c 0,40,41
 189 711 189 711 207.5 687.5 c 128,-1,42
 226 664 226 664 246 644 c 1,43,-1
 409 644 l 1,44,-1
 468 588 l 1,0,-1
279 514 m 1,45,46
 281 502 281 502 282 490 c 128,-1,47
 283 478 283 478 283 466 c 0,48,49
 283 426 283 426 270.5 388 c 128,-1,50
 258 350 258 350 236 320 c 1,51,52
 211 289 211 289 146 243 c 1,53,54
 99 208 99 208 99 186 c 0,55,56
 99 98 99 98 185 98 c 0,57,58
 259 98 259 98 309 170 c 1,59,60
 352 234 352 234 352 312 c 0,61,62
 352 430 352 430 281 516 c 1,63,-1
 279 514 l 1,45,46
EndSplineSet
EndChar

StartChar: u09A1
Encoding: 2465 2465 76
Width: 600
GlyphClass: 2
Flags: W
AnchorPoint: "Anchor-1" 45 -5 basechar 0
AnchorPoint: "Anchor-0" 400 85 basechar 0
LayerCount: 2
Fore
SplineSet
287 588 m 1,0,-1
 287 361 l 1,1,2
 315 357 315 357 335.5 369.5 c 128,-1,3
 356 382 356 382 373 402.5 c 128,-1,4
 390 423 390 423 405.5 445.5 c 128,-1,5
 421 468 421 468 439 484 c 1,6,7
 464 470 464 470 483 449 c 128,-1,8
 502 428 502 428 514.5 402.5 c 128,-1,9
 527 377 527 377 534 348.5 c 128,-1,10
 541 320 541 320 541 292 c 0,11,12
 541 196 541 196 488 135 c 0,13,14
 433 71 433 71 337 71 c 0,15,16
 87 71 87 71 42 550 c 1,17,-1
 79 532 l 1,18,19
 85 468 85 468 101 407 c 128,-1,20
 117 346 117 346 142 299 c 0,21,22
 209 170 209 170 330 170 c 1,23,24
 374 169 374 169 413.5 190.5 c 128,-1,25
 453 212 453 212 476.5 245 c 128,-1,26
 500 278 500 278 501 318 c 128,-1,27
 502 358 502 358 468 393 c 1,28,29
 460 369 460 369 443.5 349 c 128,-1,30
 427 329 427 329 405.5 314 c 128,-1,31
 384 299 384 299 359.5 289 c 128,-1,32
 335 279 335 279 311 276 c 1,33,34
 233 276 233 276 233 396 c 2,35,-1
 233 588 l 1,36,-1
 -3 588 l 1,37,-1
 -59 644 l 1,38,-1
 551 644 l 1,39,-1
 605 588 l 1,40,-1
 287 588 l 1,0,-1
EndSplineSet
EndChar

StartChar: u09A2
Encoding: 2466 2466 77
Width: 477
GlyphClass: 2
Flags: W
AnchorPoint: "Anchor-1" -90 -5 basechar 0
AnchorPoint: "Anchor-0" 280 85 basechar 0
LayerCount: 2
Fore
SplineSet
132 588 m 1,0,-1
 132 197 l 1,1,2
 151 159 151 159 186 159 c 0,3,4
 236 159 236 159 289 220 c 1,5,6
 337 277 337 277 343 335 c 1,7,-1
 324 333 l 1,8,9
 311 334 311 334 298 339 c 128,-1,10
 285 344 285 344 275 353 c 128,-1,11
 265 362 265 362 258.5 374 c 128,-1,12
 252 386 252 386 252 400 c 0,13,14
 252 431 252 431 271.5 453 c 128,-1,15
 291 475 291 475 323 475 c 0,16,17
 371 475 371 475 402 428 c 0,18,19
 413 410 413 410 419.5 385.5 c 128,-1,20
 426 361 426 361 426 336 c 0,21,22
 426 253 426 253 357 172 c 1,23,24
 287 86 287 86 205 86 c 0,25,26
 152 86 152 86 120 119 c 128,-1,27
 88 152 88 152 78 212 c 1,28,-1
 78 588 l 1,29,-1
 -5 588 l 1,30,-1
 -59 644 l 1,31,-1
 440 644 l 1,32,-1
 497 588 l 1,33,-1
 132 588 l 1,0,-1
EndSplineSet
EndChar

StartChar: u09A3
Encoding: 2467 2467 78
Width: 510
GlyphClass: 2
Flags: W
AnchorPoint: "Anchor-1" 0 0 basechar 0
AnchorPoint: "Anchor-0" 420 80 basechar 0
LayerCount: 2
Fore
SplineSet
426 588 m 1,0,-1
 426 4 l 1,1,-1
 364 67 l 1,2,-1
 364 385 l 2,3,4
 364 455 364 455 323 508 c 0,5,6
 278 566 278 566 211 566 c 0,7,8
 166 566 166 566 134 531 c 1,9,10
 103 499 103 499 103 451 c 0,11,12
 103 435 103 435 106.5 419.5 c 128,-1,13
 110 404 110 404 115 392 c 0,14,15
 130 355 130 355 160 355 c 0,16,17
 165 355 165 355 166.5 356 c 128,-1,18
 168 357 168 357 165 362 c 1,19,-1
 165 361 l 1,20,21
 163 368 163 368 161.5 375 c 128,-1,22
 160 382 160 382 160 391 c 0,23,24
 163 435 163 435 214 437 c 1,25,26
 241 437 241 437 260.5 416 c 128,-1,27
 280 395 280 395 280 369 c 0,28,29
 280 351 280 351 271.5 336 c 128,-1,30
 263 321 263 321 249.5 310.5 c 128,-1,31
 236 300 236 300 218 294.5 c 128,-1,32
 200 289 200 289 182 289 c 0,33,34
 116 289 116 289 71 337 c 0,35,36
 26 386 26 386 26 451 c 0,37,38
 26 492 26 492 39.5 526.5 c 128,-1,39
 53 561 53 561 76 589 c 1,40,41
 127 646 127 646 207 646 c 0,42,43
 266 646 266 646 313 598 c 0,44,45
 353 556 353 556 370 493 c 1,46,-1
 372 493 l 1,47,-1
 372 753 l 1,48,-1
 402 727 l 1,49,50
 402 683 402 683 418.5 663 c 128,-1,51
 435 643 435 643 469 644 c 1,52,-1
 525 588 l 1,53,-1
 426 588 l 1,0,-1
EndSplineSet
EndChar

StartChar: u09A4
Encoding: 2468 2468 79
Width: 649
GlyphClass: 2
Flags: W
AnchorPoint: "Anchor-1" 85 -5 basechar 0
AnchorPoint: "Anchor-0" 470 80 basechar 0
LayerCount: 2
Fore
SplineSet
663 588 m 1,0,-1
 -4 588 l 1,1,-1
 -63 644 l 1,2,-1
 604 644 l 1,3,-1
 663 588 l 1,0,-1
593 293 m 0,4,5
 593 252 593 252 575.5 216 c 128,-1,6
 558 180 558 180 528 151 c 1,7,8
 462 94 462 94 379 94 c 0,9,10
 154 94 154 94 28 551 c 1,11,-1
 60 539 l 1,12,13
 95 456 95 456 124.5 396.5 c 128,-1,14
 154 337 154 337 173 310 c 0,15,16
 260 183 260 183 382 183 c 0,17,18
 441 183 441 183 498 229 c 1,19,20
 546 276 546 276 546 334 c 0,21,22
 546 381 546 381 520 417 c 0,23,24
 489 460 489 460 447 460 c 0,25,26
 433 460 433 460 406 453 c 1,27,28
 429 424 429 424 429 387 c 0,29,30
 429 306 429 306 340 306 c 0,31,32
 296 306 296 306 270 338 c 128,-1,33
 244 370 244 370 244 416 c 0,34,35
 244 469 244 469 287 503 c 0,36,37
 325 534 325 534 379 534 c 0,38,39
 425 534 425 534 464 514.5 c 128,-1,40
 503 495 503 495 534 460 c 1,41,42
 563 425 563 425 578 382.5 c 128,-1,43
 593 340 593 340 593 293 c 0,4,5
EndSplineSet
EndChar

StartChar: u09A5
Encoding: 2469 2469 80
Width: 554
GlyphClass: 2
Flags: W
AnchorPoint: "Anchor-1" 0 0 basechar 0
AnchorPoint: "Anchor-0" 470 45 basechar 0 {11-28 1,0,0,0,0,0,0,0,0,0,0,0,-1,0,-1,0,0,1} {}
LayerCount: 2
Fore
SplineSet
566 588 m 1,0,-1
 468 588 l 1,1,-1
 468 0 l 1,2,3
 417 69 417 69 383 110 c 128,-1,4
 349 151 349 151 333 166 c 0,5,6
 293 201 293 201 239 219 c 128,-1,7
 185 237 185 237 131 238 c 1,8,-1
 41 356 l 1,9,10
 64 352 64 352 84 353 c 128,-1,11
 104 354 104 354 141 366 c 128,-1,12
 178 378 178 378 216 401 c 0,13,14
 259 427 259 427 280.5 454.5 c 128,-1,15
 302 482 302 482 302 514 c 0,16,17
 302 544 302 544 280.5 565 c 128,-1,18
 259 586 259 586 229 586 c 0,19,20
 207 586 207 586 173 568 c 0,21,22
 139 549 139 549 129 531 c 1,23,24
 160 497 160 497 160 474 c 0,25,26
 160 462 160 462 154 451 c 128,-1,27
 148 440 148 440 138 432 c 128,-1,28
 128 424 128 424 115 419.5 c 128,-1,29
 102 415 102 415 89 415 c 0,30,31
 56 415 56 415 35.5 437.5 c 128,-1,32
 15 460 15 460 15 493 c 0,33,34
 15 560 15 560 81 604 c 0,35,36
 141 644 141 644 209 644 c 0,37,38
 271 644 271 644 313 597 c 1,39,40
 357 551 357 551 357 489 c 0,41,42
 357 384 357 384 218 299 c 1,43,44
 258 276 258 276 285.5 258.5 c 128,-1,45
 313 241 313 241 328 229 c 0,46,47
 357 205 357 205 378.5 182 c 128,-1,48
 400 159 400 159 412 135 c 1,49,-1
 414 135 l 1,50,-1
 414 748 l 1,51,-1
 442 714 l 1,52,-1
 448 678 l 2,53,54
 450 668 450 668 455 659.5 c 128,-1,55
 460 651 460 651 469 644 c 1,56,-1
 509 644 l 1,57,-1
 566 588 l 1,0,-1
EndSplineSet
EndChar

StartChar: u09A6
Encoding: 2470 2470 81
Width: 532
GlyphClass: 2
Flags: W
AnchorPoint: "Anchor-1" 5 0 basechar 0
AnchorPoint: "Anchor-0" 425 40 basechar 0 {10-12 1,1,1} {18-24 -1,0,0,0,0,0,1}
LayerCount: 2
Fore
SplineSet
121 588 m 1,0,-1
 121 327 l 1,1,2
 151 360 151 360 185.5 388.5 c 128,-1,3
 220 417 220 417 256 440.5 c 128,-1,4
 292 464 292 464 326 481.5 c 128,-1,5
 360 499 360 499 388 510 c 1,6,-1
 480 440 l 1,7,8
 442 366 442 366 422 298 c 128,-1,9
 402 230 402 230 402 167 c 256,10,11
 402 104 402 104 424 -5 c 1,12,-1
 385 14 l 1,13,14
 368 93 368 93 359.5 154 c 128,-1,15
 351 215 351 215 351 254 c 0,16,17
 351 327 351 327 370 402 c 1,18,19
 295 372 295 372 233.5 313.5 c 128,-1,20
 172 255 172 255 136 178 c 1,21,-1
 60 257 l 1,22,-1
 60 588 l 1,23,-1
 1 588 l 1,24,-1
 -56 644 l 1,25,-1
 496 644 l 1,26,-1
 552 588 l 1,27,-1
 121 588 l 1,0,-1
EndSplineSet
EndChar

StartChar: u09A7
Encoding: 2471 2471 82
Width: 519
GlyphClass: 2
Flags: W
AnchorPoint: "Anchor-1" 5 5 basechar 0
AnchorPoint: "Anchor-0" 430 40 basechar 0 {10-16 1,0,0,0,1,1,-1} {10-13 -1,0,0,-1}
LayerCount: 2
Fore
SplineSet
434 588 m 1,0,-1
 434 -14 l 1,1,-1
 402 31 l 1,2,-1
 402 30 l 1,3,4
 391 49 391 49 380 69 c 128,-1,5
 369 89 369 89 355 109 c 0,6,7
 310 175 310 175 265 208 c 1,8,9
 236 228 236 228 198 240 c 128,-1,10
 160 252 160 252 114 257 c 1,11,-1
 47 348 l 1,12,-1
 195 458 l 1,13,14
 142 458 142 458 108 483 c 1,15,16
 91 497 91 497 81 516 c 128,-1,17
 71 535 71 535 71 559 c 0,18,19
 71 599 71 599 98.5 625 c 128,-1,20
 126 651 126 651 166 651 c 0,21,22
 234 651 234 651 236 605 c 0,23,24
 237 582 237 582 224 569 c 128,-1,25
 211 556 211 556 190 556 c 0,26,27
 180 556 180 556 169.5 560 c 128,-1,28
 159 564 159 564 147 574 c 1,29,30
 137 561 137 561 137 542 c 0,31,32
 137 515 137 515 161 498 c 128,-1,33
 185 481 185 481 223 481 c 0,34,35
 234 481 234 481 378 567 c 1,36,-1
 378 644 l 1,37,-1
 482 644 l 1,38,-1
 538 588 l 1,39,-1
 434 588 l 1,0,-1
378 464 m 1,40,41
 327 445 327 445 274.5 412 c 128,-1,42
 222 379 222 379 168 331 c 1,43,44
 305 265 305 265 378 145 c 1,45,-1
 378 464 l 1,40,41
EndSplineSet
EndChar

StartChar: u09A8
Encoding: 2472 2472 83
Width: 529
GlyphClass: 2
Flags: W
AnchorPoint: "Anchor-1" 5 -10 basechar 0
AnchorPoint: "Anchor-0" 435 25 basechar 0
LayerCount: 2
Fore
SplineSet
443 588 m 1,0,-1
 443 -14 l 1,1,-1
 399 14 l 1,2,-1
 403 73 l 1,3,4
 404 168 404 168 359 271 c 1,5,6
 292 388 292 388 203 388 c 1,7,8
 192 387 192 387 187 383 c 1,9,10
 224 334 224 334 224 312 c 0,11,12
 224 276 224 276 203 251.5 c 128,-1,13
 182 227 182 227 147 227 c 0,14,15
 39 227 39 227 39 332 c 0,16,17
 39 389 39 389 79 426 c 1,18,19
 122 464 122 464 177 464 c 0,20,21
 295 464 295 464 385 278 c 1,22,-1
 387 278 l 1,23,-1
 387 588 l 1,24,-1
 -7 588 l 1,25,-1
 -62 644 l 1,26,-1
 483 644 l 1,27,-1
 541 588 l 1,28,-1
 443 588 l 1,0,-1
EndSplineSet
EndChar

StartChar: u09AA
Encoding: 2474 2474 84
Width: 612
GlyphClass: 2
Flags: W
AnchorPoint: "Anchor-1" 85 0 basechar 0
AnchorPoint: "Anchor-0" 525 65 basechar 0
LayerCount: 2
Fore
SplineSet
531 588 m 1,0,-1
 531 4 l 1,1,-1
 471 62 l 1,2,-1
 479 361 l 2,3,4
 479 374 479 374 473 389.5 c 128,-1,5
 467 405 467 405 456 423 c 0,6,7
 445 440 445 440 434 452 c 128,-1,8
 423 464 423 464 413 472 c 1,9,-1
 216 274 l 1,10,-1
 136 303 l 1,11,12
 194 358 194 358 194 390 c 0,13,14
 194 448 194 448 160 448 c 0,15,16
 152 448 152 448 143 445 c 128,-1,17
 134 442 134 442 120 437 c 1,18,19
 95 426 95 426 80 426 c 0,20,21
 63 426 63 426 49.5 440 c 128,-1,22
 36 454 36 454 36 471 c 0,23,24
 36 501 36 501 57.5 531 c 128,-1,25
 79 561 79 561 118 587 c 0,26,27
 154 610 154 610 190 622 c 128,-1,28
 226 634 226 634 258 634 c 0,29,30
 381 634 381 634 487 453 c 1,31,-1
 489 454 l 1,32,33
 486 527 486 527 482 601 c 128,-1,34
 478 675 478 675 475 749 c 1,35,-1
 500 728 l 1,36,37
 505 683 505 683 509 670 c 1,38,39
 521 642 521 642 552 642 c 0,40,41
 560 642 560 642 570 644 c 1,42,-1
 626 588 l 1,43,-1
 531 588 l 1,0,-1
365 531 m 1,44,45
 326 574 326 574 277 574 c 0,46,47
 184 574 184 574 146 498 c 1,48,49
 191 498 191 498 211.5 468 c 128,-1,50
 232 438 232 438 227 393 c 1,51,-1
 365 531 l 1,44,45
EndSplineSet
EndChar

StartChar: u09AB
Encoding: 2475 2475 85
Width: 669
GlyphClass: 2
Flags: W
AnchorPoint: "Anchor-1" 5 -20 basechar 0
AnchorPoint: "Anchor-0" 425 40 basechar 0
LayerCount: 2
Fore
SplineSet
157 588 m 1,0,1
 203 554 203 554 243 513 c 128,-1,2
 283 472 283 472 313 430 c 1,3,-1
 171 312 l 1,4,5
 304 268 304 268 375 147 c 1,6,-1
 375 541 l 1,7,8
 379 542 379 542 387.5 542.5 c 128,-1,9
 396 543 396 543 405 544 c 128,-1,10
 414 545 414 545 421.5 545.5 c 128,-1,11
 429 546 429 546 432 546 c 0,12,13
 509 547 509 547 568 499 c 0,14,15
 632 447 632 447 632 356 c 0,16,17
 632 255 632 255 534 255 c 0,18,19
 509 255 509 255 489.5 274.5 c 128,-1,20
 470 294 470 294 470 320 c 0,21,22
 470 345 470 345 488 361.5 c 128,-1,23
 506 378 506 378 530 378 c 0,24,25
 564 378 564 378 586 353 c 1,26,-1
 592 370 l 1,27,28
 592 461 592 461 453 461 c 1,29,-1
 430 459 l 1,30,-1
 430 3 l 1,31,-1
 396 41 l 1,32,-1
 396 40 l 1,33,34
 388 92 388 92 301 182 c 1,35,36
 267 209 267 209 221 223 c 128,-1,37
 175 237 175 237 121 239 c 1,38,-1
 56 334 l 1,39,40
 84 364 84 364 125.5 401 c 128,-1,41
 167 438 167 438 218 480 c 1,42,43
 198 496 198 496 176.5 508 c 128,-1,44
 155 520 155 520 129 528 c 0,45,46
 97 539 97 539 72.5 546 c 128,-1,47
 48 553 48 553 39 558 c 0,48,49
 -7 580 -7 580 -63 644 c 1,50,-1
 624 644 l 1,51,-1
 679 588 l 1,52,-1
 157 588 l 1,0,1
EndSplineSet
EndChar

StartChar: u09AC
Encoding: 2476 2476 86
Width: 512
GlyphClass: 2
Flags: W
AnchorPoint: "Anchor-1" 0 -5 basechar 0
AnchorPoint: "Anchor-0" 420 50 basechar 0
LayerCount: 2
Fore
SplineSet
425 588 m 1,0,-1
 425 0 l 1,1,-1
 394 37 l 1,2,3
 391 46 391 46 386.5 55.5 c 128,-1,4
 382 65 382 65 369.5 89 c 128,-1,5
 357 113 357 113 334 141.5 c 128,-1,6
 311 170 311 170 291 189 c 0,7,8
 219 255 219 255 100 267 c 1,9,-1
 27 371 l 1,10,11
 195 488 195 488 371 547 c 1,12,-1
 371 588 l 1,13,-1
 -12 588 l 1,14,-1
 -67 644 l 1,15,-1
 486 644 l 1,16,-1
 540 588 l 1,17,-1
 425 588 l 1,0,-1
371 456 m 1,18,19
 317 436 317 436 261.5 408 c 128,-1,20
 206 380 206 380 145 339 c 1,21,22
 296 276 296 276 371 147 c 1,23,-1
 371 456 l 1,18,19
EndSplineSet
EndChar

StartChar: u09AD
Encoding: 2477 2477 87
Width: 615
GlyphClass: 2
Flags: W
AnchorPoint: "Anchor-1" 50 25 basechar 0
AnchorPoint: "Anchor-0" 410 80 basechar 0
LayerCount: 2
Fore
SplineSet
-3 588 m 1,0,-1
 -60 644 l 1,1,-1
 565 644 l 1,2,-1
 623 588 l 1,3,-1
 -3 588 l 1,0,-1
577 335 m 0,4,5
 577 284 577 284 563 241.5 c 128,-1,6
 549 199 549 199 520 164 c 0,7,8
 458 89 458 89 359 89 c 0,9,10
 221 89 221 89 126 250 c 0,11,12
 103 288 103 288 75 359.5 c 128,-1,13
 47 431 47 431 14 531 c 1,14,-1
 48 520 l 1,15,16
 68 454 68 454 97.5 395.5 c 128,-1,17
 127 337 127 337 157 295 c 1,18,19
 201 241 201 241 255 211.5 c 128,-1,20
 309 182 309 182 370 182 c 0,21,22
 432 182 432 182 477 226 c 0,23,24
 523 270 523 270 523 333 c 0,25,26
 523 416 523 416 497 416 c 1,27,28
 421 324 421 324 316 324 c 0,29,30
 264 324 264 324 227 356 c 1,31,32
 186 388 186 388 186 441 c 0,33,34
 186 530 186 530 278 530 c 0,35,36
 307 530 307 530 328.5 510.5 c 128,-1,37
 350 491 350 491 350 462 c 0,38,39
 350 437 350 437 325 403 c 1,40,41
 363 402 363 402 406 446 c 1,42,43
 423 465 423 465 435.5 485 c 128,-1,44
 448 505 448 505 461 526 c 1,45,46
 481 524 481 524 502 505.5 c 128,-1,47
 523 487 523 487 544 452 c 1,48,49
 577 385 577 385 577 335 c 0,4,5
EndSplineSet
EndChar

StartChar: u09AE
Encoding: 2478 2478 88
Width: 540
GlyphClass: 2
Flags: W
AnchorPoint: "Anchor-1" 0 -15 basechar 0
AnchorPoint: "Anchor-0" 450 65 basechar 0
LayerCount: 2
Fore
SplineSet
552 588 m 1,0,-1
 451 588 l 1,1,-1
 451 0 l 1,2,-1
 429 22 l 1,3,4
 384 192 384 192 273 228 c 1,5,6
 248 196 248 196 222 185 c 128,-1,7
 196 174 196 174 174 174 c 0,8,9
 134 174 134 174 106.5 200.5 c 128,-1,10
 79 227 79 227 79 268 c 0,11,12
 79 315 79 315 114 343 c 0,13,14
 144 367 144 367 195 367 c 0,15,16
 222 367 222 367 239 356 c 1,17,18
 239 427 239 427 208 458 c 0,19,20
 188 477 188 477 131 493 c 0,21,22
 101 502 101 502 79.5 511.5 c 128,-1,23
 58 521 58 521 44 530 c 0,24,25
 23 544 23 544 -8 586 c 1,26,-1
 -67 644 l 1,27,-1
 496 644 l 1,28,-1
 552 588 l 1,0,-1
398 184 m 1,29,-1
 398 588 l 1,30,-1
 126 588 l 1,31,32
 213 517 213 517 246 471 c 1,33,34
 299 403 299 403 299 325 c 0,35,36
 299 318 299 318 299 312 c 128,-1,37
 299 306 299 306 298 298 c 1,38,39
 330 271 330 271 354.5 243 c 128,-1,40
 379 215 379 215 396 184 c 1,41,-1
 398 184 l 1,29,-1
EndSplineSet
EndChar

StartChar: u09AF
Encoding: 2479 2479 89
Width: 505
GlyphClass: 2
Flags: W
AnchorPoint: "Anchor-1" -85 150 basechar 0
AnchorPoint: "Anchor-0" 425 35 basechar 0
LayerCount: 2
Fore
SplineSet
428 588 m 1,0,-1
 428 -2 l 1,1,-1
 391 41 l 1,2,-1
 391 40 l 1,3,4
 379 73 379 73 356.5 114 c 128,-1,5
 334 155 334 155 299 185 c 1,6,7
 236 234 236 234 118 240 c 1,8,-1
 40 336 l 1,9,10
 78 373 78 373 123 409.5 c 128,-1,11
 168 446 168 446 213 475 c 1,12,13
 188 494 188 494 127 520 c 0,14,15
 99 531 99 531 74 543.5 c 128,-1,16
 49 556 49 556 27 570 c 1,17,18
 13 581 13 581 -8 599.5 c 128,-1,19
 -29 618 -29 618 -57 644 c 1,20,-1
 460 644 l 1,21,-1
 517 588 l 1,22,-1
 428 588 l 1,0,-1
373 588 m 1,23,-1
 150 588 l 1,24,-1
 150 587 l 1,25,26
 207 557 207 557 297 454 c 1,27,28
 267 425 267 425 232.5 390.5 c 128,-1,29
 198 356 198 356 159 314 c 1,30,31
 296 268 296 268 373 148 c 1,32,-1
 373 588 l 1,23,-1
EndSplineSet
EndChar

StartChar: u09B0
Encoding: 2480 2480 90
Width: 518
GlyphClass: 2
Flags: W
AnchorPoint: "Anchor-1" 0 -10 basechar 0
AnchorPoint: "Anchor-0" 430 25 basechar 0
LayerCount: 2
Fore
SplineSet
425 588 m 1,0,-1
 425 0 l 1,1,-1
 394 37 l 1,2,-1
 394 36 l 1,3,4
 378 76 378 76 367.5 94.5 c 128,-1,5
 357 113 357 113 334 141.5 c 128,-1,6
 311 170 311 170 291 189 c 0,7,8
 219 255 219 255 100 267 c 1,9,-1
 101 267 l 1,10,-1
 27 371 l 1,11,12
 195 488 195 488 371 547 c 1,13,-1
 371 588 l 1,14,-1
 -12 588 l 1,15,-1
 -67 644 l 1,16,-1
 484 644 l 1,17,-1
 540 588 l 1,18,-1
 425 588 l 1,0,-1
371 456 m 1,19,20
 317 436 317 436 261.5 408 c 128,-1,21
 206 380 206 380 145 339 c 1,22,23
 296 276 296 276 371 147 c 1,24,-1
 371 456 l 1,19,20
134 108 m 0,25,26
 134 133 134 133 151 149.5 c 128,-1,27
 168 166 168 166 192 166 c 256,28,29
 216 166 216 166 233 149.5 c 128,-1,30
 250 133 250 133 250 108 c 0,31,32
 250 85 250 85 233 67.5 c 128,-1,33
 216 50 216 50 192 50 c 256,34,35
 168 50 168 50 151 67.5 c 128,-1,36
 134 85 134 85 134 108 c 0,25,26
EndSplineSet
EndChar

StartChar: u09B2
Encoding: 2482 2482 91
Width: 588
GlyphClass: 2
Flags: W
AnchorPoint: "Anchor-1" 0 -5 basechar 0
AnchorPoint: "Anchor-0" 495 40 basechar 0
LayerCount: 2
Fore
SplineSet
504 588 m 1,0,-1
 504 -3 l 1,1,-1
 446 51 l 1,2,-1
 446 371 l 2,3,4
 446 401 446 401 424.5 423.5 c 128,-1,5
 403 446 403 446 373 446 c 0,6,7
 325 446 325 446 325 388 c 0,8,9
 325 375 325 375 330 353 c 1,10,-1
 307 344 l 1,11,12
 299 389 299 389 262 418 c 0,13,14
 226 447 226 447 178 447 c 0,15,16
 157 447 157 447 138 438.5 c 128,-1,17
 119 430 119 430 104.5 416 c 128,-1,18
 90 402 90 402 81.5 382.5 c 128,-1,19
 73 363 73 363 73 342 c 0,20,21
 73 274 73 274 154 262 c 1,22,23
 136 289 136 289 136 309 c 0,24,25
 136 333 136 333 155.5 351.5 c 128,-1,26
 175 370 175 370 199 370 c 1,27,28
 276 365 276 365 276 287 c 1,29,30
 275 254 275 254 252 233 c 128,-1,31
 229 212 229 212 185 209 c 1,32,33
 149 209 149 209 119 220.5 c 128,-1,34
 89 232 89 232 67.5 253 c 128,-1,35
 46 274 46 274 34 303.5 c 128,-1,36
 22 333 22 333 22 369 c 0,37,38
 22 427 22 427 54 476 c 0,39,40
 90 530 90 530 146 530 c 0,41,42
 218 530 218 530 275 456 c 1,43,44
 275 482 275 482 298 504 c 0,45,46
 321 527 321 527 344 527 c 0,47,48
 414 527 414 527 448 434 c 1,49,-1
 448 588 l 1,50,-1
 -10 588 l 1,51,-1
 -68 644 l 1,52,-1
 551 644 l 1,53,-1
 608 588 l 1,54,-1
 504 588 l 1,0,-1
EndSplineSet
EndChar

StartChar: u09B6
Encoding: 2486 2486 92
Width: 601
GlyphClass: 2
Flags: W
AnchorPoint: "Anchor-1" 0 0 basechar 0
AnchorPoint: "Anchor-0" 505 35 basechar 0
LayerCount: 2
Fore
SplineSet
518 588 m 1,0,-1
 518 -1 l 1,1,-1
 460 56 l 1,2,-1
 464 415 l 2,3,4
 464 450 464 450 426 502 c 1,5,6
 388 552 388 552 354 552 c 0,7,8
 332 552 332 552 311.5 538.5 c 128,-1,9
 291 525 291 525 291 505 c 1,10,11
 379 442 379 442 379 401 c 0,12,13
 379 365 379 365 359.5 342.5 c 128,-1,14
 340 320 340 320 304 312 c 1,15,16
 276 313 276 313 252.5 330.5 c 128,-1,17
 229 348 229 348 218 381 c 1,18,19
 192 311 192 311 126 311 c 0,20,21
 96 311 96 311 76.5 335.5 c 128,-1,22
 57 360 57 360 57 391 c 0,23,24
 57 411 57 411 64.5 430.5 c 128,-1,25
 72 450 72 450 85.5 467 c 128,-1,26
 99 484 99 484 117 497 c 128,-1,27
 135 510 135 510 155 517 c 1,28,29
 115 588 115 588 61 588.5 c 128,-1,30
 7 589 7 589 -3 588 c 1,31,-1
 -59 644 l 1,32,-1
 61 644 l 2,33,34
 105 644 105 644 144 611 c 256,35,36
 183 578 183 578 192 531 c 1,37,38
 243 645 243 645 333 645 c 0,39,40
 364 645 364 645 414 586 c 0,41,42
 460 531 460 531 471 496 c 1,43,-1
 474 496 l 1,44,-1
 464 744 l 1,45,-1
 498 712 l 1,46,47
 507 649 507 649 556 644 c 1,48,-1
 612 588 l 1,49,-1
 518 588 l 1,0,-1
EndSplineSet
EndChar

StartChar: u09B7
Encoding: 2487 2487 93
Width: 515
GlyphClass: 2
Flags: W
AnchorPoint: "Anchor-1" 0 0 basechar 0
AnchorPoint: "Anchor-0" 430 25 basechar 0
LayerCount: 2
Fore
SplineSet
433 588 m 1,0,-1
 433 4 l 1,1,2
 413 26 413 26 396.5 46.5 c 128,-1,3
 380 67 380 67 366 89 c 0,4,5
 335 136 335 136 312 165.5 c 128,-1,6
 289 195 289 195 272 206 c 0,7,8
 248 223 248 223 210 232.5 c 128,-1,9
 172 242 172 242 124 244 c 1,10,11
 106 268 106 268 85.5 293.5 c 128,-1,12
 65 319 65 319 47 343 c 1,13,-1
 212 483 l 1,14,15
 179 514 179 514 125 523 c 0,16,17
 111 525 111 525 92.5 529.5 c 128,-1,18
 74 534 74 534 54 542 c 0,19,20
 37 549 37 549 10.5 574.5 c 128,-1,21
 -16 600 -16 600 -54 644 c 1,22,-1
 463 644 l 1,23,-1
 520 588 l 1,24,-1
 433 588 l 1,0,-1
378 588 m 1,25,-1
 148 588 l 1,26,27
 283 492 283 492 378 400 c 1,28,-1
 378 588 l 1,25,-1
377 343 m 1,29,30
 348 370 348 370 325 390 c 128,-1,31
 302 410 302 410 282 424 c 1,32,33
 261 410 261 410 232.5 384 c 128,-1,34
 204 358 204 358 168 317 c 1,35,36
 287 273 287 273 377 146 c 1,37,-1
 377 343 l 1,29,30
EndSplineSet
EndChar

StartChar: u09B8
Encoding: 2488 2488 94
Width: 591
GlyphClass: 2
Flags: W
AnchorPoint: "Anchor-1" 5 -5 basechar 0
AnchorPoint: "Anchor-0" 500 10 basechar 0
LayerCount: 2
Fore
SplineSet
500 588 m 1,0,-1
 500 -2 l 1,1,2
 486 14 486 14 472.5 29.5 c 128,-1,3
 459 45 459 45 446 61 c 1,4,5
 447 91 447 91 448 111.5 c 128,-1,6
 449 132 449 132 449.5 145.5 c 128,-1,7
 450 159 450 159 450 168 c 128,-1,8
 450 177 450 177 450 185 c 0,9,10
 450 252 450 252 437 302 c 128,-1,11
 424 352 424 352 402.5 376 c 128,-1,12
 381 400 381 400 352 394.5 c 128,-1,13
 323 389 323 389 292 345 c 1,14,15
 264 298 264 298 243.5 270.5 c 128,-1,16
 223 243 223 243 208 229 c 128,-1,17
 193 215 193 215 182.5 211.5 c 128,-1,18
 172 208 172 208 163 208 c 0,19,20
 137 208 137 208 116.5 220.5 c 128,-1,21
 96 233 96 233 80 251.5 c 128,-1,22
 64 270 64 270 52 291.5 c 128,-1,23
 40 313 40 313 30 332 c 1,24,-1
 67 366 l 1,25,26
 70 356 70 356 74.5 343 c 128,-1,27
 79 330 79 330 86 318.5 c 128,-1,28
 93 307 93 307 102.5 299 c 128,-1,29
 112 291 112 291 124 291 c 0,30,31
 129 291 129 291 136 295 c 128,-1,32
 143 299 143 299 154.5 311.5 c 128,-1,33
 166 324 166 324 184.5 346.5 c 128,-1,34
 203 369 203 369 231 406 c 1,35,36
 226 446 226 446 217.5 468.5 c 128,-1,37
 209 491 209 491 193.5 503.5 c 128,-1,38
 178 516 178 516 154.5 522.5 c 128,-1,39
 131 529 131 529 96 537 c 0,40,41
 76 542 76 542 55.5 552.5 c 128,-1,42
 35 563 35 563 13 580 c 0,43,44
 5 586 5 586 -12 602 c 128,-1,45
 -29 618 -29 618 -55 644 c 1,46,-1
 549 644 l 1,47,-1
 603 588 l 1,48,-1
 500 588 l 1,0,-1
446 588 m 1,49,-1
 182 588 l 1,50,51
 227 548 227 548 244.5 514 c 128,-1,52
 262 480 262 480 263 437 c 1,53,54
 291 468 291 468 314.5 477.5 c 128,-1,55
 338 487 338 487 359 479 c 128,-1,56
 380 471 380 471 401 449 c 128,-1,57
 422 427 422 427 446 396 c 1,58,-1
 446 588 l 1,49,-1
EndSplineSet
EndChar

StartChar: u09B9
Encoding: 2489 2489 95
Width: 504
GlyphClass: 2
Flags: W
AnchorPoint: "Anchor-1" 5 0 basechar 0
AnchorPoint: "Anchor-0" 380 50 basechar 0
LayerCount: 2
Fore
SplineSet
544 588 m 1,0,-1
 248 588 l 1,1,2
 256 577 256 577 264 566.5 c 128,-1,3
 272 556 272 556 279 547 c 1,4,5
 365 517 365 517 393 483 c 1,6,7
 438 439 438 439 438 367 c 0,8,9
 438 301 438 301 383 256 c 0,10,11
 343 222 343 222 258 199 c 1,12,13
 315 165 315 165 379.5 110 c 128,-1,14
 444 55 444 55 519 -21 c 1,15,-1
 519 -20 l 1,16,-1
 532 -79 l 1,17,18
 492 -34 492 -34 444 5.5 c 128,-1,19
 396 45 396 45 336 80 c 1,20,21
 279 112 279 112 218 136 c 128,-1,22
 157 160 157 160 96 175 c 1,23,-1
 29 315 l 1,24,25
 98 277 98 277 186 269 c 0,26,27
 251 264 251 264 301 290 c 1,28,29
 370 324 370 324 367 381 c 0,30,31
 367 399 367 399 361.5 416 c 128,-1,32
 356 433 356 433 345.5 446 c 128,-1,33
 335 459 335 459 321 467 c 128,-1,34
 307 475 307 475 296 475.5 c 128,-1,35
 285 476 285 476 276.5 474.5 c 128,-1,36
 268 473 268 473 260 469 c 1,37,38
 260 429 260 429 226 396 c 0,39,40
 191 363 191 363 152 363 c 0,41,42
 127 363 127 363 106 378.5 c 128,-1,43
 85 394 85 394 85 419 c 0,44,45
 85 466 85 466 125 503 c 0,46,47
 164 539 164 539 216 543 c 1,48,49
 216 559 216 559 178 588 c 1,50,-1
 -22 588 l 1,51,-1
 -78 644 l 1,52,-1
 488 644 l 1,53,-1
 544 588 l 1,0,-1
EndSplineSet
EndChar

StartChar: u09BC
Encoding: 2492 2492 96
Width: 0
GlyphClass: 4
Flags: W
AnchorPoint: "Anchor-1" -170 -50 mark 0
LayerCount: 2
Fore
SplineSet
54 -56 m 256,0,1
 77 -56 77 -56 93.5 -72 c 128,-1,2
 110 -88 110 -88 110 -111 c 256,3,4
 110 -134 110 -134 93.5 -150 c 128,-1,5
 77 -166 77 -166 54 -166 c 256,6,7
 31 -166 31 -166 15 -150 c 128,-1,8
 -1 -134 -1 -134 -1 -111 c 256,9,10
 -1 -88 -1 -88 15 -72 c 128,-1,11
 31 -56 31 -56 54 -56 c 256,0,1
EndSplineSet
EndChar

StartChar: u09BD
Encoding: 2493 2493 97
Width: 523
GlyphClass: 2
Flags: W
LayerCount: 2
Fore
SplineSet
281 547 m 0,0,1
 347 534 347 534 393 483 c 1,2,3
 438 439 438 439 438 367 c 0,4,5
 438 301 438 301 390 261 c 128,-1,6
 342 221 342 221 258 199 c 1,7,8
 315 165 315 165 379.5 110 c 128,-1,9
 444 55 444 55 519 -21 c 1,10,-1
 532 -79 l 1,11,12
 492 -34 492 -34 444 5.5 c 128,-1,13
 396 45 396 45 336 80 c 1,14,15
 279 112 279 112 218 136 c 128,-1,16
 157 160 157 160 96 175 c 1,17,-1
 29 315 l 1,18,19
 100 276 100 276 186 269 c 0,20,21
 251 264 251 264 301 290 c 1,22,23
 370 324 370 324 367 381 c 0,24,25
 367 399 367 399 361.5 416 c 128,-1,26
 356 433 356 433 345.5 446 c 128,-1,27
 335 459 335 459 321 467 c 128,-1,28
 307 475 307 475 290.5 474.5 c 128,-1,29
 274 474 274 474 260 469 c 1,30,31
 260 429 260 429 226 396 c 0,32,33
 191 363 191 363 152 363 c 0,34,35
 127 363 127 363 106 378.5 c 128,-1,36
 85 394 85 394 85 419 c 0,37,38
 85 468 85 468 124 501 c 0,39,40
 143 517 143 517 166.5 528.5 c 128,-1,41
 190 540 190 540 214 545 c 0,42,43
 227 547 227 547 247 548 c 128,-1,44
 267 549 267 549 281 547 c 0,0,1
EndSplineSet
EndChar

StartChar: u09BE
Encoding: 2494 2494 98
Width: 207
GlyphClass: 2
Flags: W
LayerCount: 2
Fore
SplineSet
122 588 m 1,0,-1
 122 3 l 1,1,-1
 68 59 l 1,2,-1
 68 474 l 2,3,4
 68 500 68 500 58 521 c 128,-1,5
 48 542 48 542 30.5 556.5 c 128,-1,6
 13 571 13 571 -9.5 579.5 c 128,-1,7
 -32 588 -32 588 -56 588 c 1,8,-1
 -112 644 l 1,9,-1
 -48 644 l 2,10,11
 3 644 3 644 31 621.5 c 128,-1,12
 59 599 59 599 76 547 c 1,13,14
 76 564 76 564 75 589 c 128,-1,15
 74 614 74 614 71 648 c 0,16,17
 69 681 69 681 68 705.5 c 128,-1,18
 67 730 67 730 67 747 c 1,19,-1
 87 730 l 1,20,21
 97 670 97 670 122 644 c 1,22,-1
 172 644 l 1,23,-1
 227 588 l 1,24,-1
 122 588 l 1,0,-1
EndSplineSet
EndChar

StartChar: u09BF
Encoding: 2495 2495 99
Width: 207
GlyphClass: 2
Flags: W
LayerCount: 2
Fore
SplineSet
586 712 m 1,0,1
 559 736 559 736 526 759.5 c 128,-1,2
 493 783 493 783 451 806 c 1,3,4
 413 828 413 828 372.5 838 c 128,-1,5
 332 848 332 848 289 848 c 0,6,7
 226 848 226 848 160 804 c 0,8,9
 87 756 87 756 83 697 c 1,10,-1
 105 644 l 1,11,-1
 166 644 l 1,12,-1
 223 588 l 1,13,-1
 125 588 l 1,14,-1
 125 3 l 1,15,-1
 68 59 l 1,16,-1
 68 588 l 1,17,-1
 -17 588 l 1,18,-1
 -72 644 l 1,19,-1
 77 644 l 1,20,-1
 38 681 l 2,21,22
 16 703 16 703 16 726 c 0,23,24
 16 794 16 794 92 854 c 1,25,26
 166 910 166 910 235 910 c 0,27,28
 413 910 413 910 575 742 c 1,29,-1
 586 712 l 1,0,1
EndSplineSet
EndChar

StartChar: u09C0
Encoding: 2496 2496 100
Width: 208
GlyphClass: 2
Flags: W
LayerCount: 2
Fore
SplineSet
126 588 m 1,0,-1
 126 3 l 1,1,-1
 71 59 l 1,2,-1
 71 588 l 1,3,-1
 -11 588 l 1,4,-1
 -72 644 l 1,5,-1
 71 644 l 1,6,7
 30 881 30 881 -250 881 c 0,8,9
 -273 881 -273 881 -296 878.5 c 128,-1,10
 -319 876 -319 876 -342 870 c 0,11,12
 -410 855 -410 855 -410 824 c 0,13,14
 -410 799 -410 799 -324 794 c 0,15,16
 -209 788 -209 788 -171 777 c 0,17,18
 -126 763 -126 763 -104 738 c 128,-1,19
 -82 713 -82 713 -82 672 c 0,20,21
 -82 668 -82 668 -86 638 c 1,22,-1
 -142 638 l 1,23,24
 -118 655 -118 655 -118 678 c 0,25,26
 -118 710 -118 710 -203 719 c 1,27,28
 -268 727 -268 727 -306.5 732 c 128,-1,29
 -345 737 -345 737 -356 739 c 1,30,31
 -394 751 -394 751 -416 773 c 128,-1,32
 -438 795 -438 795 -438 826 c 0,33,34
 -438 853 -438 853 -417 874.5 c 128,-1,35
 -396 896 -396 896 -358 913 c 1,36,37
 -328 924 -328 924 -294 931.5 c 128,-1,38
 -260 939 -260 939 -228 939 c 0,39,40
 45 939 45 939 126 644 c 1,41,-1
 180 644 l 1,42,-1
 235 588 l 1,43,-1
 126 588 l 1,0,-1
EndSplineSet
EndChar

StartChar: u09C1
Encoding: 2497 2497 101
Width: 0
GlyphClass: 4
Flags: W
AnchorPoint: "Anchor-0" -30 0 mark 0
LayerCount: 2
Fore
SplineSet
100 -268 m 1,0,1
 85 -248 85 -248 67 -227.5 c 128,-1,2
 49 -207 49 -207 29.5 -188.5 c 128,-1,3
 10 -170 10 -170 -9.5 -154.5 c 128,-1,4
 -29 -139 -29 -139 -46 -129 c 1,5,6
 -90 -191 -90 -191 -160 -196 c 1,7,8
 -203 -196 -203 -196 -236 -173 c 1,9,10
 -268 -149 -268 -149 -268 -110 c 0,11,12
 -268 -90 -268 -90 -259.5 -73.5 c 128,-1,13
 -251 -57 -251 -57 -237 -45 c 128,-1,14
 -223 -33 -223 -33 -204.5 -26.5 c 128,-1,15
 -186 -20 -186 -20 -166 -20 c 0,16,17
 -134 -20 -134 -20 -84 -50 c 1,18,19
 -77 -35 -77 -35 -78.5 -4.5 c 128,-1,20
 -80 26 -80 26 -87 63 c 1,21,-1
 -40 32 l 1,22,23
 -29 8 -29 8 -27.5 -24 c 128,-1,24
 -26 -56 -26 -56 -28 -80 c 1,25,26
 -6 -99 -6 -99 17.5 -122.5 c 128,-1,27
 41 -146 41 -146 61 -169 c 0,28,29
 78 -189 78 -189 85.5 -200.5 c 128,-1,30
 93 -212 93 -212 100 -224 c 1,31,-1
 100 -268 l 1,0,1
-154 -73 m 1,32,33
 -210 -74 -210 -74 -212 -107 c 1,34,35
 -212 -133 -212 -133 -184 -138 c 1,36,37
 -160 -141 -160 -141 -134 -129 c 1,38,39
 -111 -114 -111 -114 -103 -98 c 1,40,41
 -113 -87 -113 -87 -125.5 -81.5 c 128,-1,42
 -138 -76 -138 -76 -154 -73 c 1,32,33
EndSplineSet
EndChar

StartChar: u09C2
Encoding: 2498 2498 102
Width: 0
GlyphClass: 4
Flags: W
AnchorPoint: "Anchor-0" -35 40 mark 0
LayerCount: 2
Fore
SplineSet
160 -290 m 1,0,-1
 0 -154 l 1,1,2
 -54 -190 -54 -190 -111 -189 c 0,3,4
 -153 -189 -153 -189 -184 -158 c 0,5,6
 -216 -127 -216 -127 -216 -86 c 0,7,8
 -216 -63 -216 -63 -207.5 -44.5 c 128,-1,9
 -199 -26 -199 -26 -181 -12 c 0,10,11
 -149 14 -149 14 -103 14 c 0,12,13
 -85 14 -85 14 -69 10 c 1,14,-1
 -66 78 l 1,15,16
 -55 67 -55 67 -45.5 53.5 c 128,-1,17
 -36 40 -36 40 -29 29 c 1,18,19
 -27 18 -27 18 -35 -39 c 1,20,21
 -52 -33 -52 -33 -67 -33 c 0,22,23
 -87 -33 -87 -33 -97.5 -33.5 c 128,-1,24
 -108 -34 -108 -34 -124 -40 c 1,25,26
 -159 -60 -159 -60 -156 -92 c 0,27,28
 -155 -103 -155 -103 -145 -113 c 128,-1,29
 -135 -123 -135 -123 -111 -124 c 1,30,31
 -93 -127 -93 -127 -65.5 -120.5 c 128,-1,32
 -38 -114 -38 -114 -6 -88 c 1,33,-1
 161 -232 l 1,34,-1
 160 -290 l 1,0,-1
EndSplineSet
EndChar

StartChar: u09C3
Encoding: 2499 2499 103
Width: 0
GlyphClass: 4
Flags: W
AnchorPoint: "Anchor-0" -45 20 mark 0
LayerCount: 2
Fore
SplineSet
69 -312 m 1,0,-1
 -266 -111 l 1,1,-1
 -98 12 l 1,2,-1
 -79 67 l 1,3,-1
 -28 -24 l 1,4,-1
 -153 -123 l 1,5,-1
 50 -254 l 1,6,-1
 69 -312 l 1,0,-1
EndSplineSet
EndChar

StartChar: u09C4
Encoding: 2500 2500 104
Width: 0
GlyphClass: 4
Flags: W
LayerCount: 2
Fore
SplineSet
54 -402 m 1,0,1
 30 -375 30 -375 -240 -244 c 1,2,-1
 -134 -182 l 1,3,4
 -159 -169 -159 -169 -187.5 -155.5 c 128,-1,5
 -216 -142 -216 -142 -248 -127 c 1,6,-1
 -81 -28 l 1,7,-1
 -62 17 l 1,8,9
 -51 -1 -51 -1 -38.5 -19 c 128,-1,10
 -26 -37 -26 -37 -15 -55 c 1,11,-1
 -142 -126 l 1,12,-1
 15 -217 l 1,13,14
 26 -231 26 -231 34.5 -247.5 c 128,-1,15
 43 -264 43 -264 45 -281 c 1,16,17
 24 -262 24 -262 -77 -211 c 1,18,-1
 -135 -243 l 1,19,-1
 22 -335 l 1,20,21
 33 -349 33 -349 42 -367 c 128,-1,22
 51 -385 51 -385 54 -402 c 1,0,1
EndSplineSet
EndChar

StartChar: u09C7
Encoding: 2503 2503 105
Width: 326
GlyphClass: 2
Flags: W
LayerCount: 2
Fore
SplineSet
353 588 m 1,0,1
 290 573 290 573 244 541 c 128,-1,2
 198 509 198 509 166 461 c 0,3,4
 137 416 137 416 122 361 c 128,-1,5
 107 306 107 306 107 238 c 1,6,7
 108 178 108 178 139 130 c 1,8,9
 193 55 193 55 244 70 c 1,10,11
 225 82 225 82 216.5 98 c 128,-1,12
 208 114 208 114 208 131 c 0,13,14
 208 157 208 157 229.5 175 c 128,-1,15
 251 193 251 193 277 193 c 0,16,17
 305 193 305 193 325 170.5 c 128,-1,18
 345 148 345 148 345 113 c 0,19,20
 345 93 345 93 337 76 c 128,-1,21
 329 59 329 59 315 46.5 c 128,-1,22
 301 34 301 34 282.5 27 c 128,-1,23
 264 20 264 20 244 20 c 0,24,25
 146 20 146 20 94 118 c 1,26,27
 50 198 50 198 50 303 c 0,28,29
 50 449 50 449 169 588 c 1,30,-1
 -17 588 l 1,31,-1
 -73 644 l 1,32,-1
 298 644 l 1,33,-1
 353 588 l 1,0,1
EndSplineSet
Substitution2: "'init' Initial Forms lookup 0 subtable" u09C7.init
EndChar

StartChar: u09C8
Encoding: 2504 2504 106
Width: 324
GlyphClass: 2
Flags: W
LayerCount: 2
Fore
SplineSet
356 588 m 1,0,1
 293 573 293 573 246 541 c 128,-1,2
 199 509 199 509 167 461 c 0,3,4
 107 371 107 371 107 238 c 0,5,6
 107 180 107 180 139 130 c 1,7,8
 175 65 175 65 228 65 c 2,9,-1
 232 65 l 2,10,11
 240 65 240 65 244 70 c 1,12,13
 225 82 225 82 216.5 98 c 128,-1,14
 208 114 208 114 208 131 c 0,15,16
 208 157 208 157 229.5 175 c 128,-1,17
 251 193 251 193 277 193 c 0,18,19
 305 193 305 193 325 170.5 c 128,-1,20
 345 148 345 148 345 113 c 0,21,22
 345 93 345 93 337 76 c 128,-1,23
 329 59 329 59 315 46.5 c 128,-1,24
 301 34 301 34 282.5 27 c 128,-1,25
 264 20 264 20 244 20 c 0,26,27
 146 20 146 20 94 118 c 1,28,29
 50 198 50 198 50 303 c 0,30,31
 50 449 50 449 169 588 c 1,32,-1
 -17 588 l 1,33,-1
 -73 644 l 1,34,-1
 202 644 l 1,35,-1
 218 667 l 1,36,37
 218 687 218 687 204 701 c 128,-1,38
 190 715 190 715 165 723 c 0,39,40
 139 731 139 731 112.5 737.5 c 128,-1,41
 86 744 86 744 61 752 c 1,42,43
 35 765 35 765 20.5 788 c 128,-1,44
 6 811 6 811 6 844 c 0,45,46
 6 856 6 856 12 869 c 128,-1,47
 18 882 18 882 29 897 c 1,48,-1
 48 878 l 1,49,-1
 35 855 l 1,50,51
 35 808 35 808 99 802 c 0,52,53
 193 794 193 794 215 782 c 0,54,55
 244 765 244 765 260 730.5 c 128,-1,56
 276 696 276 696 276 644 c 1,57,-1
 332 644 l 1,58,-1
 387 588 l 1,59,-1
 356 588 l 1,0,1
EndSplineSet
Substitution2: "'init' Initial Forms lookup 0 subtable" u09C8.init
EndChar

StartChar: u09CB
Encoding: 2507 2507 107
Width: 648
GlyphClass: 2
Flags: W
LayerCount: 2
Fore
SplineSet
561 588 m 1,0,-1
 561 -17 l 1,1,2
 548 -3 548 -3 534 12 c 128,-1,3
 520 27 520 27 507 41 c 1,4,-1
 507 474 l 2,5,6
 507 530 507 530 451 561 c 1,7,8
 406 588 406 588 348 588 c 0,9,10
 301 588 301 588 243 543 c 0,11,12
 190 502 190 502 163 460 c 0,13,14
 107 369 107 369 107 238 c 0,15,16
 107 210 107 210 115.5 181 c 128,-1,17
 124 152 124 152 139 125 c 0,18,19
 176 58 176 58 228 58 c 1,20,21
 229 59 229 59 232 60 c 0,22,23
 234 61 234 61 237 61.5 c 128,-1,24
 240 62 240 62 244 64 c 1,25,26
 208 94 208 94 208 127 c 0,27,28
 208 152 208 152 229.5 170 c 128,-1,29
 251 188 251 188 277 188 c 0,30,31
 305 188 305 188 325 164.5 c 128,-1,32
 345 141 345 141 345 113 c 0,33,34
 345 93 345 93 337 76 c 128,-1,35
 329 59 329 59 315 46.5 c 128,-1,36
 301 34 301 34 282.5 27 c 128,-1,37
 264 20 264 20 244 20 c 0,38,39
 146 20 146 20 94 118 c 1,40,41
 50 198 50 198 50 303 c 0,42,43
 50 449 50 449 169 588 c 1,44,-1
 -7 588 l 1,45,-1
 -63 644 l 1,46,-1
 373 644 l 2,47,48
 444 644 444 644 479 602 c 1,49,50
 492 588 492 588 503 562 c 128,-1,51
 514 536 514 536 528 497 c 1,52,53
 505 594 505 594 505 745 c 1,54,-1
 526 729 l 1,55,56
 534 670 534 670 561 644 c 1,57,-1
 601 644 l 1,58,-1
 655 588 l 1,59,-1
 561 588 l 1,0,-1
EndSplineSet
EndChar

StartChar: u09CC
Encoding: 2508 2508 108
Width: 633
GlyphClass: 2
Flags: W
LayerCount: 2
Fore
SplineSet
529 588 m 1,0,-1
 529 -15 l 1,1,-1
 467 46 l 1,2,-1
 467 588 l 1,3,-1
 346 588 l 2,4,5
 301 588 301 588 243 543 c 0,6,7
 190 502 190 502 163 460 c 0,8,9
 107 369 107 369 107 238 c 0,10,11
 107 210 107 210 115.5 181 c 128,-1,12
 124 152 124 152 139 125 c 0,13,14
 176 58 176 58 228 58 c 1,15,16
 229 59 229 59 232 60 c 0,17,18
 234 61 234 61 237 61.5 c 128,-1,19
 240 62 240 62 244 64 c 1,20,21
 208 94 208 94 208 127 c 0,22,23
 208 152 208 152 229.5 170 c 128,-1,24
 251 188 251 188 277 188 c 0,25,26
 305 188 305 188 325 164.5 c 128,-1,27
 345 141 345 141 345 113 c 0,28,29
 345 93 345 93 337 76 c 128,-1,30
 329 59 329 59 315 46.5 c 128,-1,31
 301 34 301 34 282.5 27 c 128,-1,32
 264 20 264 20 244 20 c 0,33,34
 146 20 146 20 94 118 c 1,35,36
 50 198 50 198 50 303 c 0,37,38
 50 449 50 449 169 588 c 1,39,-1
 -7 588 l 1,40,-1
 -63 644 l 1,41,-1
 467 644 l 1,42,-1
 482 682 l 1,43,44
 482 738 482 738 376 738 c 0,45,46
 354 738 354 738 323 735 c 1,47,-1
 286 733 l 1,48,49
 200 733 200 733 144 758 c 1,50,51
 67 790 67 790 67 862 c 0,52,53
 67 877 67 877 75.5 896 c 128,-1,54
 84 915 84 915 100 938 c 1,55,-1
 122 919 l 1,56,57
 102 903 102 903 102 878 c 0,58,59
 102 806 102 806 227 806 c 0,60,61
 239 806 239 806 255.5 807 c 128,-1,62
 272 808 272 808 295 811 c 0,63,64
 318 813 318 813 335 814.5 c 128,-1,65
 352 816 352 816 363 816 c 0,66,67
 537 816 537 816 537 686 c 0,68,69
 537 675 537 675 535 665 c 128,-1,70
 533 655 533 655 531 644 c 1,71,-1
 586 644 l 1,72,-1
 642 588 l 1,73,-1
 529 588 l 1,0,-1
EndSplineSet
EndChar

StartChar: u09CD
Encoding: 2509 2509 109
Width: 0
GlyphClass: 4
Flags: W
LayerCount: 2
Fore
SplineSet
-28 -222 m 1,0,-1
 -205 -82 l 1,1,-1
 -205 -7 l 1,2,-1
 -27 -175 l 1,3,-1
 -28 -222 l 1,0,-1
EndSplineSet
EndChar

StartChar: u09D7
Encoding: 2519 2519 110
Width: 243
GlyphClass: 2
Flags: W
LayerCount: 2
Fore
SplineSet
151 588 m 1,0,-1
 151 -13 l 1,1,-1
 91 48 l 1,2,-1
 91 588 l 1,3,-1
 -3 588 l 1,4,-1
 -59 644 l 1,5,-1
 91 644 l 1,6,7
 104 664 104 664 105 682 c 1,8,9
 105 738 105 738 -1 738 c 0,10,11
 -24 738 -24 738 -46 735.5 c 128,-1,12
 -68 733 -68 733 -91 733 c 0,13,14
 -175 732 -175 732 -232 758 c 1,15,16
 -310 791 -310 791 -310 862 c 0,17,18
 -310 877 -310 877 -302 896 c 128,-1,19
 -294 915 -294 915 -277 938 c 1,20,-1
 -255 919 l 1,21,22
 -275 903 -275 903 -275 878 c 0,23,24
 -275 806 -275 806 -150 806 c 0,25,26
 -138 806 -138 806 -121 807 c 128,-1,27
 -104 808 -104 808 -81 811 c 128,-1,28
 -58 814 -58 814 -41 815 c 128,-1,29
 -24 816 -24 816 -13 816 c 0,30,31
 160 816 160 816 160 686 c 0,32,33
 160 675 160 675 158.5 665 c 128,-1,34
 157 655 157 655 154 644 c 1,35,-1
 203 644 l 1,36,-1
 259 588 l 1,37,-1
 151 588 l 1,0,-1
EndSplineSet
EndChar

StartChar: u09DC
Encoding: 2524 2524 111
Width: 597
GlyphClass: 2
Flags: W
AnchorPoint: "Anchor-1" 0 -170 basechar 0 {11-11 -1} {11-11 -1}
AnchorPoint: "Anchor-0" 360 -90 basechar 0
LayerCount: 2
Fore
SplineSet
268 -61 m 0,0,1
 268 -33 268 -33 287.5 -13.5 c 128,-1,2
 307 6 307 6 335 6 c 256,3,4
 363 6 363 6 382.5 -13.5 c 128,-1,5
 402 -33 402 -33 402 -61 c 0,6,7
 402 -90 402 -90 382.5 -109 c 128,-1,8
 363 -128 363 -128 335 -128 c 256,9,10
 307 -128 307 -128 287.5 -109 c 128,-1,11
 268 -90 268 -90 268 -61 c 0,0,1
287 588 m 1,12,-1
 287 361 l 1,13,14
 315 357 315 357 335.5 369.5 c 128,-1,15
 356 382 356 382 373 402.5 c 128,-1,16
 390 423 390 423 405.5 445.5 c 128,-1,17
 421 468 421 468 439 484 c 1,18,19
 464 470 464 470 483 449 c 128,-1,20
 502 428 502 428 514.5 402.5 c 128,-1,21
 527 377 527 377 534 348.5 c 128,-1,22
 541 320 541 320 541 292 c 0,23,24
 541 196 541 196 488 135 c 0,25,26
 433 71 433 71 337 71 c 0,27,28
 87 71 87 71 42 550 c 1,29,-1
 79 532 l 1,30,31
 85 468 85 468 101 407 c 128,-1,32
 117 346 117 346 142 299 c 0,33,34
 209 170 209 170 330 170 c 1,35,36
 374 169 374 169 413.5 190.5 c 128,-1,37
 453 212 453 212 476.5 245 c 128,-1,38
 500 278 500 278 501 318 c 128,-1,39
 502 358 502 358 468 393 c 1,40,41
 460 369 460 369 443.5 349 c 128,-1,42
 427 329 427 329 405.5 314 c 128,-1,43
 384 299 384 299 359.5 289 c 128,-1,44
 335 279 335 279 311 276 c 1,45,46
 233 276 233 276 233 396 c 2,47,-1
 233 588 l 1,48,-1
 -3 588 l 1,49,-1
 -59 644 l 1,50,-1
 551 644 l 1,51,-1
 605 588 l 1,52,-1
 287 588 l 1,12,-1
EndSplineSet
Ligature2: "'nukt' Nukta Forms lookup 1 subtable" u09A1 u09BC
EndChar

StartChar: u09DD
Encoding: 2525 2525 112
Width: 478
GlyphClass: 2
Flags: W
AnchorPoint: "Anchor-1" -5 -145 basechar 0
AnchorPoint: "Anchor-0" 270 -85 basechar 0
LayerCount: 2
Fore
SplineSet
148 588 m 1,0,-1
 148 211 l 2,1,2
 148 173 148 173 176 173 c 0,3,4
 223 173 223 173 276 237 c 0,5,6
 299 265 299 265 313.5 293.5 c 128,-1,7
 328 322 328 322 330 348 c 1,8,9
 313 342 313 342 297 344.5 c 128,-1,10
 281 347 281 347 268.5 355.5 c 128,-1,11
 256 364 256 364 248 378 c 128,-1,12
 240 392 240 392 240 408 c 0,13,14
 239 442 239 442 258.5 464.5 c 128,-1,15
 278 487 278 487 310 487 c 0,16,17
 332 487 332 487 351.5 476.5 c 128,-1,18
 371 466 371 466 384.5 449 c 128,-1,19
 398 432 398 432 406 411 c 128,-1,20
 414 390 414 390 414 370 c 0,21,22
 414 278 414 278 351 193 c 1,23,24
 286 101 286 101 196 101 c 0,25,26
 89 101 89 101 89 260 c 2,27,-1
 89 588 l 1,28,-1
 -5 588 l 1,29,-1
 -59 644 l 1,30,-1
 430 644 l 1,31,-1
 486 588 l 1,32,-1
 148 588 l 1,0,-1
143 -36 m 0,33,34
 143 -8 143 -8 162.5 11.5 c 128,-1,35
 182 31 182 31 210 31 c 0,36,37
 239 31 239 31 258 11.5 c 128,-1,38
 277 -8 277 -8 277 -36 c 0,39,40
 277 -63 277 -63 258 -83 c 128,-1,41
 239 -103 239 -103 210 -103 c 0,42,43
 182 -103 182 -103 162.5 -83 c 128,-1,44
 143 -63 143 -63 143 -36 c 0,33,34
EndSplineSet
Ligature2: "'nukt' Nukta Forms lookup 1 subtable" u09A2 u09BC
EndChar

StartChar: u09DF
Encoding: 2527 2527 113
Width: 514
GlyphClass: 2
Flags: W
AnchorPoint: "Anchor-1" 0 -20 basechar 0
AnchorPoint: "Anchor-0" 420 25 basechar 0
LayerCount: 2
Fore
SplineSet
429 588 m 1,0,-1
 429 -7 l 1,1,2
 406 10 406 10 367 79 c 0,3,4
 325 152 325 152 286 186 c 1,5,6
 222 236 222 236 120 241 c 1,7,-1
 45 338 l 1,8,9
 90 381 90 381 133.5 420 c 128,-1,10
 177 459 177 459 214 486 c 1,11,12
 204 497 204 497 175 511 c 128,-1,13
 146 525 146 525 98 543 c 1,14,15
 -15 576 -15 576 -57 644 c 1,16,-1
 462 644 l 1,17,-1
 520 588 l 1,18,-1
 429 588 l 1,0,-1
374 588 m 1,19,-1
 159 588 l 1,20,21
 185 572 185 572 221 537 c 128,-1,22
 257 502 257 502 299 451 c 1,23,24
 265 419 265 419 231 384.5 c 128,-1,25
 197 350 197 350 162 312 c 1,26,27
 300 264 300 264 372 142 c 1,28,-1
 374 142 l 1,29,-1
 374 588 l 1,19,-1
140 92 m 0,30,31
 140 116 140 116 157 133 c 128,-1,32
 174 150 174 150 197 150 c 0,33,34
 221 150 221 150 238 133 c 128,-1,35
 255 116 255 116 255 92 c 0,36,37
 255 69 255 69 238 52 c 128,-1,38
 221 35 221 35 197 35 c 0,39,40
 174 35 174 35 157 52 c 128,-1,41
 140 69 140 69 140 92 c 0,30,31
EndSplineSet
Ligature2: "'nukt' Nukta Forms lookup 1 subtable" u09AF u09BC
EndChar

StartChar: u09E0
Encoding: 2528 2528 114
Width: 690
GlyphClass: 2
Flags: W
LayerCount: 2
Fore
SplineSet
586 588 m 1,0,-1
 586 124 l 1,1,-1
 570 143 l 1,2,3
 557 260 557 260 437 323 c 1,4,-1
 437 48 l 1,5,-1
 412 87 l 1,6,-1
 285 -6 l 1,7,8
 339 -44 339 -44 368.5 -64 c 128,-1,9
 398 -84 398 -84 430.5 -112 c 128,-1,10
 463 -140 463 -140 469 -203 c 1,11,12
 452 -179 452 -179 418.5 -152 c 128,-1,13
 385 -125 385 -125 336 -93 c 1,14,-1
 181 -2 l 1,15,-1
 372 148 l 1,16,17
 330 206 330 206 272.5 245 c 128,-1,18
 215 284 215 284 142 307 c 1,19,-1
 143 307 l 1,20,21
 128 327 128 327 113 349.5 c 128,-1,22
 98 372 98 372 83 393 c 1,23,24
 126 425 126 425 192 464 c 128,-1,25
 258 503 258 503 346 548 c 1,26,27
 313 594 313 594 268 597 c 1,28,29
 251 563 251 563 201 542 c 1,30,31
 154 521 154 521 113 521 c 0,32,33
 77 521 77 521 48 542 c 1,34,35
 18 567 18 567 18 602 c 0,36,37
 18 665 18 665 80 665 c 0,38,39
 127 665 127 665 127 608 c 1,40,41
 165 612 165 612 197 634 c 128,-1,42
 229 656 229 656 250 688 c 1,43,44
 288 666 288 666 322 634 c 128,-1,45
 356 602 356 602 379 562 c 1,46,-1
 381 562 l 1,47,-1
 381 757 l 1,48,-1
 437 702 l 1,49,-1
 437 392 l 1,50,51
 500 354 500 354 529 302 c 1,52,-1
 531 302 l 1,53,-1
 531 752 l 1,54,-1
 585 698 l 1,55,-1
 585 644 l 1,56,-1
 644 644 l 1,57,-1
 700 588 l 1,58,-1
 586 588 l 1,0,-1
382 475 m 1,59,60
 333 450 333 450 290 423.5 c 128,-1,61
 247 397 247 397 209 369 c 1,62,63
 307 316 307 316 382 213 c 1,64,-1
 382 475 l 1,59,60
EndSplineSet
EndChar

StartChar: u09E1
Encoding: 2529 2529 115
Width: 600
GlyphClass: 2
Flags: W
LayerCount: 2
Fore
SplineSet
468 -32 m 2,0,1
 479 -42 479 -42 491.5 -53.5 c 128,-1,2
 504 -65 504 -65 515 -79 c 128,-1,3
 526 -93 526 -93 534 -110.5 c 128,-1,4
 542 -128 542 -128 544 -150 c 0,5,6
 547 -186 547 -186 528 -213 c 128,-1,7
 509 -240 509 -240 478.5 -257.5 c 128,-1,8
 448 -275 448 -275 412.5 -283.5 c 128,-1,9
 377 -292 377 -292 349 -293 c 0,10,11
 344 -293 344 -293 341.5 -289 c 128,-1,12
 339 -285 339 -285 341 -280 c 0,13,14
 346 -266 346 -266 346.5 -266 c 128,-1,15
 347 -266 347 -266 349 -263 c 1,16,-1
 349 -264 l 1,17,-1
 353 -258 l 1,18,-1
 360 -247 l 2,19,20
 371 -229 371 -229 382 -208.5 c 128,-1,21
 393 -188 393 -188 393 -168 c 0,22,23
 393 -156 393 -156 378 -139 c 1,24,25
 373 -135 373 -135 363 -131 c 128,-1,26
 353 -127 353 -127 342 -127 c 256,27,28
 331 -127 331 -127 320 -132 c 128,-1,29
 309 -137 309 -137 304 -148 c 0,30,31
 301 -154 301 -154 304 -156 c 128,-1,32
 307 -158 307 -158 312 -160 c 1,33,-1
 310 -160 l 1,34,-1
 315 -160 l 1,35,36
 327 -164 327 -164 339 -170 c 128,-1,37
 351 -176 351 -176 351 -195 c 0,38,39
 351 -202 351 -202 349.5 -209.5 c 128,-1,40
 348 -217 348 -217 343 -228 c 1,41,42
 334 -239 334 -239 323 -245 c 128,-1,43
 312 -251 312 -251 301 -251 c 0,44,45
 278 -251 278 -251 262 -233 c 1,46,47
 247 -220 247 -220 243 -198.5 c 128,-1,48
 239 -177 239 -177 240 -164 c 0,49,50
 241 -152 241 -152 247.5 -137.5 c 128,-1,51
 254 -123 254 -123 265.5 -110 c 128,-1,52
 277 -97 277 -97 292 -87 c 128,-1,53
 307 -77 307 -77 325 -74 c 1,54,55
 348 -73 348 -73 369 -78.5 c 128,-1,56
 390 -84 390 -84 405.5 -96.5 c 128,-1,57
 421 -109 421 -109 430.5 -127 c 128,-1,58
 440 -145 440 -145 440 -168 c 256,59,60
 440 -191 440 -191 433 -212 c 1,61,62
 445 -204 445 -204 456 -193.5 c 128,-1,63
 467 -183 467 -183 477 -173 c 0,64,65
 483 -167 483 -167 486.5 -160.5 c 128,-1,66
 490 -154 490 -154 490 -144 c 0,67,68
 490 -131 490 -131 476.5 -112.5 c 128,-1,69
 463 -94 463 -94 440 -79 c 2,70,-1
 387 -42 l 2,71,72
 370 -30 370 -30 352.5 -17 c 128,-1,73
 335 -4 335 -4 321 10 c 128,-1,74
 307 24 307 24 298 39 c 128,-1,75
 289 54 289 54 289 71 c 0,76,77
 289 98 289 98 326 120 c 1,78,79
 331 121 331 121 336.5 121 c 128,-1,80
 342 121 342 121 349 121 c 0,81,82
 363 121 363 121 375.5 115.5 c 128,-1,83
 388 110 388 110 388 95 c 0,84,85
 388 84 388 84 371 64 c 0,86,87
 364 57 364 57 379.5 42 c 128,-1,88
 395 27 395 27 417 10 c 1,89,-1
 428 0 l 1,90,-1
 457 -23 l 1,91,-1
 468 -32 l 2,0,1
434 431 m 2,92,93
 452 416 452 416 472.5 397.5 c 128,-1,94
 493 379 493 379 511 356 c 128,-1,95
 529 333 529 333 542 305 c 128,-1,96
 555 277 555 277 558 243 c 0,97,98
 562 204 562 204 549 172.5 c 128,-1,99
 536 141 536 141 511 116.5 c 128,-1,100
 486 92 486 92 452.5 73.5 c 128,-1,101
 419 55 419 55 383 42.5 c 128,-1,102
 347 30 347 30 310.5 24 c 128,-1,103
 274 18 274 18 244 18 c 1,104,105
 252 33 252 33 266 53 c 1,106,107
 277 71 277 71 288.5 90.5 c 128,-1,108
 300 110 300 110 310 130.5 c 128,-1,109
 320 151 320 151 326 171 c 128,-1,110
 332 191 332 191 332 211 c 0,111,112
 332 245 332 245 305 272 c 0,113,114
 294 282 294 282 274.5 290 c 128,-1,115
 255 298 255 298 232 298 c 256,116,117
 209 298 209 298 186.5 287.5 c 128,-1,118
 164 277 164 277 150 251 c 0,119,120
 138 230 138 230 149.5 222 c 128,-1,121
 161 214 161 214 181 209 c 0,122,123
 190 207 190 207 199 204 c 128,-1,124
 208 201 208 201 215.5 196.5 c 128,-1,125
 223 192 223 192 228 185 c 128,-1,126
 233 178 233 178 233 166 c 0,127,128
 233 150 233 150 220 121 c 1,129,130
 208 105 208 105 192.5 97 c 128,-1,131
 177 89 177 89 161 89 c 0,132,133
 128 89 128 89 107 113 c 1,134,135
 96 123 96 123 89.5 137.5 c 128,-1,136
 83 152 83 152 79.5 167 c 128,-1,137
 76 182 76 182 75.5 195 c 128,-1,138
 75 208 75 208 76 216 c 1,139,140
 76 234 76 234 85.5 257 c 128,-1,141
 95 280 95 280 112.5 301 c 128,-1,142
 130 322 130 322 153.5 337.5 c 128,-1,143
 177 353 177 353 205 357 c 1,144,145
 241 358 241 358 273 349 c 128,-1,146
 305 340 305 340 329.5 321 c 128,-1,147
 354 302 354 302 368 274.5 c 128,-1,148
 382 247 382 247 382 213 c 0,149,150
 382 188 382 188 375 160.5 c 128,-1,151
 368 133 368 133 352 102 c 1,152,153
 364 106 364 106 379 115 c 128,-1,154
 394 124 394 124 409.5 135.5 c 128,-1,155
 425 147 425 147 439.5 159.5 c 128,-1,156
 454 172 454 172 465 183 c 0,157,158
 481 199 481 199 490 216 c 128,-1,159
 499 233 499 233 499 252 c 0,160,161
 499 280 499 280 474.5 313.5 c 128,-1,162
 450 347 450 347 408 375 c 1,163,-1
 319 440 l 2,164,165
 290 460 290 460 261.5 480.5 c 128,-1,166
 233 501 233 501 210.5 523.5 c 128,-1,167
 188 546 188 546 174 569.5 c 128,-1,168
 160 593 160 593 160 619 c 0,169,170
 160 657 160 657 213 683 c 0,171,172
 220 686 220 686 227 687 c 128,-1,173
 234 688 234 688 242 688 c 0,174,175
 260 688 260 688 276.5 681.5 c 128,-1,176
 293 675 293 675 293 659 c 0,177,178
 293 641 293 641 269 617 c 0,179,180
 257 606 257 606 261.5 592.5 c 128,-1,181
 266 579 266 579 281 562 c 128,-1,182
 296 545 296 545 319 525.5 c 128,-1,183
 342 506 342 506 369 484 c 2,184,-1
 416 446 l 1,185,-1
 434 431 l 2,92,93
EndSplineSet
EndChar

StartChar: u09E2
Encoding: 2530 2530 116
Width: 349
GlyphClass: 2
Flags: W
LayerCount: 2
Fore
SplineSet
300 -133 m 2,0,1
 311 -143 311 -143 323.5 -154.5 c 128,-1,2
 336 -166 336 -166 347 -180 c 128,-1,3
 358 -194 358 -194 366 -211.5 c 128,-1,4
 374 -229 374 -229 376 -251 c 0,5,6
 379 -287 379 -287 360 -314 c 128,-1,7
 341 -341 341 -341 310.5 -358.5 c 128,-1,8
 280 -376 280 -376 244.5 -384.5 c 128,-1,9
 209 -393 209 -393 181 -394 c 0,10,11
 176 -394 176 -394 173.5 -390 c 128,-1,12
 171 -386 171 -386 173 -381 c 0,13,14
 178 -367 178 -367 178.5 -367 c 128,-1,15
 179 -367 179 -367 181 -364 c 1,16,-1
 181 -365 l 1,17,-1
 185 -359 l 1,18,-1
 192 -348 l 2,19,20
 203 -330 203 -330 214 -309.5 c 128,-1,21
 225 -289 225 -289 225 -269 c 0,22,23
 225 -257 225 -257 210 -240 c 1,24,25
 205 -236 205 -236 195 -232 c 128,-1,26
 185 -228 185 -228 174 -228 c 256,27,28
 163 -228 163 -228 152 -233 c 128,-1,29
 141 -238 141 -238 136 -249 c 0,30,31
 133 -255 133 -255 136 -257 c 128,-1,32
 139 -259 139 -259 144 -261 c 1,33,-1
 142 -261 l 1,34,-1
 147 -261 l 1,35,36
 159 -265 159 -265 171 -271 c 128,-1,37
 183 -277 183 -277 183 -296 c 0,38,39
 183 -303 183 -303 181.5 -310.5 c 128,-1,40
 180 -318 180 -318 175 -329 c 1,41,42
 166 -340 166 -340 155 -346 c 128,-1,43
 144 -352 144 -352 133 -352 c 0,44,45
 110 -352 110 -352 94 -334 c 1,46,47
 79 -321 79 -321 75 -299.5 c 128,-1,48
 71 -278 71 -278 72 -265 c 0,49,50
 73 -253 73 -253 79.5 -238.5 c 128,-1,51
 86 -224 86 -224 97.5 -211 c 128,-1,52
 109 -198 109 -198 124 -188 c 128,-1,53
 139 -178 139 -178 157 -175 c 1,54,55
 180 -174 180 -174 201 -179.5 c 128,-1,56
 222 -185 222 -185 237.5 -197.5 c 128,-1,57
 253 -210 253 -210 262.5 -228 c 128,-1,58
 272 -246 272 -246 272 -269 c 256,59,60
 272 -292 272 -292 265 -313 c 1,61,62
 277 -305 277 -305 286.5 -300 c 128,-1,63
 296 -295 296 -295 306 -285 c 0,64,65
 312 -279 312 -279 317 -267 c 128,-1,66
 322 -255 322 -255 322 -245 c 0,67,68
 322 -232 322 -232 308.5 -213.5 c 128,-1,69
 295 -195 295 -195 272 -180 c 2,70,-1
 219 -143 l 2,71,72
 202 -131 202 -131 184.5 -118 c 128,-1,73
 167 -105 167 -105 153 -91 c 128,-1,74
 139 -77 139 -77 130 -62 c 128,-1,75
 121 -47 121 -47 121 -30 c 0,76,77
 121 -3 121 -3 158 19 c 1,78,79
 163 20 163 20 168.5 20 c 128,-1,80
 174 20 174 20 181 20 c 0,81,82
 195 20 195 20 207.5 14.5 c 128,-1,83
 220 9 220 9 220 -6 c 0,84,85
 220 -17 220 -17 203 -37 c 0,86,87
 196 -44 196 -44 211.5 -59 c 128,-1,88
 227 -74 227 -74 249 -91 c 1,89,-1
 260 -101 l 1,90,-1
 289 -124 l 1,91,-1
 300 -133 l 2,0,1
EndSplineSet
EndChar

StartChar: u09E3
Encoding: 2531 2531 117
Width: 324
GlyphClass: 2
Flags: W
LayerCount: 2
Fore
SplineSet
229 5 m 2,0,1
 238 -3 238 -3 247.5 -12 c 128,-1,2
 257 -21 257 -21 266 -32.5 c 128,-1,3
 275 -44 275 -44 281 -58 c 128,-1,4
 287 -72 287 -72 289 -89 c 0,5,6
 292 -122 292 -122 271 -146 c 1,7,-1
 283 -155 l 1,8,-1
 292 -163 l 1,9,-1
 315 -182 l 1,10,-1
 324 -189 l 2,11,12
 333 -197 333 -197 342.5 -206 c 128,-1,13
 352 -215 352 -215 361 -226.5 c 128,-1,14
 370 -238 370 -238 376 -252 c 128,-1,15
 382 -266 382 -266 384 -283 c 0,16,17
 387 -312 387 -312 371.5 -333.5 c 128,-1,18
 356 -355 356 -355 332 -369 c 128,-1,19
 308 -383 308 -383 279.5 -390 c 128,-1,20
 251 -397 251 -397 228 -398 c 0,21,22
 225 -398 225 -398 222.5 -395 c 128,-1,23
 220 -392 220 -392 222 -387 c 0,24,25
 226 -376 226 -376 226.5 -376 c 128,-1,26
 227 -376 227 -376 228 -374 c 2,27,-1
 232 -370 l 1,28,-1
 237 -361 l 2,29,30
 245 -347 245 -347 254.5 -330.5 c 128,-1,31
 264 -314 264 -314 264 -298 c 0,32,33
 264 -288 264 -288 252 -274 c 1,34,35
 247 -271 247 -271 239.5 -268 c 128,-1,36
 232 -265 232 -265 223 -265 c 256,37,38
 214 -265 214 -265 205.5 -269 c 128,-1,39
 197 -273 197 -273 192 -282 c 0,40,41
 188 -289 188 -289 198 -291 c 1,42,-1
 201 -291 l 1,43,44
 211 -294 211 -294 220.5 -299 c 128,-1,45
 230 -304 230 -304 230 -319 c 0,46,47
 230 -324 230 -324 229 -330.5 c 128,-1,48
 228 -337 228 -337 224 -346 c 1,49,50
 209 -364 209 -364 190 -364 c 0,51,52
 173 -364 173 -364 159 -350 c 0,53,54
 147 -339 147 -339 143.5 -322 c 128,-1,55
 140 -305 140 -305 141 -294 c 0,56,57
 142 -285 142 -285 147.5 -273.5 c 128,-1,58
 153 -262 153 -262 162 -251.5 c 128,-1,59
 171 -241 171 -241 183 -232.5 c 128,-1,60
 195 -224 195 -224 209 -222 c 1,61,62
 247 -220 247 -220 274 -240.5 c 128,-1,63
 301 -261 301 -261 301 -298 c 0,64,65
 301 -306 301 -306 300 -315 c 128,-1,66
 299 -324 299 -324 296 -333 c 1,67,68
 305 -326 305 -326 314 -318 c 128,-1,69
 323 -310 323 -310 331 -302 c 0,70,71
 336 -297 336 -297 338.5 -291.5 c 128,-1,72
 341 -286 341 -286 341 -278 c 0,73,74
 341 -268 341 -268 330.5 -253 c 128,-1,75
 320 -238 320 -238 301 -226 c 2,76,-1
 259 -197 l 2,77,78
 252 -192 252 -192 245 -187 c 128,-1,79
 238 -182 238 -182 232 -177 c 1,80,81
 208 -190 208 -190 181.5 -196.5 c 128,-1,82
 155 -203 155 -203 133 -204 c 0,83,84
 130 -204 130 -204 127.5 -201 c 128,-1,85
 125 -198 125 -198 127 -193 c 0,86,87
 131 -182 131 -182 131.5 -182 c 128,-1,88
 132 -182 132 -182 133 -180 c 2,89,-1
 137 -176 l 1,90,-1
 142 -167 l 2,91,92
 150 -153 150 -153 159.5 -136.5 c 128,-1,93
 169 -120 169 -120 169 -104 c 0,94,95
 169 -94 169 -94 157 -80 c 1,96,97
 152 -77 152 -77 144.5 -74 c 128,-1,98
 137 -71 137 -71 128 -71 c 256,99,100
 119 -71 119 -71 110.5 -75 c 128,-1,101
 102 -79 102 -79 97 -88 c 0,102,103
 93 -95 93 -95 103 -97 c 1,104,-1
 104 -97 l 1,105,-1
 106 -97 l 1,106,107
 116 -100 116 -100 125.5 -105 c 128,-1,108
 135 -110 135 -110 135 -125 c 0,109,110
 135 -130 135 -130 134 -136.5 c 128,-1,111
 133 -143 133 -143 129 -152 c 1,112,113
 114 -170 114 -170 95 -170 c 0,114,115
 78 -170 78 -170 64 -156 c 0,116,117
 52 -145 52 -145 48.5 -128 c 128,-1,118
 45 -111 45 -111 46 -100 c 0,119,120
 47 -91 47 -91 52.5 -79.5 c 128,-1,121
 58 -68 58 -68 67 -57.5 c 128,-1,122
 76 -47 76 -47 88 -38.5 c 128,-1,123
 100 -30 100 -30 114 -28 c 1,124,125
 152 -26 152 -26 179 -46.5 c 128,-1,126
 206 -67 206 -67 206 -104 c 0,127,128
 206 -112 206 -112 205 -121 c 128,-1,129
 204 -130 204 -130 201 -139 c 1,130,131
 210 -132 210 -132 219 -124 c 128,-1,132
 228 -116 228 -116 236 -108 c 0,133,134
 241 -103 241 -103 243.5 -97.5 c 128,-1,135
 246 -92 246 -92 246 -84 c 0,136,137
 246 -74 246 -74 235.5 -59 c 128,-1,138
 225 -44 225 -44 206 -32 c 2,139,-1
 164 -3 l 2,140,141
 150 7 150 7 136 17 c 128,-1,142
 122 27 122 27 110.5 38.5 c 128,-1,143
 99 50 99 50 92 62 c 128,-1,144
 85 74 85 74 85 88 c 0,145,146
 85 110 85 110 115 127 c 1,147,148
 120 128 120 128 133 128 c 0,149,150
 144 128 144 128 154.5 123.5 c 128,-1,151
 165 119 165 119 165 107 c 0,152,153
 165 98 165 98 151 82 c 0,154,155
 146 77 146 77 158.5 65 c 128,-1,156
 171 53 171 53 188 39 c 2,157,-1
 197 31 l 1,158,-1
 220 12 l 1,159,-1
 229 5 l 2,0,1
EndSplineSet
EndChar

StartChar: u09E6
Encoding: 2534 2534 118
Width: 561
GlyphClass: 2
Flags: W
LayerCount: 2
Fore
SplineSet
500 292 m 0,0,1
 500 200 500 200 433 136 c 1,2,3
 365 73 365 73 272 73 c 0,4,5
 174 73 174 73 109 140 c 0,6,7
 43 209 43 209 47 310 c 1,8,9
 58 401 58 401 117 459 c 1,10,11
 184 517 184 517 276 517 c 0,12,13
 371 517 371 517 435 453 c 0,14,15
 500 388 500 388 500 292 c 0,0,1
425 338 m 1,16,17
 425 389 425 389 395.5 420 c 128,-1,18
 366 451 366 451 315 451 c 1,19,20
 239 449 239 449 182 387 c 0,21,22
 124 324 124 324 122 246 c 0,23,24
 122 224 122 224 130.5 204.5 c 128,-1,25
 139 185 139 185 153 170.5 c 128,-1,26
 167 156 167 156 186 147.5 c 128,-1,27
 205 139 205 139 227 139 c 0,28,29
 303 141 303 141 363 200 c 256,30,31
 423 259 423 259 425 338 c 1,16,17
EndSplineSet
EndChar

StartChar: u09E7
Encoding: 2535 2535 119
Width: 441
GlyphClass: 2
Flags: W
LayerCount: 2
Fore
SplineSet
384 219 m 0,0,1
 384 131 384 131 312 64 c 0,2,3
 239 -3 239 -3 153 -3 c 0,4,5
 113 -3 113 -3 83 20 c 1,6,7
 46 46 46 46 46 81 c 0,8,9
 46 126 46 126 84 156 c 0,10,11
 124 188 124 188 169 188 c 0,12,13
 248 188 248 188 285 146 c 1,14,15
 305 166 305 166 313.5 187 c 128,-1,16
 322 208 322 208 322 230 c 0,17,18
 322 280 322 280 252 351 c 1,19,20
 221 380 221 380 187 411.5 c 128,-1,21
 153 443 153 443 121 471 c 0,22,23
 92 497 92 497 71 530.5 c 128,-1,24
 50 564 50 564 50 583 c 0,25,26
 50 613 50 613 70 635 c 128,-1,27
 90 657 90 657 120 657 c 0,28,29
 175 657 175 657 175 580 c 0,30,31
 175 573 175 573 175 565.5 c 128,-1,32
 175 558 175 558 174 549 c 1,33,34
 222 502 222 502 256.5 465.5 c 128,-1,35
 291 429 291 429 311 401 c 0,36,37
 384 303 384 303 384 219 c 0,0,1
EndSplineSet
EndChar

StartChar: u09E8
Encoding: 2536 2536 120
Width: 530
GlyphClass: 2
Flags: W
LayerCount: 2
Fore
SplineSet
548 -88 m 1,0,1
 503 -41 503 -41 451 -0.5 c 128,-1,2
 399 40 399 40 341 75 c 0,3,4
 281 112 281 112 217 137.5 c 128,-1,5
 153 163 153 163 93 175 c 1,6,-1
 39 358 l 1,7,8
 60 323 60 323 142 291 c 0,9,10
 182 275 182 275 216 266 c 128,-1,11
 250 257 250 257 276 257 c 0,12,13
 316 257 316 257 353 277 c 0,14,15
 397 301 397 301 397 337 c 0,16,17
 397 392 397 392 324 438 c 1,18,19
 292 456 292 456 258.5 473.5 c 128,-1,20
 225 491 225 491 192 508 c 0,21,22
 122 546 122 546 122 581 c 0,23,24
 122 607 122 607 139.5 627 c 128,-1,25
 157 647 157 647 183 647 c 0,26,27
 241 647 241 647 245 586 c 1,28,29
 335 541 335 541 379 500 c 0,30,31
 444 438 444 438 444 361 c 0,32,33
 444 226 444 226 285 177 c 1,34,35
 336 148 336 148 399 98 c 128,-1,36
 462 48 462 48 536 -21 c 1,37,-1
 548 -88 l 1,0,1
EndSplineSet
EndChar

StartChar: u09E9
Encoding: 2537 2537 121
Width: 576
GlyphClass: 2
Flags: W
LayerCount: 2
Fore
SplineSet
546 302 m 1,0,1
 546 246 546 246 529.5 199 c 128,-1,2
 513 152 513 152 483.5 117.5 c 128,-1,3
 454 83 454 83 413.5 63.5 c 128,-1,4
 373 44 373 44 325 44 c 0,5,6
 269 44 269 44 225.5 67 c 128,-1,7
 182 90 182 90 149 128 c 128,-1,8
 116 166 116 166 93 215.5 c 128,-1,9
 70 265 70 265 54 317.5 c 128,-1,10
 38 370 38 370 28 422.5 c 128,-1,11
 18 475 18 475 12 519 c 1,12,-1
 59 496 l 1,13,14
 65 445 65 445 81.5 385 c 128,-1,15
 98 325 98 325 128 272.5 c 128,-1,16
 158 220 158 220 202 185 c 128,-1,17
 246 150 246 150 307 150 c 0,18,19
 344 150 344 150 377 160.5 c 128,-1,20
 410 171 410 171 435 190.5 c 128,-1,21
 460 210 460 210 475 239 c 128,-1,22
 490 268 490 268 492 305 c 0,23,24
 497 458 497 458 365 501 c 1,25,26
 384 465 384 465 383 436 c 0,27,28
 382 394 382 394 352 366 c 128,-1,29
 322 338 322 338 280 340 c 1,30,31
 237 341 237 341 208 378 c 0,32,33
 180 415 180 415 181 460 c 1,34,35
 187 593 187 593 336 590 c 1,36,37
 420 587 420 587 492 488 c 1,38,39
 549 400 549 400 546 302 c 1,0,1
EndSplineSet
EndChar

StartChar: u09EA
Encoding: 2538 2538 122
Width: 501
GlyphClass: 2
Flags: W
LayerCount: 2
Fore
SplineSet
467 201 m 1,0,1
 465 154 465 154 445.5 122.5 c 128,-1,2
 426 91 426 91 394.5 72.5 c 128,-1,3
 363 54 363 54 322 46 c 128,-1,4
 281 38 281 38 237 38 c 0,5,6
 205 38 205 38 171 49.5 c 128,-1,7
 137 61 137 61 109 81.5 c 128,-1,8
 81 102 81 102 63 131.5 c 128,-1,9
 45 161 45 161 45 197 c 0,10,11
 45 248 45 248 85.5 288 c 128,-1,12
 126 328 126 328 178 339 c 1,13,14
 63 371 63 371 63 480 c 0,15,16
 63 521 63 521 79 554.5 c 128,-1,17
 95 588 95 588 123.5 611.5 c 128,-1,18
 152 635 152 635 192 648 c 128,-1,19
 232 661 232 661 279 661 c 0,20,21
 345 661 345 661 393 623 c 1,22,23
 446 579 446 579 446 518 c 0,24,25
 446 475 446 475 415.5 436 c 128,-1,26
 385 397 385 397 342 377 c 1,27,28
 467 338 467 338 467 201 c 1,0,1
379 512 m 0,29,30
 379 534 379 534 368 552.5 c 128,-1,31
 357 571 357 571 339.5 584.5 c 128,-1,32
 322 598 322 598 300.5 606 c 128,-1,33
 279 614 279 614 257 614 c 1,34,35
 238 613 238 613 218.5 607.5 c 128,-1,36
 199 602 199 602 182.5 591 c 128,-1,37
 166 580 166 580 154.5 564 c 128,-1,38
 143 548 143 548 142 526 c 1,39,40
 142 491 142 491 154.5 468.5 c 128,-1,41
 167 446 167 446 186 432.5 c 128,-1,42
 205 419 205 419 227.5 412.5 c 128,-1,43
 250 406 250 406 271 403 c 1,44,45
 379 461 379 461 379 512 c 0,29,30
385 184 m 0,46,47
 385 210 385 210 372.5 234 c 128,-1,48
 360 258 360 258 341 277 c 128,-1,49
 322 296 322 296 297.5 307 c 128,-1,50
 273 318 273 318 249 318 c 1,51,52
 227 312 227 312 207 299.5 c 128,-1,53
 187 287 187 287 169.5 271.5 c 128,-1,54
 152 256 152 256 141.5 234 c 128,-1,55
 131 212 131 212 130 189 c 1,56,57
 135 165 135 165 146.5 148.5 c 128,-1,58
 158 132 158 132 175.5 121 c 128,-1,59
 193 110 193 110 214 104.5 c 128,-1,60
 235 99 235 99 253 99 c 0,61,62
 299 98 299 98 341.5 121.5 c 128,-1,63
 384 145 384 145 385 184 c 0,46,47
EndSplineSet
EndChar

StartChar: u09EB
Encoding: 2539 2539 123
Width: 568
GlyphClass: 2
Flags: W
LayerCount: 2
Fore
SplineSet
562 419 m 1,0,1
 517 407 517 407 478 389 c 128,-1,2
 439 371 439 371 405 343 c 0,3,4
 323 275 323 275 323 196 c 0,5,6
 323 133 323 133 356.5 92.5 c 128,-1,7
 390 52 390 52 461 33 c 1,8,9
 438 22 438 22 411 16 c 128,-1,10
 384 10 384 10 355 10 c 0,11,12
 292 10 292 10 236.5 27.5 c 128,-1,13
 181 45 181 45 139 77 c 0,14,15
 91 113 91 113 64.5 163 c 128,-1,16
 38 213 38 213 38 274 c 0,17,18
 38 325 38 325 55.5 382.5 c 128,-1,19
 73 440 73 440 116 498 c 0,20,21
 162 560 162 560 219.5 595.5 c 128,-1,22
 277 631 277 631 328 645 c 1,23,-1
 419 610 l 1,24,25
 367 593 367 593 367 545 c 0,26,27
 367 530 367 530 374.5 518 c 128,-1,28
 382 506 382 506 393 497.5 c 128,-1,29
 404 489 404 489 417 483.5 c 128,-1,30
 430 478 430 478 441 475 c 0,31,32
 455 471 455 471 466 469.5 c 128,-1,33
 477 468 477 468 490 460 c 2,34,-1
 562 419 l 1,0,1
401 426 m 1,35,36
 325 435 325 435 300 535 c 1,37,38
 257 516 257 516 222.5 487.5 c 128,-1,39
 188 459 188 459 162 420 c 1,40,41
 136 379 136 379 122.5 337.5 c 128,-1,42
 109 296 109 296 109 250 c 0,43,44
 109 170 109 170 176 115 c 1,45,46
 215 90 215 90 247.5 75.5 c 128,-1,47
 280 61 280 61 324 54 c 1,48,49
 254 117 254 117 254 203 c 0,50,51
 254 274 254 274 295 336 c 0,52,53
 335 397 335 397 401 426 c 1,35,36
EndSplineSet
EndChar

StartChar: u09EC
Encoding: 2540 2540 124
Width: 590
GlyphClass: 2
Flags: W
LayerCount: 2
Fore
SplineSet
553 267 m 0,0,1
 553 216 553 216 540.5 173.5 c 128,-1,2
 528 131 528 131 502 96 c 0,3,4
 445 17 445 17 348 17 c 0,5,6
 206 17 206 17 110 196 c 0,7,8
 33 340 33 340 20 503 c 1,9,-1
 51 488 l 1,10,11
 78 348 78 348 142 249 c 1,12,13
 225 118 225 118 345 118 c 0,14,15
 418 118 418 118 462 162 c 1,16,17
 508 206 508 206 508 276 c 0,18,19
 508 297 508 297 501.5 318.5 c 128,-1,20
 495 340 495 340 481 362 c 1,21,22
 462 317 462 317 421 292.5 c 128,-1,23
 380 268 380 268 332 268 c 0,24,25
 248 268 248 268 215 361 c 0,26,27
 210 375 210 375 204 417 c 128,-1,28
 198 459 198 459 190 528 c 1,29,30
 168 528 168 528 152.5 545 c 128,-1,31
 137 562 137 562 137 583 c 0,32,33
 137 605 137 605 154 621 c 128,-1,34
 171 637 171 637 193 637 c 0,35,36
 273 637 273 637 273 512 c 0,37,38
 273 507 273 507 273 500 c 128,-1,39
 273 493 273 493 272 480 c 128,-1,40
 271 467 271 467 270 445.5 c 128,-1,41
 269 424 269 424 268 390 c 1,42,43
 269 331 269 331 309 331 c 0,44,45
 329 331 329 331 350 345.5 c 128,-1,46
 371 360 371 360 394 387 c 1,47,48
 412 410 412 410 425.5 433 c 128,-1,49
 439 456 439 456 446 481 c 1,50,51
 553 401 553 401 553 267 c 0,0,1
EndSplineSet
EndChar

StartChar: u09ED
Encoding: 2541 2541 125
Width: 541
GlyphClass: 2
Flags: W
LayerCount: 2
Fore
SplineSet
488 58 m 0,0,1
 488 0 488 0 432 0 c 0,2,3
 355 0 355 0 355 153 c 0,4,5
 355 192 355 192 359 227 c 128,-1,6
 363 262 363 262 363 297 c 1,7,-1
 190 297 l 2,8,9
 137 297 137 297 96 342.5 c 128,-1,10
 55 388 55 388 55 440 c 0,11,12
 55 513 55 513 109 570 c 0,13,14
 163 628 163 628 236 628 c 0,15,16
 352 628 352 628 399 523 c 0,17,18
 435 445 435 445 435 297 c 0,19,20
 435 286 435 286 434.5 270 c 128,-1,21
 434 254 434 254 433.5 236 c 128,-1,22
 433 218 433 218 432.5 199.5 c 128,-1,23
 432 181 432 181 432 165 c 2,24,-1
 432 110 l 1,25,26
 458 110 458 110 473 97 c 128,-1,27
 488 84 488 84 488 58 c 0,0,1
364 403 m 1,28,29
 364 427 364 427 357.5 451.5 c 128,-1,30
 351 476 351 476 337 504 c 0,31,32
 303 569 303 569 264 569 c 0,33,34
 238 569 238 569 213.5 556 c 128,-1,35
 189 543 189 543 169 520 c 0,36,37
 126 472 126 472 126 420 c 0,38,39
 126 380 126 380 184 380 c 2,40,-1
 363 380 l 1,41,-1
 364 403 l 1,28,29
EndSplineSet
EndChar

StartChar: u09EE
Encoding: 2542 2542 126
Width: 598
GlyphClass: 2
Flags: W
LayerCount: 2
Fore
SplineSet
579 438 m 0,0,1
 579 409 579 409 565.5 389 c 128,-1,2
 552 369 552 369 530 359 c 1,3,4
 512 353 512 353 429 347 c 0,5,6
 398 344 398 344 398 329 c 0,7,8
 398 316 398 316 407 289 c 1,9,10
 417 265 417 265 417 250 c 0,11,12
 417 173 417 173 343 99 c 0,13,14
 271 27 271 27 194 27 c 0,15,16
 182 27 182 27 165 38 c 128,-1,17
 148 49 148 49 129 69 c 1,18,19
 111 90 111 90 101 107 c 128,-1,20
 91 124 91 124 91 136 c 2,21,-1
 91 519 l 1,22,-1
 73 518 l 1,23,24
 51 519 51 519 38 537.5 c 128,-1,25
 25 556 25 556 25 576 c 0,26,27
 25 635 25 635 75 635 c 0,28,29
 158 635 158 635 158 485 c 0,30,31
 158 473 158 473 158 457.5 c 128,-1,32
 158 442 158 442 156 422 c 2,33,-1
 153 372 l 1,34,35
 191 437 191 437 267 437 c 0,36,37
 282 437 282 437 297 430 c 128,-1,38
 312 423 312 423 327 412 c 1,39,-1
 377 360 l 1,40,41
 391 372 391 372 398 387.5 c 128,-1,42
 405 403 405 403 421 420 c 0,43,44
 427 426 427 426 441 428 c 128,-1,45
 455 430 455 430 471 430 c 0,46,47
 510 430 510 430 524 433 c 1,48,49
 538 438 538 438 547.5 450 c 128,-1,50
 557 462 557 462 565 479 c 1,51,-1
 575 474 l 1,52,53
 579 455 579 455 579 438 c 0,0,1
333 302 m 0,54,55
 333 328 333 328 304 345 c 1,56,57
 283 359 283 359 253 359 c 0,58,59
 199 359 199 359 152 325 c 1,60,-1
 152 128 l 2,61,62
 152 116 152 116 168 94 c 1,63,64
 199 94 199 94 228 113.5 c 128,-1,65
 257 133 257 133 283 169 c 0,66,67
 306 202 306 202 319.5 236 c 128,-1,68
 333 270 333 270 333 302 c 0,54,55
EndSplineSet
EndChar

StartChar: u09EF
Encoding: 2543 2543 127
Width: 550
GlyphClass: 2
Flags: W
LayerCount: 2
Fore
SplineSet
515 223 m 1,0,1
 516 178 516 178 491.5 143 c 128,-1,2
 467 108 467 108 430 84 c 128,-1,3
 393 60 393 60 348 46.5 c 128,-1,4
 303 33 303 33 263 32 c 1,5,6
 265 50 265 50 270 67 c 128,-1,7
 275 84 275 84 280.5 101.5 c 128,-1,8
 286 119 286 119 289.5 137 c 128,-1,9
 293 155 293 155 294 173 c 1,10,11
 293 193 293 193 287.5 215.5 c 128,-1,12
 282 238 282 238 270 254 c 128,-1,13
 258 270 258 270 240 280.5 c 128,-1,14
 222 291 222 291 198 291 c 1,15,16
 179 290 179 290 167 285 c 128,-1,17
 155 280 155 280 141 264.5 c 128,-1,18
 127 249 127 249 123 229.5 c 128,-1,19
 119 210 119 210 117 189 c 1,20,21
 118 179 118 179 120.5 169 c 128,-1,22
 123 159 123 159 132 155 c 1,23,24
 143 160 143 160 162.5 159.5 c 128,-1,25
 182 159 182 159 200 145 c 128,-1,26
 218 131 218 131 218 99 c 1,27,28
 214 68 214 68 195.5 52.5 c 128,-1,29
 177 37 177 37 147 38 c 0,30,31
 119 38 119 38 97.5 53 c 128,-1,32
 76 68 76 68 65.5 88 c 128,-1,33
 55 108 55 108 50 131 c 128,-1,34
 45 154 45 154 45 174 c 0,35,36
 44 207 44 207 55 239 c 128,-1,37
 66 271 66 271 86.5 295.5 c 128,-1,38
 107 320 107 320 137.5 335.5 c 128,-1,39
 168 351 168 351 205 352 c 0,40,41
 238 353 238 353 265.5 340 c 128,-1,42
 293 327 293 327 314 304.5 c 128,-1,43
 335 282 335 282 347.5 253 c 128,-1,44
 360 224 360 224 361 193 c 0,45,46
 362 175 362 175 358.5 157 c 128,-1,47
 355 139 355 139 346 122 c 1,48,49
 365 132 365 132 383 143 c 128,-1,50
 401 154 401 154 415 167 c 128,-1,51
 429 180 429 180 438 197 c 128,-1,52
 447 214 447 214 447 235 c 1,53,54
 440 287 440 287 408 318.5 c 128,-1,55
 376 350 376 350 331.5 373.5 c 128,-1,56
 287 397 287 397 239.5 415.5 c 128,-1,57
 192 434 192 434 155 461 c 1,58,59
 108 492 108 492 81.5 526.5 c 128,-1,60
 55 561 55 561 56 601 c 0,61,62
 57 634 57 634 74 656 c 128,-1,63
 91 678 91 678 117 676 c 256,64,65
 143 674 143 674 157 656.5 c 128,-1,66
 171 639 171 639 170 616 c 0,67,68
 169 596 169 596 147 576 c 1,69,70
 146 565 146 565 173 548 c 128,-1,71
 200 531 200 531 248 512 c 1,72,73
 271 501 271 501 295.5 491.5 c 128,-1,74
 320 482 320 482 343.5 470.5 c 128,-1,75
 367 459 367 459 388 446.5 c 128,-1,76
 409 434 409 434 428 417 c 0,77,78
 461 389 461 389 488.5 340.5 c 128,-1,79
 516 292 516 292 515 223 c 1,0,1
EndSplineSet
EndChar

StartChar: u09F0
Encoding: 2544 2544 128
Width: 526
GlyphClass: 2
Flags: W
AnchorPoint: "Anchor-1" 15 -5 basechar 0
AnchorPoint: "Anchor-0" 425 40 basechar 0
LayerCount: 2
Fore
SplineSet
425 588 m 1,0,-1
 425 0 l 1,1,-1
 394 37 l 1,2,3
 377 81 377 81 350.5 120 c 128,-1,4
 324 159 324 159 291 189 c 0,5,6
 219 255 219 255 101 267 c 1,7,-1
 27 371 l 1,8,9
 195 488 195 488 371 547 c 1,10,-1
 371 588 l 1,11,-1
 -2 588 l 1,12,-1
 -57 644 l 1,13,-1
 476 644 l 1,14,-1
 530 588 l 1,15,-1
 425 588 l 1,0,-1
371 259 m 1,16,17
 328 299 328 299 285 330.5 c 128,-1,18
 242 362 242 362 210 380 c 1,19,20
 193 369 193 369 177 359.5 c 128,-1,21
 161 350 161 350 145 339 c 1,22,23
 296 276 296 276 371 147 c 1,24,-1
 371 259 l 1,16,17
371 323 m 1,25,-1
 371 458 l 1,26,27
 342 447 342 447 315 435.5 c 128,-1,28
 288 424 288 424 265 413 c 1,29,-1
 371 323 l 1,25,-1
EndSplineSet
EndChar

StartChar: u09F1
Encoding: 2545 2545 129
Width: 526
GlyphClass: 2
Flags: W
AnchorPoint: "Anchor-1" 5 -25 basechar 0
AnchorPoint: "Anchor-0" 430 35 basechar 0
LayerCount: 2
Fore
SplineSet
319 7 m 1,0,1
 272 61 272 61 225 91.5 c 128,-1,2
 178 122 178 122 132 127 c 1,3,-1
 121 191 l 1,4,5
 179 177 179 177 230 141 c 128,-1,6
 281 105 281 105 319 51 c 1,7,-1
 319 7 l 1,0,1
425 588 m 1,8,-1
 425 0 l 1,9,-1
 394 37 l 1,10,11
 357 113 357 113 334 141.5 c 128,-1,12
 311 170 311 170 291 189 c 0,13,14
 219 255 219 255 100 267 c 1,15,-1
 27 371 l 1,16,17
 195 488 195 488 371 547 c 1,18,-1
 371 588 l 1,19,-1
 -2 588 l 1,20,-1
 -57 644 l 1,21,-1
 476 644 l 1,22,-1
 530 588 l 1,23,-1
 425 588 l 1,8,-1
371 456 m 1,24,25
 317 436 317 436 261.5 408 c 128,-1,26
 206 380 206 380 145 339 c 1,27,28
 296 276 296 276 371 147 c 1,29,-1
 371 456 l 1,24,25
EndSplineSet
EndChar

StartChar: u09F2
Encoding: 2546 2546 130
Width: 470
GlyphClass: 2
Flags: W
LayerCount: 2
Fore
SplineSet
416 1 m 1,0,1
 413 76 413 76 386.5 143 c 128,-1,2
 360 210 360 210 312 266 c 0,3,4
 263 324 263 324 200 357.5 c 128,-1,5
 137 391 137 391 63 396 c 1,6,-1
 100 470 l 1,7,8
 182 465 182 465 248.5 425.5 c 128,-1,9
 315 386 315 386 363 310 c 0,10,11
 404 246 404 246 426 168 c 128,-1,12
 448 90 448 90 451 1 c 1,13,-1
 416 1 l 1,0,1
EndSplineSet
EndChar

StartChar: u09F3
Encoding: 2547 2547 131
Width: 532
GlyphClass: 2
Flags: W
LayerCount: 2
Fore
SplineSet
473 245 m 1,0,1
 467 149 467 149 404 87 c 0,2,3
 343 26 343 26 270 26 c 0,4,5
 183 26 183 26 152 72 c 0,6,7
 138 92 138 92 134 119 c 128,-1,8
 130 146 130 146 130 184 c 2,9,-1
 130 393 l 1,10,-1
 79 393 l 1,11,-1
 39 446 l 1,12,-1
 134 446 l 1,13,-1
 134 558 l 2,14,15
 134 597 134 597 99 597 c 0,16,17
 91 597 91 597 84.5 593.5 c 128,-1,18
 78 590 78 590 70 587 c 1,19,-1
 50 643 l 1,20,21
 82 656 82 656 107 656 c 0,22,23
 152 656 152 656 172.5 626 c 128,-1,24
 193 596 193 596 193 527 c 2,25,-1
 193 446 l 1,26,-1
 248 446 l 1,27,-1
 291 393 l 1,28,-1
 193 393 l 1,29,-1
 193 134 l 1,30,31
 196 84 196 84 251 84 c 0,32,33
 303 84 303 84 344 128 c 256,34,35
 385 172 385 172 385 227 c 1,36,37
 371 224 371 224 360 224 c 0,38,39
 331 224 331 224 314 241 c 128,-1,40
 297 258 297 258 297 291 c 0,41,42
 297 330 297 330 318 349.5 c 128,-1,43
 339 369 339 369 372 369 c 0,44,45
 473 369 473 369 473 245 c 1,0,1
EndSplineSet
EndChar

StartChar: u09F4
Encoding: 2548 2548 132
Width: 478
GlyphClass: 2
Flags: W
LayerCount: 2
Fore
SplineSet
470 468 m 1,0,1
 416 273 416 273 314.5 156 c 128,-1,2
 213 39 213 39 70 8 c 1,3,4
 63 29 63 29 55 50 c 128,-1,5
 47 71 47 71 40 91 c 1,6,7
 109 111 109 111 169 147.5 c 128,-1,8
 229 184 229 184 278 234 c 128,-1,9
 327 284 327 284 363.5 347 c 128,-1,10
 400 410 400 410 421 483 c 1,11,-1
 470 468 l 1,0,1
EndSplineSet
EndChar

StartChar: u09F5
Encoding: 2549 2549 133
Width: 598
GlyphClass: 2
Flags: W
LayerCount: 2
Fore
SplineSet
579 437 m 1,0,1
 567 246 567 246 464 131 c 0,2,3
 414 75 414 75 345 38.5 c 128,-1,4
 276 2 276 2 196 -15 c 1,5,-1
 173 58 l 1,6,7
 208 69 208 69 226.5 92 c 128,-1,8
 245 115 245 115 245 148 c 0,9,10
 245 162 245 162 241.5 173.5 c 128,-1,11
 238 185 238 185 233 195 c 0,12,13
 219 219 219 219 192 219 c 0,14,15
 161 219 161 219 140 200 c 128,-1,16
 119 181 119 181 117 152 c 1,17,-1
 65 149 l 1,18,19
 67 175 67 175 78.5 200 c 128,-1,20
 90 225 90 225 108 248 c 1,21,22
 126 267 126 267 151 280 c 128,-1,23
 176 293 176 293 199 293 c 0,24,25
 249 293 249 293 279 263 c 128,-1,26
 309 233 309 233 309 185 c 0,27,28
 309 159 309 159 299 134 c 128,-1,29
 289 109 289 109 270 83 c 1,30,31
 375 121 375 121 445 209.5 c 128,-1,32
 515 298 515 298 546 422 c 1,33,-1
 579 437 l 1,0,1
EndSplineSet
EndChar

StartChar: u09F6
Encoding: 2550 2550 134
Width: 707
GlyphClass: 2
Flags: W
LayerCount: 2
Fore
SplineSet
685 503 m 1,0,1
 648 486 648 486 623.5 442 c 128,-1,2
 599 398 599 398 587 334 c 0,3,4
 572 255 572 255 555 194 c 128,-1,5
 538 133 538 133 522 107 c 1,6,7
 483 53 483 53 412 23.5 c 128,-1,8
 341 -6 341 -6 238 -6 c 0,9,10
 104 -6 104 -6 104 72 c 0,11,12
 104 91 104 91 116.5 105.5 c 128,-1,13
 129 120 129 120 149 129 c 0,14,15
 170 138 170 138 191 145.5 c 128,-1,16
 212 153 212 153 233 161 c 0,17,18
 280 180 280 180 280 214 c 0,19,20
 280 226 280 226 275 237 c 128,-1,21
 270 248 270 248 262 257 c 128,-1,22
 254 266 254 266 243 271.5 c 128,-1,23
 232 277 232 277 220 277 c 0,24,25
 199 277 199 277 178 233 c 0,26,27
 158 192 158 192 139 192 c 0,28,29
 96 192 96 192 96 235 c 0,30,31
 96 277 96 277 155 308 c 1,32,33
 180 319 180 319 206 326 c 128,-1,34
 232 333 232 333 255 333 c 0,35,36
 296 333 296 333 325 301 c 0,37,38
 356 268 356 268 356 230 c 0,39,40
 356 183 356 183 302 149 c 1,41,42
 289 139 289 139 265 128 c 128,-1,43
 241 117 241 117 206 103 c 0,44,45
 151 80 151 80 149 63 c 1,46,47
 160 46 160 46 194 46 c 0,48,49
 291 46 291 46 359.5 73 c 128,-1,50
 428 100 428 100 466 150 c 1,51,52
 485 180 485 180 505 237 c 128,-1,53
 525 294 525 294 539 369 c 0,54,55
 552 441 552 441 572.5 488.5 c 128,-1,56
 593 536 593 536 619 560 c 1,57,-1
 685 503 l 1,0,1
EndSplineSet
EndChar

StartChar: u09F7
Encoding: 2551 2551 135
Width: 282
GlyphClass: 2
Flags: W
LayerCount: 2
Fore
SplineSet
192 1 m 1,0,-1
 192 543 l 1,1,-1
 248 543 l 1,2,-1
 248 1 l 1,3,-1
 192 1 l 1,0,-1
EndSplineSet
EndChar

StartChar: u09F8
Encoding: 2552 2552 136
Width: 445
GlyphClass: 2
Flags: W
LayerCount: 2
Fore
SplineSet
418 68 m 1,0,-1
 341 22 l 1,1,-1
 341 266 l 2,2,3
 341 383 341 383 313 383 c 0,4,5
 292 383 292 383 253 329 c 0,6,7
 220 282 220 282 202.5 257 c 128,-1,8
 185 232 185 232 182 227 c 0,9,10
 135 172 135 172 103 172 c 0,11,12
 60 172 60 172 60 256 c 2,13,-1
 60 586 l 1,14,15
 78 600 78 600 96.5 614.5 c 128,-1,16
 115 629 115 629 133 643 c 1,17,18
 133 587 133 587 133.5 533.5 c 128,-1,19
 134 480 134 480 134 424 c 1,20,-1
 131 333 l 1,21,-1
 129 275 l 1,22,-1
 131 275 l 1,23,24
 152 313 152 313 171 341 c 128,-1,25
 190 369 190 369 207 388 c 0,26,27
 258 448 258 448 321 448 c 0,28,29
 417 448 417 448 417 271 c 2,30,-1
 418 68 l 1,0,-1
EndSplineSet
EndChar

StartChar: u09F9
Encoding: 2553 2553 137
Width: 333
GlyphClass: 2
Flags: W
LayerCount: 2
Fore
SplineSet
308 243 m 256,0,1
 308 192 308 192 276.5 160 c 128,-1,2
 245 128 245 128 194 128 c 0,3,4
 142 128 142 128 112 160 c 128,-1,5
 82 192 82 192 82 243 c 256,6,7
 82 294 82 294 112 325.5 c 128,-1,8
 142 357 142 357 194 357 c 0,9,10
 245 357 245 357 276.5 325.5 c 128,-1,11
 308 294 308 294 308 243 c 256,0,1
257 243 m 0,12,13
 257 307 257 307 193 307 c 256,14,15
 129 307 129 307 129 243 c 0,16,17
 129 176 129 176 193 176 c 256,18,19
 257 176 257 176 257 243 c 0,12,13
EndSplineSet
EndChar

StartChar: u09FA
Encoding: 2554 2554 138
Width: 483
GlyphClass: 2
Flags: W
LayerCount: 2
Fore
SplineSet
231 646 m 0,0,1
 200 646 200 646 185 666 c 128,-1,2
 170 686 170 686 170.5 710.5 c 128,-1,3
 171 735 171 735 186.5 755 c 128,-1,4
 202 775 202 775 231 775 c 0,5,6
 264 776 264 776 280.5 756 c 128,-1,7
 297 736 297 736 297 711.5 c 128,-1,8
 297 687 297 687 280.5 666.5 c 128,-1,9
 264 646 264 646 231 646 c 0,0,1
462 668 m 1,10,11
 443 629 443 629 418 592.5 c 128,-1,12
 393 556 393 556 364 527 c 128,-1,13
 335 498 335 498 302 480 c 128,-1,14
 269 462 269 462 233 459.5 c 128,-1,15
 197 457 197 457 159.5 473.5 c 128,-1,16
 122 490 122 490 84 531 c 0,17,18
 48 570 48 570 29 625.5 c 128,-1,19
 10 681 10 681 10 734 c 0,20,21
 10 750 10 750 15 756 c 128,-1,22
 20 762 20 762 26.5 761 c 128,-1,23
 33 760 33 760 39.5 752.5 c 128,-1,24
 46 745 46 745 49 734 c 0,25,26
 57 708 57 708 65 682.5 c 128,-1,27
 73 657 73 657 86 634 c 0,28,29
 102 605 102 605 126.5 587 c 128,-1,30
 151 569 151 569 179.5 561 c 128,-1,31
 208 553 208 553 238.5 556 c 128,-1,32
 269 559 269 559 297 574 c 0,33,34
 323 589 323 589 344.5 609.5 c 128,-1,35
 366 630 366 630 384.5 653.5 c 128,-1,36
 403 677 403 677 419 702.5 c 128,-1,37
 435 728 435 728 449 753 c 0,38,39
 465 780 465 780 483 811 c 128,-1,40
 501 842 501 842 523 870.5 c 128,-1,41
 545 899 545 899 572 921.5 c 128,-1,42
 599 944 599 944 632 953 c 0,43,44
 643 956 643 956 657.5 957.5 c 128,-1,45
 672 959 672 959 686.5 956 c 128,-1,46
 701 953 701 953 714 944 c 128,-1,47
 727 935 727 935 736 917 c 0,48,49
 743 903 743 903 740.5 889 c 128,-1,50
 738 875 738 875 730 864 c 128,-1,51
 722 853 722 853 710 845 c 128,-1,52
 698 837 698 837 685 836 c 1,53,54
 695 853 695 853 695 874 c 128,-1,55
 695 895 695 895 677 909 c 0,56,57
 663 919 663 919 649 919.5 c 128,-1,58
 635 920 635 920 621.5 914 c 128,-1,59
 608 908 608 908 596.5 897.5 c 128,-1,60
 585 887 585 887 575 877 c 0,61,62
 555 855 555 855 540.5 829.5 c 128,-1,63
 526 804 526 804 513 777 c 128,-1,64
 500 750 500 750 488 722 c 128,-1,65
 476 694 476 694 462 668 c 1,10,11
EndSplineSet
EndChar

StartChar: afii61664
Encoding: 8204 8204 139
Width: 0
GlyphClass: 2
Flags: W
LayerCount: 2
Fore
SplineSet
1 865 m 1,0,-1
 63 865 l 1,1,-1
 63 -282 l 1,2,-1
 1 -282 l 1,3,-1
 1 865 l 1,0,-1
EndSplineSet
EndChar

StartChar: afii301
Encoding: 8205 8205 140
Width: 0
GlyphClass: 2
Flags: W
LayerCount: 2
Fore
SplineSet
1 865 m 1,0,-1
 241 865 l 1,1,-1
 241 804 l 1,2,-1
 63 804 l 1,3,-1
 63 -282 l 1,4,-1
 1 -282 l 1,5,-1
 1 865 l 1,0,-1
EndSplineSet
EndChar

StartChar: endash
Encoding: 8211 8211 141
Width: 469
GlyphClass: 2
Flags: W
LayerCount: 2
Fore
SplineSet
439 266 m 1,0,1
 437 255 437 255 433.5 242.5 c 128,-1,2
 430 230 430 230 425 222 c 1,3,-1
 42 222 l 1,4,-1
 30 234 l 1,5,6
 32 245 32 245 36 256.5 c 128,-1,7
 40 268 40 268 45 278 c 1,8,-1
 428 278 l 1,9,-1
 439 266 l 1,10,-1
 439 266 l 1,0,1
EndSplineSet
EndChar

StartChar: emdash
Encoding: 8212 8212 142
Width: 766
GlyphClass: 2
Flags: W
LayerCount: 2
Fore
SplineSet
736 266 m 1,0,1
 734 255 734 255 730 242.5 c 128,-1,2
 726 230 726 230 722 222 c 1,3,-1
 42 222 l 1,4,-1
 30 234 l 1,5,6
 32 245 32 245 36 256.5 c 128,-1,7
 40 268 40 268 45 278 c 1,8,-1
 725 278 l 1,9,-1
 736 266 l 1,10,-1
 736 266 l 1,0,1
EndSplineSet
EndChar

StartChar: quoteleft
Encoding: 8216 8216 143
Width: 229
GlyphClass: 2
Flags: W
LayerCount: 2
Fore
SplineSet
187 513 m 1,0,1
 182 507 182 507 168 499 c 128,-1,2
 154 491 154 491 137 484 c 128,-1,3
 120 477 120 477 104 472.5 c 128,-1,4
 88 468 88 468 79 469 c 1,5,6
 62 483 62 483 53.5 500 c 128,-1,7
 45 517 45 517 45 546 c 0,8,9
 45 565 45 565 51.5 587 c 128,-1,10
 58 609 58 609 71 631 c 128,-1,11
 84 653 84 653 102 673 c 128,-1,12
 120 693 120 693 144 708 c 1,13,-1
 165 691 l 1,14,15
 144 669 144 669 134 639.5 c 128,-1,16
 124 610 124 610 124 590 c 0,17,18
 124 568 124 568 137 552 c 128,-1,19
 150 536 150 536 179 535 c 1,20,-1
 187 513 l 1,21,-1
 187 513 l 1,0,1
EndSplineSet
EndChar

StartChar: quoteright
Encoding: 8217 8217 144
Width: 229
GlyphClass: 2
Flags: W
LayerCount: 2
Fore
SplineSet
184 633 m 0,0,1
 184 614 184 614 177.5 591.5 c 128,-1,2
 171 569 171 569 158.5 547 c 128,-1,3
 146 525 146 525 127.5 505 c 128,-1,4
 109 485 109 485 86 470 c 1,5,-1
 64 487 l 1,6,7
 85 509 85 509 95 538.5 c 128,-1,8
 105 568 105 568 105 588 c 0,9,10
 105 610 105 610 92 626 c 128,-1,11
 79 642 79 642 51 644 c 1,12,-1
 43 666 l 1,13,14
 47 672 47 672 61 679.5 c 128,-1,15
 75 687 75 687 92.5 694 c 128,-1,16
 110 701 110 701 126 705.5 c 128,-1,17
 142 710 142 710 151 710 c 1,18,19
 167 695 167 695 175.5 678 c 128,-1,20
 184 661 184 661 184 633 c 0,0,1
EndSplineSet
EndChar

StartChar: quotedblleft
Encoding: 8220 8220 145
Width: 436
GlyphClass: 2
Flags: W
LayerCount: 2
Fore
SplineSet
393 513 m 1,0,1
 388 507 388 507 374 499 c 128,-1,2
 360 491 360 491 343 484 c 128,-1,3
 326 477 326 477 310 472.5 c 128,-1,4
 294 468 294 468 285 469 c 1,5,6
 269 483 269 483 260 500 c 128,-1,7
 251 517 251 517 251 546 c 0,8,9
 251 565 251 565 257.5 587 c 128,-1,10
 264 609 264 609 277 631 c 128,-1,11
 290 653 290 653 308 673 c 128,-1,12
 326 693 326 693 350 708 c 1,13,-1
 371 691 l 1,14,15
 350 669 350 669 340 639.5 c 128,-1,16
 330 610 330 610 330 590 c 0,17,18
 330 568 330 568 343 552 c 128,-1,19
 356 536 356 536 385 535 c 1,20,-1
 393 513 l 1,0,1
187 513 m 1,21,22
 182 507 182 507 168 499 c 128,-1,23
 154 491 154 491 137 484 c 128,-1,24
 120 477 120 477 104 472.5 c 128,-1,25
 88 468 88 468 79 469 c 1,26,27
 62 483 62 483 53.5 500 c 128,-1,28
 45 517 45 517 45 546 c 0,29,30
 45 565 45 565 51.5 587 c 128,-1,31
 58 609 58 609 71 631 c 128,-1,32
 84 653 84 653 102 673 c 128,-1,33
 120 693 120 693 144 708 c 1,34,-1
 165 691 l 1,35,36
 144 669 144 669 134 639.5 c 128,-1,37
 124 610 124 610 124 590 c 0,38,39
 124 568 124 568 137 552 c 128,-1,40
 150 536 150 536 179 535 c 1,41,-1
 187 513 l 1,21,22
EndSplineSet
EndChar

StartChar: quotedblright
Encoding: 8221 8221 146
Width: 436
GlyphClass: 2
Flags: W
LayerCount: 2
Fore
SplineSet
390 633 m 0,0,1
 390 614 390 614 383.5 591.5 c 128,-1,2
 377 569 377 569 364.5 547 c 128,-1,3
 352 525 352 525 333.5 505 c 128,-1,4
 315 485 315 485 292 470 c 1,5,-1
 271 487 l 1,6,7
 291 509 291 509 301.5 538.5 c 128,-1,8
 312 568 312 568 312 588 c 0,9,10
 312 610 312 610 298.5 626 c 128,-1,11
 285 642 285 642 257 644 c 1,12,-1
 249 666 l 1,13,14
 253 672 253 672 267 679.5 c 128,-1,15
 281 687 281 687 298.5 694 c 128,-1,16
 316 701 316 701 332 705.5 c 128,-1,17
 348 710 348 710 357 710 c 1,18,19
 373 695 373 695 381.5 678 c 128,-1,20
 390 661 390 661 390 633 c 0,0,1
184 633 m 0,21,22
 184 614 184 614 177.5 591.5 c 128,-1,23
 171 569 171 569 158.5 547 c 128,-1,24
 146 525 146 525 127.5 505 c 128,-1,25
 109 485 109 485 86 470 c 1,26,-1
 64 487 l 1,27,28
 85 509 85 509 95 538.5 c 128,-1,29
 105 568 105 568 105 588 c 0,30,31
 105 610 105 610 92 626 c 128,-1,32
 79 642 79 642 51 644 c 1,33,-1
 43 666 l 1,34,35
 47 672 47 672 61 679.5 c 128,-1,36
 75 687 75 687 92.5 694 c 128,-1,37
 110 701 110 701 126 705.5 c 128,-1,38
 142 710 142 710 151 710 c 1,39,40
 167 695 167 695 175.5 678 c 128,-1,41
 184 661 184 661 184 633 c 0,21,22
EndSplineSet
EndChar

StartChar: ellipsis
Encoding: 8230 8230 147
Width: 669
GlyphClass: 2
Flags: W
LayerCount: 2
Fore
SplineSet
180 60 m 0,0,1
 180 26 180 26 161 3 c 128,-1,2
 142 -20 142 -20 113 -20 c 0,3,4
 87 -20 87 -20 75.5 -5.5 c 128,-1,5
 64 9 64 9 64 35 c 0,6,7
 64 68 64 68 84 91.5 c 128,-1,8
 104 115 104 115 132 115 c 0,9,10
 180 115 180 115 180 60 c 0,0,1
400 60 m 0,11,12
 400 26 400 26 381 3 c 128,-1,13
 362 -20 362 -20 333 -20 c 0,14,15
 307 -20 307 -20 295.5 -5.5 c 128,-1,16
 284 9 284 9 284 35 c 0,17,18
 284 68 284 68 304 91.5 c 128,-1,19
 324 115 324 115 352 115 c 0,20,21
 400 115 400 115 400 60 c 0,11,12
620 60 m 0,22,23
 620 26 620 26 600.5 3 c 128,-1,24
 581 -20 581 -20 552 -20 c 0,25,26
 503 -20 503 -20 503 35 c 0,27,28
 503 68 503 68 523 91.5 c 128,-1,29
 543 115 543 115 571 115 c 0,30,31
 620 115 620 115 620 60 c 0,22,23
EndSplineSet
EndChar

StartChar: minus
Encoding: 8722 8722 148
Width: 410
GlyphClass: 2
Flags: W
LayerCount: 2
Fore
SplineSet
380 290 m 1,0,1
 378 280 378 280 373.5 267.5 c 128,-1,2
 369 255 369 255 365 247 c 1,3,-1
 42 247 l 1,4,-1
 30 259 l 1,5,6
 35 280 35 280 45 302 c 1,7,-1
 368 302 l 1,8,-1
 380 290 l 1,9,-1
 380 290 l 1,0,1
EndSplineSet
EndChar

StartChar: uni25CC
Encoding: 9676 9676 149
Width: 518
GlyphClass: 2
Flags: W
LayerCount: 2
Fore
SplineSet
404 390 m 1,0,1
 392 407 392 407 379.5 419.5 c 128,-1,2
 367 432 367 432 351 443 c 1,3,-1
 380 483 l 1,4,5
 420 457 420 457 446 418 c 1,6,-1
 404 390 l 1,0,1
297 467 m 1,7,8
 286 469 286 469 277 470.5 c 128,-1,9
 268 472 268 472 258 472 c 256,10,11
 248 472 248 472 239 470.5 c 128,-1,12
 230 469 230 469 220 467 c 1,13,14
 218 480 218 480 216 491.5 c 128,-1,15
 214 503 214 503 212 516 c 1,16,17
 236 523 236 523 258 523 c 0,18,19
 269 523 269 523 281 521.5 c 128,-1,20
 293 520 293 520 307 516 c 1,21,-1
 297 467 l 1,7,8
477 304 m 0,22,23
 477 294 477 294 475.5 281.5 c 128,-1,24
 474 269 474 269 471 256 c 1,25,-1
 421 266 l 1,26,27
 426 286 426 286 426 303 c 256,28,29
 426 320 426 320 421 342 c 1,30,-1
 471 352 l 1,31,32
 477 323 477 323 477 304 c 0,22,23
446 190 m 1,33,34
 432 169 432 169 415.5 153 c 128,-1,35
 399 137 399 137 380 125 c 1,36,37
 372 135 372 135 365 145.5 c 128,-1,38
 358 156 358 156 351 166 c 1,39,40
 367 177 367 177 381 189.5 c 128,-1,41
 395 202 395 202 405 218 c 1,42,-1
 446 190 l 1,33,34
167 444 m 1,43,44
 135 423 135 423 113 390 c 1,45,46
 104 397 104 397 93 403 c 128,-1,47
 82 409 82 409 72 417 c 1,48,49
 98 461 98 461 138 484 c 1,50,-1
 167 444 l 1,43,44
46 256 m 1,51,52
 43 270 43 270 42 281.5 c 128,-1,53
 41 293 41 293 41 304 c 0,54,55
 41 316 41 316 42 327.5 c 128,-1,56
 43 339 43 339 46 352 c 1,57,-1
 96 342 l 1,58,59
 94 333 94 333 93 322.5 c 128,-1,60
 92 312 92 312 92 303 c 256,61,62
 92 294 92 294 93 284 c 128,-1,63
 94 274 94 274 96 266 c 1,64,-1
 46 256 l 1,51,52
307 91 m 1,65,66
 295 89 295 89 282 87.5 c 128,-1,67
 269 86 269 86 258 86 c 0,68,69
 240 86 240 86 212 91 c 1,70,71
 214 104 214 104 216 116 c 128,-1,72
 218 128 218 128 220 141 c 1,73,74
 230 137 230 137 239 136.5 c 128,-1,75
 248 136 248 136 258 136 c 0,76,77
 276 136 276 136 297 142 c 1,78,-1
 307 91 l 1,65,66
138 125 m 1,79,80
 118 137 118 137 101 154 c 128,-1,81
 84 171 84 171 72 191 c 1,82,83
 82 199 82 199 93 205 c 128,-1,84
 104 211 104 211 113 218 c 1,85,86
 124 203 124 203 137.5 189 c 128,-1,87
 151 175 151 175 167 165 c 1,88,-1
 138 125 l 1,79,80
EndSplineSet
EndChar

StartChar: u09AF_u09CD.pstf
Encoding: 65539 -1 150
Width: 206
GlyphClass: 2
Flags: W
LayerCount: 2
Fore
SplineSet
206 588 m 1,0,1
 129 585 129 585 119 480 c 1,2,3
 118 404 118 404 134 325 c 1,4,5
 143 274 143 274 148 236 c 128,-1,6
 153 198 153 198 153 172 c 0,7,8
 153 141 153 141 139 109.5 c 128,-1,9
 125 78 125 78 100 49 c 1,10,11
 77 29 77 29 48.5 13 c 128,-1,12
 20 -3 20 -3 -9 -12 c 1,13,-1
 -41 12 l 1,14,15
 -13 22 -13 22 13 36.5 c 128,-1,16
 39 51 39 51 56 72 c 0,17,18
 80 102 80 102 80 165 c 0,19,20
 80 185 80 185 74.5 213.5 c 128,-1,21
 69 242 69 242 58 279 c 0,22,23
 36 352 36 352 36 393 c 1,24,25
 29 502 29 502 123 588 c 1,26,-1
 -40 588 l 1,27,-1
 -96 644 l 1,28,-1
 186 644 l 1,29,-1
 242 588 l 1,30,-1
 206 588 l 1,0,1
EndSplineSet
Ligature2: "'pstf' Post Base Forms in Bengali2 lookup 8 subtable" u09CD u09AF
Ligature2: "'pstf' Post Base Forms in Bengali lookup 7 subtable" u09AF u09CD
EndChar

StartChar: u09A4_u09CD
Encoding: 2510 2510 151
Width: 466
GlyphClass: 2
Flags: W
AnchorPoint: "Anchor-1" -5 -20 basechar 0
LayerCount: 2
Fore
SplineSet
448 65 m 0,0,1
 448 44 448 44 445 23 c 1,2,-1
 402 36 l 1,3,4
 415 52 415 52 415 75 c 0,5,6
 415 107 415 107 388 135 c 128,-1,7
 361 163 361 163 310 189 c 0,8,9
 261 213 261 213 212.5 234 c 128,-1,10
 164 255 164 255 117 283 c 1,11,12
 14 354 14 354 14 461 c 0,13,14
 14 540 14 540 69 595 c 0,15,16
 125 651 125 651 205 651 c 0,17,18
 236 651 236 651 263.5 641 c 128,-1,19
 291 631 291 631 311 612.5 c 128,-1,20
 331 594 331 594 343 568.5 c 128,-1,21
 355 543 355 543 355 512 c 0,22,23
 355 463 355 463 326.5 433 c 128,-1,24
 298 403 298 403 250 403 c 0,25,26
 134 404 134 404 105 545 c 1,27,28
 68 530 68 530 65 475 c 1,29,30
 65 400 65 400 165 343 c 1,31,32
 212 318 212 318 257.5 296 c 128,-1,33
 303 274 303 274 350 245 c 1,34,35
 448 173 448 173 448 65 c 0,0,1
307 529 m 1,36,37
 296 589 296 589 196 579 c 0,38,39
 166 575 166 575 148 564 c 1,40,41
 148 520 148 520 180 488 c 1,42,43
 210 462 210 462 240 466 c 0,44,45
 269 470 269 470 289.5 487 c 128,-1,46
 310 504 310 504 307 529 c 1,36,37
EndSplineSet
Ligature2: "'haln' Halant Forms lookup 15 subtable" u09A4.001
EndChar

StartChar: u0995_u09CD_u0995
Encoding: 65540 -1 152
Width: 651
GlyphClass: 2
Flags: W
AnchorPoint: "Anchor-1" 5 -35 basechar 0
AnchorPoint: "Anchor-0" 395 0 basechar 0
LayerCount: 2
Fore
SplineSet
400 588 m 1,0,-1
 400 544 l 1,1,-1
 413 544 l 1,2,3
 483 539 483 539 541 486 c 0,4,5
 600 432 600 432 600 362 c 0,6,7
 600 281 600 281 537 280 c 1,8,9
 582 231 582 231 580 172 c 1,10,11
 571 101 571 101 506 98 c 1,12,13
 482 98 482 98 462.5 113.5 c 128,-1,14
 443 129 443 129 443 152 c 0,15,16
 443 171 443 171 459.5 182.5 c 128,-1,17
 476 194 476 194 497 194 c 0,18,19
 515 194 515 194 540 166 c 1,20,-1
 541 172 l 1,21,22
 541 195 541 195 531.5 214 c 128,-1,23
 522 233 522 233 506 247 c 128,-1,24
 490 261 490 261 469 269.5 c 128,-1,25
 448 278 448 278 425 281 c 1,26,-1
 400 282 l 1,27,-1
 400 -50 l 1,28,29
 395 -46 395 -46 388.5 -42 c 128,-1,30
 382 -38 382 -38 377 -35 c 1,31,-1
 377 -36 l 1,32,33
 335 40 335 40 274.5 85.5 c 128,-1,34
 214 131 214 131 142 136 c 1,35,-1
 143 136 l 1,36,-1
 76 222 l 1,37,38
 89 231 89 231 102.5 239 c 128,-1,39
 116 247 116 247 130 255 c 1,40,-1
 129 255 l 1,41,-1
 165 276 l 1,42,43
 151 287 151 287 131 291.5 c 128,-1,44
 111 296 111 296 91 297 c 1,45,46
 55 341 55 341 18 384 c 1,47,48
 88 433 88 433 173 474.5 c 128,-1,49
 258 516 258 516 344 542 c 1,50,-1
 344 588 l 1,51,-1
 -11 588 l 1,52,-1
 -66 644 l 1,53,-1
 611 644 l 1,54,-1
 665 588 l 1,55,-1
 400 588 l 1,0,-1
560 366 m 0,56,57
 556 387 556 387 543 404.5 c 128,-1,58
 530 422 530 422 504 438 c 0,59,60
 464 461 464 461 414 463 c 1,61,-1
 400 463 l 1,62,-1
 400 360 l 1,63,64
 429 355 429 355 451 343.5 c 128,-1,65
 473 332 473 332 490 315 c 1,66,-1
 486 335 l 1,67,68
 486 381 486 381 519 381 c 0,69,70
 546 381 546 381 556 358 c 1,71,72
 560 364 560 364 560 366 c 0,56,57
344 456 m 1,73,74
 288 439 288 439 234 413 c 128,-1,75
 180 387 180 387 128 351 c 1,76,77
 164 334 164 334 206 300 c 1,78,79
 241 316 241 316 275 330.5 c 128,-1,80
 309 345 309 345 344 358 c 1,81,-1
 344 456 l 1,73,74
344 276 m 1,82,83
 310 265 310 265 267 243 c 128,-1,84
 224 221 224 221 173 189 c 1,85,86
 277 168 277 168 344 70 c 1,87,-1
 344 276 l 1,82,83
EndSplineSet
Ligature2: "'pres' Pre Base Substitutions lookup 10 subtable" u0995.001 u0995
EndChar

StartChar: u0995_u09CD_u099F
Encoding: 65541 -1 153
Width: 506
GlyphClass: 2
Flags: W
AnchorPoint: "Anchor-1" 10 -25 basechar 0
AnchorPoint: "Anchor-0" 255 30 basechar 0
LayerCount: 2
Fore
SplineSet
509 588 m 1,0,-1
 307 588 l 1,1,-1
 308 564 l 1,2,3
 339 559 339 559 365.5 546 c 128,-1,4
 392 533 392 533 410.5 512 c 128,-1,5
 429 491 429 491 439.5 463.5 c 128,-1,6
 450 436 450 436 450 402 c 0,7,8
 450 367 450 367 435 343 c 1,9,10
 416 315 416 315 383 315 c 1,11,12
 330 317 330 317 321 363 c 1,13,14
 321 387 321 387 332.5 406 c 128,-1,15
 344 425 344 425 365 425 c 1,16,17
 400 420 400 420 404 393 c 1,18,19
 410 395 410 395 414 400 c 128,-1,20
 418 405 418 405 417 419 c 1,21,22
 396 499 396 499 303 508 c 1,23,24
 304 437 304 437 269 356 c 0,25,26
 265 346 265 346 247.5 314 c 128,-1,27
 230 282 230 282 199 228 c 1,28,29
 163 160 163 160 163 126 c 0,30,31
 163 67 163 67 207 67 c 0,32,33
 235 67 235 67 291 98 c 0,34,35
 318 114 318 114 332.5 129.5 c 128,-1,36
 347 145 347 145 352 159 c 1,37,-1
 345 159 l 2,38,39
 318 159 318 159 297 174 c 128,-1,40
 276 189 276 189 276 216 c 0,41,42
 276 245 276 245 296.5 268 c 128,-1,43
 317 291 317 291 345 291 c 0,44,45
 444 291 444 291 444 207 c 0,46,47
 444 131 444 131 374 73 c 0,48,49
 305 16 305 16 231 16 c 0,50,51
 102 16 102 16 102 115 c 0,52,53
 102 180 102 180 184 290 c 1,54,55
 169 337 169 337 136 348 c 0,56,57
 123 353 123 353 104.5 354.5 c 128,-1,58
 86 356 86 356 75 356 c 1,59,-1
 21 434 l 1,60,61
 67 476 67 476 126 509.5 c 128,-1,62
 185 543 185 543 250 562 c 1,63,-1
 250 588 l 1,64,-1
 -2 588 l 1,65,-1
 -58 644 l 1,66,-1
 374 644 l 1,67,68
 380 659 380 659 380 668 c 0,69,70
 380 705 380 705 320 705 c 0,71,72
 313 705 313 705 301.5 705 c 128,-1,73
 290 705 290 705 281 703 c 1,74,75
 276 703 276 703 272.5 702.5 c 128,-1,76
 269 702 269 702 267 702 c 2,77,-1
 171 702 l 2,78,79
 21 702 21 702 21 790 c 0,80,81
 21 816 21 816 26.5 837.5 c 128,-1,82
 32 859 32 859 44 873 c 1,83,84
 54 868 54 868 61.5 863 c 128,-1,85
 69 858 69 858 79 853 c 1,86,87
 56 841 56 841 56 817 c 0,88,89
 56 765 56 765 165 765 c 0,90,91
 171 765 171 765 181.5 765 c 128,-1,92
 192 765 192 765 202 766 c 0,93,94
 205 766 205 766 207.5 767 c 128,-1,95
 210 768 210 768 213 768 c 2,96,-1
 250 770 l 1,97,98
 407 770 407 770 407 669 c 0,99,100
 407 662 407 662 406.5 656 c 128,-1,101
 406 650 406 650 405 644 c 1,102,-1
 453 644 l 1,103,-1
 509 588 l 1,0,-1
246 498 m 1,104,105
 163 471 163 471 111 420 c 1,106,107
 194 385 194 385 199 321 c 1,108,109
 222 352 222 352 235 398 c 1,110,111
 250 444 250 444 250 481 c 1,112,113
 249 482 249 482 249 485 c 1,114,115
 248 487 248 487 248 489.5 c 128,-1,116
 248 492 248 492 247 497 c 1,117,-1
 246 498 l 1,104,105
EndSplineSet
Ligature2: "'pres' Pre Base Substitutions lookup 10 subtable" u0995.001 u099F
EndChar

StartChar: u0995_u09CD_u09A4
Encoding: 65542 -1 154
Width: 774
GlyphClass: 2
Flags: W
AnchorPoint: "Anchor-1" 45 -10 basechar 0
AnchorPoint: "Anchor-0" 405 55 basechar 0
LayerCount: 2
Fore
SplineSet
789 588 m 1,0,-1
 -15 588 l 1,1,-1
 -73 644 l 1,2,-1
 736 644 l 1,3,-1
 789 588 l 1,0,-1
729 348 m 0,4,5
 729 305 729 305 703 265 c 1,6,7
 675 229 675 229 628 224 c 0,8,9
 615 223 615 223 602.5 225.5 c 128,-1,10
 590 228 590 228 580.5 237 c 128,-1,11
 571 246 571 246 565.5 260 c 128,-1,12
 560 274 560 274 560 286 c 0,13,14
 559 309 559 309 572 324 c 1,15,16
 589 340 589 340 611 339 c 1,17,18
 638 339 638 339 655 298 c 1,19,-1
 660 298 l 2,20,21
 678 298 678 298 681 340 c 1,22,23
 681 375 681 375 662.5 397 c 128,-1,24
 644 419 644 419 611 419 c 0,25,26
 573 419 573 419 531 383 c 1,27,28
 513 366 513 366 502 347.5 c 128,-1,29
 491 329 491 329 491 310 c 1,30,-1
 492 303 l 1,31,32
 532 262 532 262 532 202.5 c 128,-1,33
 532 143 532 143 486 101 c 0,34,35
 463 79 463 79 436 69 c 128,-1,36
 409 59 409 59 377 59 c 0,37,38
 161 59 161 59 28 542 c 1,39,-1
 68 521 l 1,40,-1
 132 361 l 1,41,42
 154 310 154 310 176 272.5 c 128,-1,43
 198 235 198 235 223 210 c 0,44,45
 290 145 290 145 381 145 c 0,46,47
 429 145 429 145 457.5 169 c 128,-1,48
 486 193 486 193 486 239 c 0,49,50
 486 264 486 264 459 292 c 1,51,52
 434 270 434 270 412 270 c 0,53,54
 383 270 383 270 364.5 289 c 128,-1,55
 346 308 346 308 346 337 c 0,56,57
 346 362 346 362 363.5 381.5 c 128,-1,58
 381 401 381 401 404 401 c 0,59,60
 429 401 429 401 454 387 c 1,61,62
 484 405 484 405 484 437 c 0,63,64
 484 461 484 461 455 479 c 1,65,66
 426 493 426 493 400 493 c 0,67,68
 363 493 363 493 327 476 c 128,-1,69
 291 459 291 459 274 429 c 1,70,71
 307 412 307 412 307 374 c 0,72,73
 307 325 307 325 257 325 c 0,74,75
 226 325 226 325 206 346 c 128,-1,76
 186 367 186 367 186 399 c 0,77,78
 186 467 186 467 252 517 c 1,79,80
 315 563 315 563 383 563 c 0,81,82
 458 563 458 563 488 522 c 1,83,84
 515 487 515 487 517 407 c 1,85,86
 576 471 576 471 621 471 c 256,87,88
 666 471 666 471 697 433 c 0,89,90
 729 393 729 393 729 348 c 0,4,5
EndSplineSet
Ligature2: "'pres' Pre Base Substitutions lookup 10 subtable" u0995.001 u09A4
EndChar

StartChar: u0995_u09CD_u09A4_u09F0_u09CD
Encoding: 65543 -1 155
Width: 773
GlyphClass: 2
Flags: W
AnchorPoint: "Anchor-1" 45 -110 basechar 0
AnchorPoint: "Anchor-0" 520 -65 basechar 0
LayerCount: 2
Fore
SplineSet
477 -54 m 1,0,-1
 477 94 l 1,1,2
 434 59 434 59 377 59 c 0,3,4
 161 59 161 59 28 542 c 1,5,-1
 68 521 l 1,6,-1
 132 361 l 1,7,8
 154 310 154 310 176 272.5 c 128,-1,9
 198 235 198 235 223 210 c 0,10,11
 290 145 290 145 381 145 c 0,12,13
 429 145 429 145 457.5 169 c 128,-1,14
 486 193 486 193 486 239 c 0,15,16
 486 264 486 264 459 292 c 1,17,18
 434 270 434 270 412 270 c 0,19,20
 383 270 383 270 364.5 289 c 128,-1,21
 346 308 346 308 346 337 c 0,22,23
 346 362 346 362 363.5 381.5 c 128,-1,24
 381 401 381 401 404 401 c 0,25,26
 429 401 429 401 454 387 c 1,27,28
 484 405 484 405 484 437 c 0,29,30
 484 461 484 461 454 477 c 1,31,-1
 455 477 l 1,32,33
 426 493 426 493 400 493 c 0,34,35
 363 493 363 493 327 476 c 128,-1,36
 291 459 291 459 274 429 c 1,37,38
 307 412 307 412 307 374 c 0,39,40
 307 325 307 325 257 325 c 0,41,42
 226 325 226 325 206 346 c 128,-1,43
 186 367 186 367 186 399 c 0,44,45
 186 467 186 467 252 517 c 1,46,47
 315 563 315 563 383 563 c 0,48,49
 458 563 458 563 488 522 c 1,50,51
 515 487 515 487 517 407 c 1,52,53
 576 471 576 471 621 471 c 256,54,55
 666 471 666 471 697 433 c 0,56,57
 729 393 729 393 729 348 c 0,58,59
 729 305 729 305 701 266 c 0,60,61
 672 224 672 224 628 224 c 0,62,63
 616 224 616 224 603.5 228.5 c 128,-1,64
 591 233 591 233 582 241.5 c 128,-1,65
 573 250 573 250 567 262 c 128,-1,66
 561 274 561 274 561 286 c 0,67,68
 560 306 560 306 572 324 c 1,69,70
 593 341 593 341 611 339 c 1,71,72
 638 339 638 339 655 298 c 1,73,-1
 660 298 l 1,74,75
 681 297 681 297 681 340 c 0,76,77
 681 375 681 375 662.5 397 c 128,-1,78
 644 419 644 419 611 419 c 0,79,80
 573 419 573 419 531 383 c 1,81,82
 513 366 513 366 502 347.5 c 128,-1,83
 491 329 491 329 491 310 c 1,84,-1
 492 303 l 1,85,86
 532 262 532 262 532 208 c 0,87,88
 532 196 532 196 530.5 185.5 c 128,-1,89
 529 175 529 175 527 165 c 1,90,-1
 527 -146 l 1,91,92
 523 -142 523 -142 510 -126.5 c 128,-1,93
 497 -111 497 -111 476 -86 c 0,94,95
 462 -70 462 -70 443.5 -60 c 128,-1,96
 425 -50 425 -50 401 -48 c 1,97,-1
 301 -48 l 2,98,99
 201 -48 201 -48 146 -25 c 0,100,101
 59 11 59 11 59 108 c 0,102,103
 59 141 59 141 79 207 c 1,104,-1
 100 186 l 1,105,106
 92 175 92 175 92 149 c 0,107,108
 92 60 92 60 177 42 c 1,109,110
 222 40 222 40 255.5 37 c 128,-1,111
 289 34 289 34 312 31 c 0,112,113
 425 20 425 20 475 -55 c 1,114,-1
 477 -54 l 1,0,-1
789 588 m 1,115,-1
 -15 588 l 1,116,-1
 -73 644 l 1,117,-1
 736 644 l 1,118,-1
 789 588 l 1,115,-1
EndSplineSet
Ligature2: "'pres' Pre Base Substitutions lookup 10 subtable" u0995.001 u09A4_u09F0_u09CD
EndChar

StartChar: u0995_u09CD_u09A4_u09AC_u09CD
Encoding: 65544 -1 156
Width: 770
GlyphClass: 2
Flags: W
AnchorPoint: "Anchor-1" 0 -135 basechar 0
AnchorPoint: "Anchor-0" 505 -165 basechar 0
LayerCount: 2
Fore
SplineSet
513 -207 m 1,0,1
 481 -193 481 -193 453 -149 c 1,2,3
 436 -125 436 -125 423.5 -109.5 c 128,-1,4
 411 -94 411 -94 401 -86 c 0,5,6
 382 -72 382 -72 352 -64.5 c 128,-1,7
 322 -57 322 -57 287 -56 c 1,8,-1
 233 18 l 1,9,-1
 311 70 l 1,10,11
 139 137 139 137 28 542 c 1,12,-1
 68 521 l 1,13,-1
 132 361 l 1,14,15
 154 310 154 310 176 272.5 c 128,-1,16
 198 235 198 235 223 210 c 0,17,18
 290 145 290 145 381 145 c 0,19,20
 429 145 429 145 457.5 169 c 128,-1,21
 486 193 486 193 486 239 c 0,22,23
 486 264 486 264 459 292 c 1,24,25
 434 270 434 270 412 270 c 0,26,27
 383 270 383 270 364.5 289 c 128,-1,28
 346 308 346 308 346 337 c 0,29,30
 346 362 346 362 363.5 381.5 c 128,-1,31
 381 401 381 401 404 401 c 0,32,33
 429 401 429 401 454 387 c 1,34,35
 484 405 484 405 484 437 c 0,36,37
 484 461 484 461 454 477 c 1,38,-1
 455 477 l 1,39,40
 426 493 426 493 400 493 c 0,41,42
 363 493 363 493 327 476 c 128,-1,43
 291 459 291 459 274 429 c 1,44,45
 307 412 307 412 307 374 c 0,46,47
 307 325 307 325 257 325 c 0,48,49
 226 325 226 325 206 346 c 128,-1,50
 186 367 186 367 186 399 c 0,51,52
 186 467 186 467 252 517 c 1,53,54
 315 563 315 563 383 563 c 0,55,56
 458 563 458 563 488 522 c 1,57,58
 515 487 515 487 517 407 c 1,59,60
 576 471 576 471 621 471 c 256,61,62
 666 471 666 471 697 433 c 0,63,64
 729 393 729 393 729 348 c 0,65,66
 729 305 729 305 701 266 c 0,67,68
 672 224 672 224 628 224 c 0,69,70
 616 224 616 224 604.5 229.5 c 128,-1,71
 593 235 593 235 583 243.5 c 128,-1,72
 573 252 573 252 567 263 c 128,-1,73
 561 274 561 274 561 286 c 0,74,75
 561 297 561 297 572 324 c 1,76,-1
 572 323 l 1,77,78
 589 339 589 339 611 339 c 0,79,80
 638 339 638 339 655 298 c 1,81,-1
 660 298 l 1,82,83
 681 297 681 297 681 340 c 0,84,85
 681 375 681 375 662.5 397 c 128,-1,86
 644 419 644 419 611 419 c 0,87,88
 573 419 573 419 531 383 c 1,89,90
 513 366 513 366 502 347.5 c 128,-1,91
 491 329 491 329 491 310 c 1,92,-1
 492 303 l 1,93,94
 532 262 532 262 532 208 c 0,95,96
 532 159 532 159 506 123 c 1,97,98
 513 112 513 112 513 107 c 2,99,-1
 513 -207 l 1,0,1
779 588 m 1,100,-1
 -5 588 l 1,101,-1
 -63 644 l 1,102,-1
 726 644 l 1,103,-1
 779 588 l 1,100,-1
434 68 m 1,104,-1
 321 -4 l 1,105,106
 401 -22 401 -22 461 -100 c 1,107,-1
 461 81 l 1,108,109
 453 75 453 75 446.5 72.5 c 128,-1,110
 440 70 440 70 435 68 c 1,111,-1
 434 68 l 1,104,-1
EndSplineSet
Ligature2: "'blws' Below Base Substitutions lookup 13 subtable" u0995_u09CD_u09A4 u09AC_u09CD
EndChar

StartChar: u0995_u09CD_u09A8
Encoding: 65545 -1 157
Width: 656
GlyphClass: 2
Flags: W
AnchorPoint: "Anchor-1" 70 -40 basechar 0
AnchorPoint: "Anchor-0" 395 25 basechar 0
LayerCount: 2
Fore
SplineSet
401 588 m 1,0,-1
 401 542 l 1,1,-1
 414 544 l 1,2,3
 452 542 452 542 488 525.5 c 128,-1,4
 524 509 524 509 555 477 c 0,5,6
 618 409 618 409 618 331 c 0,7,8
 618 307 618 307 612.5 285.5 c 128,-1,9
 607 264 607 264 595 246 c 0,10,11
 569 204 569 204 524 204 c 0,12,13
 496 204 496 204 473 224 c 128,-1,14
 450 244 450 244 450 273 c 0,15,16
 450 300 450 300 469 318 c 128,-1,17
 488 336 488 336 516 336 c 0,18,19
 552 336 552 336 571 307 c 1,20,21
 573 311 573 311 573.5 313 c 128,-1,22
 574 315 574 315 575 317 c 2,23,-1
 576 319 l 1,24,25
 576 376 576 376 530 423 c 1,26,27
 486 472 486 472 429 467 c 1,28,-1
 400 465 l 1,29,-1
 400 -15 l 1,30,-1
 381 -8 l 1,31,-1
 341 93 l 1,32,33
 308 163 308 163 235 163 c 1,34,35
 234 162 234 162 231 162 c 0,36,37
 229 162 229 162 225 161.5 c 128,-1,38
 221 161 221 161 215 161 c 1,39,40
 239 147 239 147 239 114 c 0,41,42
 239 45 239 45 165 45 c 0,43,44
 148 45 148 45 133.5 51.5 c 128,-1,45
 119 58 119 58 107.5 69.5 c 128,-1,46
 96 81 96 81 89.5 95.5 c 128,-1,47
 83 110 83 110 83 127 c 0,48,49
 83 183 83 183 116 212 c 128,-1,50
 149 241 149 241 205 241 c 0,51,52
 315 241 315 241 362 101 c 1,53,-1
 364 101 l 1,54,-1
 364 113 l 2,55,56
 364 291 364 291 124 321 c 1,57,-1
 46 418 l 1,58,59
 132 466 132 466 206 497 c 128,-1,60
 280 528 280 528 343 541 c 1,61,-1
 343 588 l 1,62,-1
 -6 588 l 1,63,-1
 -63 644 l 1,64,-1
 605 644 l 1,65,-1
 663 588 l 1,66,-1
 401 588 l 1,0,-1
343 464 m 1,67,68
 255 451 255 451 157 395 c 1,69,70
 274 378 274 378 343 276 c 1,71,-1
 343 464 l 1,67,68
EndSplineSet
Ligature2: "'pres' Pre Base Substitutions lookup 10 subtable" u0995.001 u09A8
EndChar

StartChar: u0995_u09CD_u09AE
Encoding: 65546 -1 158
Width: 639
GlyphClass: 2
Flags: W
AnchorPoint: "Anchor-1" 5 -10 basechar 0
AnchorPoint: "Anchor-0" 540 -20 basechar 0 {11-13 1,0,1} {11-15 -1,0,0,0,-1}
LayerCount: 2
Fore
SplineSet
665 588 m 1,0,-1
 577 588 l 1,1,-1
 577 -14 l 1,2,3
 574 -13 574 -13 570.5 -11 c 128,-1,4
 567 -9 567 -9 564 -8 c 1,5,-1
 565 -8 l 1,6,7
 540 17 540 17 508 69 c 1,8,9
 477 117 477 117 459 135 c 1,10,11
 443 149 443 149 419.5 159.5 c 128,-1,12
 396 170 396 170 366 178 c 1,13,14
 366 141 366 141 341 118.5 c 128,-1,15
 316 96 316 96 278 96 c 0,16,17
 245 96 245 96 221 120 c 128,-1,18
 197 144 197 144 197 177 c 0,19,20
 197 207 197 207 218.5 230 c 128,-1,21
 240 253 240 253 275 260 c 1,22,23
 197 355 197 355 92 358 c 1,24,25
 77 379 77 379 62 402.5 c 128,-1,26
 47 426 47 426 33 447 c 1,27,28
 90 489 90 489 150.5 516 c 128,-1,29
 211 543 211 543 270 556 c 1,30,-1
 270 588 l 1,31,-1
 -3 588 l 1,32,-1
 -59 644 l 1,33,-1
 607 644 l 1,34,-1
 665 588 l 1,0,-1
271 309 m 1,35,-1
 271 487 l 1,36,37
 235 476 235 476 200.5 461 c 128,-1,38
 166 446 166 446 134 424 c 1,39,40
 220 383 220 383 271 309 c 1,35,-1
523 101 m 1,41,-1
 523 588 l 1,42,-1
 323 588 l 1,43,-1
 323 562 l 1,44,45
 389 553 389 553 434 500 c 1,46,47
 454 473 454 473 464.5 444 c 128,-1,48
 475 415 475 415 475 388 c 0,49,50
 475 359 475 359 459 330 c 1,51,52
 439 300 439 300 408 300 c 0,53,54
 384 300 384 300 364.5 316 c 128,-1,55
 345 332 345 332 343 356 c 1,56,57
 342 390 342 390 362 405 c 1,58,59
 380 416 380 416 399 414 c 0,60,61
 417 412 417 412 427 395 c 1,62,63
 434 390 434 390 435 403 c 1,64,65
 435 436 435 436 406 463 c 0,66,67
 379 488 379 488 345 490 c 1,68,-1
 323 490 l 1,69,-1
 323 259 l 1,70,71
 435 243 435 243 521 100 c 1,72,-1
 523 101 l 1,41,-1
EndSplineSet
Ligature2: "'pres' Pre Base Substitutions lookup 10 subtable" u0995.001 u09AE
EndChar

StartChar: u0995_u09F0_u09CD
Encoding: 65547 -1 159
Width: 804
GlyphClass: 2
Flags: W
AnchorPoint: "Anchor-1" 50 0 basechar 0
AnchorPoint: "Anchor-0" 550 25 basechar 0 {17-19 -1,0,1} {}
LayerCount: 2
Fore
SplineSet
812 588 m 1,0,-1
 -5 588 l 1,1,-1
 -62 644 l 1,2,-1
 758 644 l 1,3,-1
 812 588 l 1,0,-1
786 299 m 0,4,5
 786 258 786 258 763 230 c 128,-1,6
 740 202 740 202 698 202 c 0,7,8
 668 202 668 202 646 216 c 1,9,10
 621 237 621 237 621 266 c 0,11,12
 621 284 621 284 635.5 298 c 128,-1,13
 650 312 650 312 668 312 c 0,14,15
 702 312 702 312 723 277 c 1,16,17
 739 281 739 281 739 301 c 0,18,19
 739 317 739 317 731.5 331 c 128,-1,20
 724 345 724 345 711.5 355.5 c 128,-1,21
 699 366 699 366 683 371.5 c 128,-1,22
 667 377 667 377 650 377 c 0,23,24
 592 377 592 377 558 315 c 1,25,-1
 558 -15 l 1,26,-1
 524 16 l 1,27,-1
 524 15 l 1,28,29
 497 109 497 109 421 102 c 0,30,31
 393 99 393 99 354 94 c 1,32,33
 301 85 301 85 277.5 83.5 c 128,-1,34
 254 82 254 82 238 82 c 0,35,36
 143 82 143 82 91 140 c 0,37,38
 41 195 41 195 41 290 c 0,39,40
 41 335 41 335 53.5 371.5 c 128,-1,41
 66 408 66 408 89 436 c 1,42,-1
 110 414 l 1,43,44
 99 399 99 399 92.5 386 c 128,-1,45
 86 373 86 373 84 365 c 0,46,47
 81 348 81 348 80.5 336 c 128,-1,48
 80 324 80 324 80 313 c 0,49,50
 81 230 81 230 139 196 c 1,51,52
 182 173 182 173 266 173 c 0,53,54
 274 173 274 173 286 173 c 128,-1,55
 298 173 298 173 315 174 c 256,56,57
 332 175 332 175 343.5 175 c 128,-1,58
 355 175 355 175 362 175 c 0,59,60
 397 175 397 175 433.5 167 c 128,-1,61
 470 159 470 159 502 135 c 1,62,-1
 502 457 l 2,63,64
 502 500 502 500 464 500 c 0,65,66
 425 500 425 500 376 448 c 0,67,68
 353 424 353 424 337 401 c 128,-1,69
 321 378 321 378 314 356 c 1,70,71
 331 360 331 360 348 360 c 1,72,73
 373 358 373 358 384 338.5 c 128,-1,74
 395 319 395 319 395 296 c 0,75,76
 395 232 395 232 321 232 c 0,77,78
 224 232 224 232 224 345 c 1,79,80
 228 414 228 414 308 485 c 1,81,82
 392 561 392 561 457 561 c 0,83,84
 483 561 483 561 520 529 c 1,85,86
 558 499 558 499 558 474 c 2,87,-1
 558 370 l 1,88,89
 575 393 575 393 609 411 c 1,90,91
 646 428 646 428 677 427 c 1,92,93
 722 427 722 427 755 387 c 1,94,95
 785 347 785 347 786 299 c 0,4,5
EndSplineSet
Ligature2: "'vatu' Vattu Variants lookup 9 subtable" u0995 u09F0_u09CD
EndChar

